<svg width="355" height="300" viewBox="0 0 355 300" fill="none" xmlns="http://www.w3.org/2000/svg">
<path d="M348.583 160.671C346.174 157.867 343.658 155.17 341.302 152.323C334.33 143.923 327.337 135.533 320.514 127.005C307.167 110.257 293.745 93.4667 279.45 77.4652C265.335 61.6983 251.167 45.9634 237.181 30.0685C229.718 21.6254 222.544 12.9584 215.423 4.24872C213.642 2.11662 211.819 1.47699 209.325 2.19125C206.83 2.9055 204.549 3.58777 202.15 4.27005L132.91 23.8854C107.527 31.0813 82.0914 38.0746 56.4955 44.4496C52.6861 45.3877 48.898 46.3756 45.1313 47.4132L39.4919 48.9696C32.488 50.9205 25.5053 52.946 18.512 54.9502L15.4844 55.803L11.2202 56.997C10.5765 57.1823 9.96266 57.4587 9.39725 57.8179C9.1542 57.9204 8.94072 58.0822 8.77635 58.2885C8.61198 58.4948 8.50197 58.7391 8.45637 58.9989C8.41077 59.2587 8.43104 59.5258 8.51533 59.7757C8.59961 60.0257 8.74523 60.2505 8.93885 60.4297C10.5912 62.6684 12.137 64.9817 13.6401 67.3057C29.6878 92.1234 45.7212 116.945 61.7404 141.77C75.1301 162.494 87.5602 183.772 99.9264 205.125C106.163 215.892 112.954 226.339 119.499 236.925C119.678 237.157 119.877 237.371 120.096 237.565C121.066 236.339 121.685 235.038 123.369 234.495L125.576 233.78L127.324 233.173C128.571 232.736 129.808 232.288 131.034 231.84L134.36 230.657C135.106 230.39 135.852 230.124 136.599 229.879C137.345 229.634 138.283 229.314 139.125 229.047C174.902 217.832 210.696 206.664 246.509 195.541C275.825 186.448 305.195 177.504 334.522 168.453C339.767 166.832 344.948 164.956 350.342 163.123C349.66 162.206 349.191 161.374 348.583 160.671Z" fill="#FFA100"/>
<path d="M352.218 174.838C352.013 175.345 351.696 175.8 351.292 176.169C350.889 176.538 350.407 176.812 349.884 176.971C345.065 178.708 340.289 180.435 335.407 182.109C305.834 192.311 275.953 201.5 246.007 210.509C232.362 214.609 218.713 218.678 205.06 222.715C189.517 227.32 173.971 231.94 158.421 236.574C150.617 238.898 142.846 241.317 135.074 243.769C134.326 244.12 133.678 244.651 133.187 245.315C129.488 249.419 128.358 254.334 128.806 259.707C128.905 261.885 129.151 264.054 129.541 266.199C130.39 269.661 132.09 272.857 134.488 275.495C135.914 277.122 137.698 278.398 139.698 279.223C141.699 280.048 143.863 280.399 146.022 280.25C149.894 280.102 153.724 279.402 157.397 278.171C179.123 271.249 200.857 264.351 222.597 257.479C255.495 247.031 288.401 236.598 321.313 226.18L347.602 217.854C348.999 217.406 350.374 216.862 351.749 216.382C353.156 219.25 352.943 222.992 350.832 224.74C349.201 225.982 347.365 226.928 345.406 227.533C338.562 229.836 331.686 231.968 324.81 234.313C309.288 239.526 293.895 244.974 278.256 249.984C241.253 261.818 204.165 273.544 167.13 285.271L159.145 287.797C150.887 290.427 142.664 293.163 134.477 296.006C133.783 296.3 133.013 296.366 132.279 296.194C131.545 296.021 130.884 295.619 130.394 295.046C123.755 288.79 119.149 280.681 117.175 271.775C114.312 260.818 115.445 249.2 120.373 239.004C120.792 238.048 121.408 237.191 122.179 236.488C122.95 235.784 123.86 235.251 124.851 234.921L130.181 233.045C160.03 222.512 190.455 213.728 220.699 204.389C258.175 192.819 295.671 181.324 333.189 169.903C338.455 168.282 343.668 166.502 348.903 164.786C349.532 164.583 350.139 164.274 351.099 163.879C351.64 165.108 352.096 166.373 352.463 167.664C352.932 170.041 353.284 172.408 352.218 174.838Z" fill="#FFA100"/>
<path d="M336.548 206.383C327.391 209.997 317.914 212.556 308.458 215.199L270.666 225.7C246.907 232.288 223.17 238.958 199.454 245.71C184.774 249.921 170.372 255.006 155.831 259.696L154.85 259.995C153.283 257.788 151.855 255.731 150.33 253.599C193.26 238.802 236.755 225.455 280.388 212.278C298.97 206.66 317.572 201.095 336.175 195.456C336.175 195.829 336.271 196.181 336.335 196.522C336.729 199.113 337.038 201.735 337.572 204.304C337.817 205.466 337.721 205.957 336.548 206.383Z" fill="white"/>
<path d="M337.219 212.502C318.244 218.707 299.289 224.954 280.292 231.084C270.875 234.132 261.459 237.167 252.042 240.188C229.74 247.366 207.431 254.522 185.115 261.658C170.563 266.317 155.959 270.805 141.407 275.367C140.341 275.708 139.275 276.071 138.102 276.337C137.921 276.378 137.733 276.382 137.55 276.349C137.367 276.316 137.192 276.247 137.036 276.146C134.392 273.874 132.417 270.926 131.322 267.617L146.769 263.182C147.419 265.922 148.016 268.513 148.699 271.38C149.441 270.777 150.153 270.136 150.831 269.461C152.323 267.894 152.59 267.83 154.498 268.864L155.127 269.227C156.428 269.888 157.131 269.515 156.929 268.044C156.604 266.165 156.184 264.304 155.671 262.468C155.498 261.917 155.295 261.376 155.063 260.848L166.48 257.095C200.594 245.784 235.188 236.211 269.792 226.659C276.039 224.939 282.282 223.212 288.522 221.478C301.898 217.783 315.277 214.059 328.659 210.306C331.463 209.517 334.16 208.355 336.91 207.364C337.347 207.204 337.795 207.065 338.307 206.895C338.731 207.621 339.088 208.385 339.373 209.176C339.467 209.896 339.302 210.626 338.907 211.235C338.513 211.844 337.915 212.293 337.219 212.502Z" fill="white"/>
<path d="M102.942 214.613C100.549 216.77 98.5509 219.328 97.0365 222.171C94.6187 227.011 93.1701 232.276 92.7723 237.672C92.655 238.674 92.5698 239.687 92.4951 240.699C92.3246 242.97 92.4951 245.273 92.4951 247.895C91.5783 246.413 90.7681 245.166 90.0006 243.887C81.8204 230.312 73.6473 216.738 65.4814 203.164C63.6477 200.136 61.7715 197.119 60.0445 194.028C59.7845 193.563 59.5907 193.064 59.4688 192.546C59.3642 192.106 59.3318 191.653 59.3729 191.203C60.4389 182.12 63.5518 173.954 70.0334 167.323L70.2786 167.067C71.4406 165.894 72.7945 164.935 74.2123 163.698C75.2784 165.511 76.3444 167.12 77.2719 168.762C84.0094 180.062 90.7433 191.37 97.4736 202.684C99.4245 205.978 101.237 209.347 103.177 212.652C103.55 213.44 103.667 213.952 102.942 214.613Z" fill="#FFA100"/>
<path d="M337.263 182.525C336.964 184.785 336.751 186.874 336.356 188.921C336.282 189.348 335.61 189.827 335.12 189.987C329.065 191.97 322.914 193.686 316.933 195.85C304.684 200.296 292.307 204.379 279.877 208.313C250.88 217.427 221.564 225.529 192.557 234.58C173.037 240.689 153.571 246.914 134.297 253.769C132.996 254.227 131.664 254.622 130.193 255.091C130.155 254.696 130.177 254.297 130.257 253.908C130.979 251.738 131.844 249.619 132.847 247.565C133.309 246.699 133.944 245.937 134.712 245.327C135.481 244.716 136.366 244.269 137.314 244.015C161.911 236.73 186.498 229.417 211.074 222.075L221.01 219.112C256.349 208.59 291.593 197.791 326.623 186.256C330.163 185.062 333.659 183.772 337.263 182.525Z" fill="white"/>
<path d="M73.8603 162.771C72.3221 163.872 70.8714 165.091 69.5215 166.417C62.9119 172.909 59.6711 181.128 57.9868 190.36C57.9868 190.456 57.9868 190.552 57.9868 190.648L56.473 188.004C54.682 184.924 52.8697 181.832 51.196 178.698C45.1089 167.419 39.1603 156.055 33.0731 144.797C31.8152 142.473 31.9218 140.128 32.103 137.751C32.571 130.632 35.0969 123.803 39.3735 118.093C40.1351 117.138 40.9577 116.233 41.8361 115.385L42.6463 114.543L73.8603 162.771Z" fill="#FFA100"/>
<path d="M41.922 113.807C41.6875 114.02 41.453 114.255 41.2291 114.489C33.9906 121.685 31.1016 130.693 30.6752 140.949C30.4087 140.647 30.1596 140.33 29.929 140C24.4281 131.472 18.9237 122.943 13.4158 114.415C11.5182 111.462 9.57801 108.52 7.55251 105.641C3.03245 99.1809 1.508 91.8891 1.33743 84.1815C1.07896 79.6329 1.39414 75.0699 2.27555 70.6C2.85259 67.8733 4.0167 65.305 5.68692 63.0737C6.33721 62.2209 7.04081 61.4107 7.98959 60.2806L30.3767 95.4604L41.922 113.807Z" fill="#FFA100"/>
<path d="M351.377 215.348C349.671 215.935 347.987 216.542 346.281 217.075L238.13 251.434L227.043 254.963C202.545 262.745 178.026 270.488 153.485 278.192C149.435 279.441 145.114 279.515 141.023 278.405C140.225 278.136 139.442 277.823 138.678 277.467C138.678 277.339 138.71 277.222 138.774 277.115C143.219 275.804 147.686 274.589 152.099 273.192C184.081 263.065 216.063 252.991 248.044 242.746L255.869 240.23C277.787 233.173 299.577 225.721 321.431 218.493C326.165 216.926 330.951 215.561 335.706 214.09C336.486 213.852 337.251 213.567 337.998 213.237C340.407 212.171 340.855 211.105 340.13 208.579C339.348 205.828 338.602 203.071 337.891 200.306C337.733 199.489 337.622 198.663 337.561 197.833C339.458 198.824 349.671 211.777 351.377 215.348Z" fill="#FFA100"/>
<path d="M130.789 296.998C127.495 298.927 125.597 298.533 123.049 295.079C114.02 282.915 106.27 269.909 98.3168 257.042C97.6438 255.827 96.885 254.662 96.0461 253.556C94.0526 251.168 93.5728 248.364 93.5089 245.433C93.4444 243.225 93.4978 241.015 93.6688 238.812C94.039 233.458 95.3603 228.213 97.5705 223.323L97.933 222.544C99.5519 219.492 101.754 216.786 104.415 214.581C107.869 220.114 111.205 225.476 114.531 230.838C116.003 233.205 117.463 235.55 118.796 237.97C118.933 238.24 119.014 238.536 119.034 238.838C119.054 239.14 119.013 239.443 118.913 239.729C111.578 257.276 113.583 273.843 124.03 289.567C125.65 292.008 127.953 294.002 129.947 296.198C130.202 296.443 130.512 296.688 130.789 296.998Z" fill="#FFA100"/>
<path d="M336.303 191.128C336.303 194.145 336.367 194.198 333.499 195.062C315.817 200.477 298.156 205.836 280.516 211.138C280.463 211.165 280.405 211.183 280.346 211.191C239.569 223.579 198.825 236.094 158.464 249.771C149.307 252.874 140.266 256.37 131.184 259.675C130.789 259.824 130.395 259.931 129.776 260.134C129.84 258.844 129.776 257.756 129.947 256.69C130.006 256.482 130.113 256.291 130.259 256.132C130.406 255.973 130.587 255.85 130.789 255.773C173.175 240.849 216.361 228.461 259.323 215.327C266.274 213.195 273.214 211.035 280.143 208.846C290.15 205.676 300.149 202.478 310.142 199.251C318.393 196.607 326.602 193.825 334.842 191.107C335.279 190.957 335.738 190.872 336.239 190.744C336.271 191.032 336.313 191.085 336.303 191.128Z" fill="white"/>
<path d="M155.862 268.011C155.862 268.075 155.777 268.15 155.617 268.438C153.858 267.041 152.195 266.722 150.724 268.001C150.692 268.022 150.664 268.047 150.638 268.075C150.318 268.373 150.032 268.706 149.786 269.067C149.619 269.303 149.466 269.549 149.327 269.802C149.021 267.937 148.561 266.101 147.952 264.312C146.93 261.298 145.218 258.564 142.952 256.328C143.347 256.189 143.72 256.04 144.103 255.88C145.48 255.28 146.907 254.802 148.368 254.451C149.029 254.323 150.105 255.219 150.649 255.912C153.501 259.367 155.31 263.565 155.862 268.011Z" fill="#BCD2EC"/>
<path d="M146.342 262.33L130.82 266.796C130.49 265.091 130.127 263.481 129.936 261.861C129.936 261.551 130.469 261.008 130.874 260.858C134.477 259.441 138.112 258.097 142.035 256.594L146.342 262.33Z" fill="white"/>
<path d="M224.016 55.8566C215.285 60.8777 206.671 66.0267 197.855 70.7813C196.789 71.3676 195.723 71.9113 194.657 72.423C187.35 75.6789 179.659 77.993 171.769 79.3097C169.541 79.7255 169.381 80.1626 170.756 81.9535C177.223 90.3967 183.701 98.8256 190.19 107.24C190.297 107.39 190.371 107.56 190.606 107.955C188.069 108.338 185.691 108.754 183.293 109.021C179.679 109.468 176.065 109.873 172.451 110.204C172.144 110.224 171.836 110.177 171.549 110.066C171.262 109.956 171.003 109.785 170.788 109.564C166.47 103.584 162.26 97.5392 157.995 91.5587C156.823 89.9276 155.501 88.3605 154.189 86.9C154.039 86.7552 153.856 86.6493 153.655 86.5917C153.454 86.5341 153.242 86.5265 153.038 86.5695C149.382 87.8062 145.81 89.3946 142.079 90.3434C133.306 92.5927 124.447 94.4157 115.684 96.6651C104.238 99.6043 93.459 104.703 83.926 111.686C83.7447 111.814 83.5315 111.92 83.2117 112.123C82.3056 110.844 81.4101 109.596 80.5466 108.349C78.4855 105.343 76.4458 102.329 74.4274 99.3089C74.1855 98.9067 73.9684 98.4902 73.7772 98.0616C74.4255 97.9044 75.0521 97.6681 75.6428 97.358C85.4891 90.3261 96.4947 85.0795 108.157 81.8576C115.62 79.7255 123.274 78.3929 130.8 76.5273C134.233 75.6851 137.591 74.5018 140.96 73.4145C142.58 72.9028 142.889 71.6874 141.759 70.1417C139.894 67.5831 137.975 65.0673 136.077 62.562C132.932 58.3938 129.766 54.2468 126.483 49.9293C126.879 49.8304 127.281 49.7592 127.687 49.7161C132.655 49.4069 137.623 49.0765 142.612 48.8419C142.949 48.8434 143.282 48.9142 143.59 49.0499C143.898 49.1857 144.175 49.3834 144.403 49.6308C148.124 54.5027 151.866 59.3959 155.394 64.3637C156.46 65.8668 157.707 66.6663 159.498 66.2506C164.21 65.1845 168.901 64.0332 173.602 62.9032C180.093 61.1864 186.278 58.4749 191.938 54.8651C194.156 53.5326 196.331 52.1254 198.484 50.6969C202.565 47.8249 207.077 45.6225 211.852 44.1726C212.464 43.9221 213.144 43.8914 213.775 44.0858C214.407 44.2802 214.952 44.6876 215.317 45.2387C217.961 48.5754 220.786 51.7736 223.526 55.0357C223.675 55.3875 223.888 55.6967 224.016 55.8566Z" fill="#F02143"/>
<path d="M73.7009 98.1042L72.1764 96.196C75.5771 93.8613 78.7753 91.5266 82.112 89.4052C92.9538 82.5078 105.096 79.0538 117.473 76.2608C118.125 76.0595 118.763 75.8137 119.381 75.5252C119.381 75.3333 119.296 75.1414 119.264 74.9602C118.696 74.9179 118.126 74.9179 117.558 74.9602C108.519 75.9976 99.4299 76.5456 90.3313 76.6019C82.0587 76.8045 73.8075 77.5933 65.5562 78.2117C63.9253 78.4439 62.3144 78.8003 60.7377 79.2777C59.6183 77.5827 58.3284 75.7491 57.1877 73.8302C57.0738 73.5639 57.0278 73.2736 57.0539 72.9852C57.0799 72.6967 57.1772 72.4193 57.337 72.1778C60.2473 70.099 63.0297 67.6258 66.2705 66.2719C69.5113 64.918 73.2212 64.6088 76.7498 64.0012C85.5767 62.498 94.3077 63.6174 103.039 65.0033C110.309 66.1546 117.548 67.6684 124.957 67.743C127.686 67.743 130.415 67.743 133.144 67.743C133.728 67.6503 134.298 67.4819 134.839 67.242C134.702 66.6563 134.483 66.0928 134.189 65.5683C130.479 60.6324 126.726 55.7286 122.984 50.8248C122.899 50.7075 122.835 50.5796 122.697 50.3557C123.912 49.9506 124.957 49.7694 125.831 50.974C127.099 52.7117 128.453 54.396 129.754 56.1124C133.357 60.8883 136.964 65.6607 140.574 70.4295C141.715 71.9433 141.555 72.2631 139.807 72.9134C129.69 76.6126 118.997 78.0517 108.667 80.8874C96.5222 84.1659 85.0723 89.62 74.8736 96.9848C74.4433 97.3566 74.0407 97.7592 73.6689 98.1895L73.7009 98.1042Z" fill="white"/>
<path d="M98.2209 134.691C97.3254 133.231 96.5792 131.813 95.641 130.565C95.2292 130.078 94.9612 129.486 94.867 128.856C94.7729 128.225 94.8563 127.58 95.108 126.994C96.1975 124.018 97.8034 121.257 99.8519 118.839C104.013 113.795 109.128 109.622 114.905 106.558C119.744 103.935 124.744 101.622 129.691 99.2128C131.36 98.6035 132.775 97.4508 133.71 95.9401C115.939 98.7011 99.5961 104.33 85.0551 114.905L83.6799 113.018C84.4901 112.411 85.2151 111.814 85.9826 111.291C95.645 104.661 106.441 99.8588 117.836 97.1234C126.589 94.9913 135.383 93.0617 144.114 90.9083C146.88 90.131 149.599 89.1985 152.259 88.1152C152.584 87.9186 152.971 87.8522 153.343 87.9293C153.715 88.0064 154.043 88.2214 154.263 88.531C154.882 89.3305 155.585 90.0448 156.172 90.8657C160.585 97.1269 164.991 103.392 169.391 109.66C169.54 109.884 169.668 110.14 169.913 110.556C168.602 110.726 167.45 110.929 166.278 111.003C166.098 110.975 165.925 110.911 165.771 110.814C165.617 110.716 165.485 110.589 165.382 110.438C162.035 105.652 158.719 100.844 155.383 96.036C154.583 94.8847 153.975 94.7568 152.973 95.7375C149.189 99.4474 144.552 101.899 139.957 104.362C132.311 108.517 125.664 114.291 120.48 121.28C120.2 121.664 119.836 121.978 119.414 122.197C111.969 125.679 104.872 129.863 98.2209 134.691Z" fill="white"/>
<path d="M242.853 77.3906C242.584 78.0564 242.189 78.6644 241.691 79.1816C239.985 81.2178 238.152 83.158 236.552 85.2688C235.578 86.6167 234.132 87.549 232.501 87.8806C223.148 89.8485 213.495 89.921 204.112 88.0938C201.298 87.5928 198.462 87.1024 195.584 86.7293C190.886 86.0238 186.13 85.781 181.384 86.0043C180.393 86.0043 179.391 86.1323 178.079 86.2282C183.612 93.3175 188.879 100.087 194.283 106.984C193.058 107.464 192.151 108.05 191.277 106.931C184.465 98.2107 177.653 89.5223 170.606 80.5142L175.617 79.4481C182.166 78.1389 188.553 76.1229 194.667 73.4356C197.506 72.1967 200.268 70.7906 202.94 69.2247C208.089 66.1971 213.195 63.0736 218.376 60.0673C220.423 58.884 222.64 57.8819 224.773 56.7732L226.713 59.0439C225.572 59.6409 224.506 60.1099 223.515 60.7176C216.415 64.9818 209.325 69.246 202.194 73.5102C201.298 74.0432 200.221 74.3097 199.198 75.0027C199.642 75.1675 200.103 75.2819 200.573 75.3438C211.298 75.9088 222.001 76.1434 232.555 73.265C234.175 72.8279 235.849 72.6254 237.491 72.3056C237.682 72.2946 237.875 72.2946 238.066 72.3056C239.26 72.167 243.205 76.3246 242.853 77.3906Z" fill="white"/>
<path d="M212.811 42.9359C205.999 44.4071 200.242 48.085 194.688 51.9547C193.696 52.637 192.694 53.298 191.671 53.9163C184.28 58.373 176.221 61.6125 167.802 63.5107C165.094 64.161 162.376 64.7154 159.668 65.3017C158.997 65.4741 158.288 65.4177 157.653 65.1416C157.017 64.8655 156.492 64.3854 156.161 63.7773C152.547 58.8095 148.773 53.9269 144.882 48.7672C145.976 48.6462 147.075 48.5822 148.176 48.5754C148.538 48.5754 148.965 49.0338 149.242 49.3749C151.193 52.04 153.101 54.7052 155.063 57.4023C155.672 58.2002 156.323 58.9653 157.014 59.6943C157.526 60.3435 158.239 60.8053 159.041 61.0077C159.843 61.2102 160.689 61.1419 161.448 60.8136C170.307 57.349 177.855 52.2852 182.076 43.3517C182.924 41.7441 183.456 39.989 183.644 38.1813C183.695 36.5093 184.204 34.8834 185.115 33.4801C186.468 31.5916 188.28 30.0798 190.381 29.0879C192.79 27.8087 195.402 26.9558 197.95 25.8258L200.924 29.024C200.88 29.2136 200.819 29.3991 200.743 29.5783C198.515 33.3734 196.18 37.1153 194.091 40.9851C191.295 46.2077 187.112 50.5571 182.002 53.5538C180.776 54.2894 179.507 54.9823 178.281 55.6859C177.844 55.9418 177.45 56.2723 177.034 56.5708C177.034 56.7413 177.034 56.9225 177.119 57.1038C177.878 57.1603 178.64 57.1245 179.39 56.9972C183.545 55.594 187.49 53.6323 191.117 51.1659C191.479 50.9526 191.82 50.7181 192.183 50.5049C195.956 48.1276 199.645 45.6331 203.483 43.3837C205.264 42.367 207.161 41.5688 209.133 41.0064C211.062 40.4414 211.681 40.8891 212.811 42.9359Z" fill="white"/>
<path d="M233.462 88.8508C232.289 89.9169 231.415 90.759 230.455 91.5053C222.027 98.0354 212.34 102.754 202.002 105.364C200.062 105.865 198.111 106.345 196.139 106.771C195.831 106.829 195.512 106.772 195.244 106.611C195.176 106.58 195.118 106.532 195.073 106.473C193.303 104.223 191.608 101.921 189.86 99.6392C186.662 95.5136 183.464 91.388 180.138 87.0278L181.673 86.9106C186.347 86.7094 191.029 86.9808 195.649 87.7208C197.472 87.966 199.284 88.2858 201.096 88.6163C208.84 90.2232 216.768 90.7505 224.656 90.1834C227.449 89.8955 230.221 89.3519 233.462 88.8508Z" fill="#00559D"/>
<path d="M133.399 66.8368C129.828 66.7728 126.225 66.9967 122.686 66.6022C114.413 65.6641 106.172 64.4701 97.9425 63.3081C88.7872 61.8894 79.4471 62.2004 70.4064 64.2249C70.1593 64.2626 69.91 64.284 69.6602 64.2889C70.2145 63.9584 70.4917 63.7559 70.8008 63.6066C86.2105 56.3331 102.782 51.833 119.754 50.313C120.208 50.2112 120.682 50.2494 121.114 50.4225C121.546 50.5957 121.916 50.8957 122.174 51.2831C124.7 54.8224 127.323 58.2977 129.945 61.773C131.118 63.3295 132.365 64.8326 133.581 66.357C133.527 66.5169 133.485 66.7302 133.399 66.8368Z" fill="#00559D"/>
<path d="M164.593 111.046C157.322 112.251 150.244 113.349 143.197 114.585C136.043 115.943 129.056 118.066 122.356 120.918C122.473 120.63 122.612 120.352 122.771 120.086C127.491 114.082 133.358 109.078 140.031 105.364C144.892 102.603 149.945 100.13 154.092 95.8547L164.593 111.046Z" fill="#00559D"/>
<path d="M61.2178 79.8958C63.9548 79.3208 66.7195 78.8867 69.501 78.5952C77.7629 78.1261 86.0248 77.849 94.2974 77.5291C99.1266 77.3159 103.956 77.0707 108.774 76.8362C109.343 76.7786 109.917 76.8001 110.48 76.9002C96.2909 80.3755 83.2638 86.2068 71.9103 95.6094L61.2178 79.8958Z" fill="#00559D"/>
<path d="M149.626 48.4048C156.022 47.7331 161.992 46.8377 167.642 44.5137C173.126 42.1305 178.221 38.9396 182.759 35.0471L183.111 35.239C182.807 37.3482 182.337 39.43 181.704 41.4648C180.006 45.8633 177.196 49.746 173.548 52.7329C170.052 55.5761 166.145 57.8729 161.96 59.545C159.626 60.4938 158.762 60.3872 157.184 58.4043C154.658 55.2488 152.291 51.9547 149.626 48.4048Z" fill="#00559D"/>
<path d="M130.48 97.7524C129.99 97.987 129.499 98.2428 128.998 98.456C121.152 101.835 113.53 105.641 106.76 110.908C101.728 114.82 97.4216 119.436 94.8418 125.385C94.522 126.12 94.2768 126.888 93.925 127.847C91.068 123.647 88.3282 119.638 85.5352 115.545C99.0634 105.822 114.212 100.311 130.48 97.7524Z" fill="#00559D"/>
<path d="M237.778 70.9091C226.509 74.2508 214.692 75.3375 203.003 74.1073C204.837 73.1052 206.702 72.1777 208.482 71.101C213.631 67.9668 218.738 64.7793 223.866 61.6131L224.345 61.304C227.213 59.5237 227.202 59.5556 229.484 62.0502C231.765 64.5448 234.398 67.2525 236.861 69.8644C237.181 70.2375 237.49 70.5893 237.778 70.9091Z" fill="#00559D"/>
<path d="M210.306 39.8122C204.88 40.5691 200.872 43.8205 196.565 46.411C194.614 47.5943 192.674 48.8096 190.755 50.0356C188.836 51.2616 186.619 52.6794 184.529 53.9587C183.399 54.5769 182.235 55.1321 181.043 55.6217L180.947 55.4618C182.866 54.1292 184.86 52.8926 186.693 51.4428C187.986 50.414 189.185 49.2724 190.275 48.0314C192.855 45.0338 195.007 41.6938 196.672 38.1065C198.047 35.2921 199.752 32.6376 201.447 29.6633C204.55 33.2026 207.396 36.4541 210.306 39.8122Z" fill="#00559D"/>
<path d="M339.862 181.565C343.135 180.499 346.408 179.433 349.638 178.186C350.772 177.838 351.787 177.181 352.57 176.288C353.203 175.469 353.653 174.524 353.89 173.516C354.127 172.509 354.146 171.462 353.945 170.446C354.009 166.001 351.578 162.494 348.817 159.2C346.579 156.513 344.031 154.093 341.813 151.407C334.891 143.013 328.033 134.577 321.238 126.099C308.233 109.777 295.269 93.3814 281.251 77.8917C263.416 58.1697 245.357 38.661 228.417 18.1928C224.622 13.6194 220.688 9.17395 216.861 4.62191C216.211 3.85435 215.987 2.61772 215.22 2.06337C214.548 1.51359 213.761 1.12413 212.917 0.924622C212.072 0.72511 211.194 0.720798 210.348 0.912032C207.715 1.62629 205.081 2.34054 202.47 3.04414C179.752 9.44045 157.066 15.986 134.338 22.3717C115.234 27.7801 96.0882 33.0819 76.8992 38.2772C60.0023 42.8612 43.0201 47.2107 26.0699 51.6881C21.6884 52.8395 17.2963 54.0121 12.9361 55.302C10.9426 55.8884 8.8318 56.432 7.60584 58.3616C6.9244 59.5444 6.18068 60.6903 5.37779 61.7943C3.22703 64.4469 1.76252 67.5883 1.11358 70.941C-0.197663 77.2094 0.0475224 83.5098 0.665833 89.8102C0.95056 94.1246 2.11129 98.3359 4.07721 102.187C4.85542 103.626 5.96411 104.895 6.88092 106.27C9.35416 110.012 11.87 113.732 14.2687 117.538C20.665 127.708 27.2745 137.793 33.2764 148.155C43.5851 166.033 53.3608 184.198 63.6482 202.097C70.4923 214.005 77.8054 225.636 84.9693 237.352C89.6386 244.995 94.4678 252.543 99.1051 260.187C106.567 272.521 114.03 284.866 122.771 296.368C125.127 299.46 127.494 299.823 130.884 298.298C131.349 298.059 131.83 297.853 132.323 297.68C152.109 291.34 171.902 285.008 191.702 278.683L266.241 254.792C273.341 252.511 280.718 251.083 287.477 247.757C288.43 247.311 289.413 246.934 290.419 246.626L348.881 227.171C350.365 226.756 351.658 225.837 352.539 224.573C353.42 223.309 353.834 221.778 353.71 220.242C353.809 217.725 353.037 215.252 351.525 213.238C347.261 207.854 342.997 202.513 338.807 197.14C338.295 196.479 337.57 195.722 337.56 195.008C337.506 191.042 337.336 187.077 338.413 183.175C338.473 182.796 338.643 182.442 338.9 182.156C339.157 181.87 339.491 181.665 339.862 181.565ZM9.38614 57.8179C9.95155 57.4588 10.5654 57.1824 11.2091 56.9971L15.4733 55.8031L18.5009 54.9502C25.4942 52.9461 32.4768 50.9206 39.4808 48.9697L45.1202 47.4133C48.894 46.3827 52.6821 45.3949 56.4843 44.4496C82.0696 38.0533 107.516 31.0813 132.899 23.8855L202.139 4.27011C204.538 3.58783 206.926 2.87358 209.314 2.19131C211.702 1.50903 213.631 2.06337 215.411 4.24878C222.533 12.9584 229.739 21.6254 237.17 30.0686C251.156 45.9634 265.324 61.6984 279.439 77.4653C293.766 93.4561 307.156 110.257 320.535 127.005C327.358 135.533 334.394 143.923 341.323 152.323C343.679 155.17 346.195 157.867 348.604 160.671C349.212 161.374 349.67 162.206 350.342 163.144C344.947 164.956 339.766 166.832 334.521 168.474C305.194 177.525 275.825 186.469 246.508 195.563C210.703 206.671 174.909 217.84 139.125 229.069C138.283 229.335 137.44 229.602 136.598 229.9L134.37 230.668L131.044 231.851C129.818 232.299 128.581 232.747 127.334 233.184L125.586 233.791L123.379 234.505C121.695 235.049 121.076 236.35 120.106 237.576C119.888 237.382 119.688 237.168 119.509 236.936C112.964 226.35 106.173 215.903 99.9366 205.136C87.5704 183.815 75.1402 162.494 61.7506 141.78C45.7172 116.963 29.6838 92.1413 13.6503 67.3165C12.1366 64.9925 10.6014 62.6791 8.94906 60.4404C8.75207 60.2638 8.60267 60.0404 8.51461 59.7909C8.42654 59.5414 8.40264 59.2737 8.44511 59.0126C8.48757 58.7514 8.59504 58.5051 8.75762 58.2963C8.9202 58.0876 9.13267 57.9231 9.37549 57.8179H9.38614ZM31.027 136.706C30.8671 138.102 30.7498 139.52 30.6859 140.97C30.4194 140.668 30.1703 140.351 29.9396 140.021C24.4388 131.493 18.9344 122.964 13.4265 114.436C11.5289 111.483 9.58869 108.541 7.56319 105.662C3.04313 99.2021 1.51867 91.9103 1.34811 84.2027C1.08433 79.6475 1.39595 75.0772 2.27557 70.5999C2.85261 67.8731 4.01672 65.3048 5.68694 63.0736C6.33723 62.2207 7.04083 61.4105 7.98961 60.2805L30.3767 95.4602L41.9967 113.775C41.7622 113.988 41.5276 114.223 41.3037 114.457C40.6215 115.129 39.9818 115.822 39.3849 116.525L38.7879 117.24C38.3295 117.794 37.903 118.37 37.5086 118.945C37.338 119.169 37.1888 119.382 37.0395 119.606C36.4959 120.417 35.9735 121.237 35.5471 122.069C35.4085 122.303 35.2806 122.549 35.1526 122.794C35.0582 122.954 34.9763 123.122 34.9074 123.295C34.759 123.553 34.6273 123.82 34.513 124.094L34.1399 124.894C33.9586 125.331 33.7774 125.757 33.6068 126.195C33.4363 126.632 33.2018 127.261 33.0099 127.847C32.818 128.433 32.6261 129.02 32.4662 129.606C32.3063 130.192 32.1357 130.789 31.9971 131.408C31.8585 132.026 31.7306 132.623 31.6133 133.241C31.4961 133.859 31.3788 134.488 31.2935 135.107C31.2082 135.725 31.059 136.173 31.059 136.684L31.027 136.706ZM58.2753 188.942C58.1794 189.401 58.0941 189.849 58.0088 190.318L57.9448 190.637C55.6741 186.661 53.3182 182.717 51.1541 178.687C45.0669 167.408 39.1183 156.044 33.0312 144.786C31.7732 142.462 31.8799 140.117 32.0611 137.74C32.5291 130.621 35.0549 123.792 39.3316 118.082C40.0932 117.127 40.9157 116.223 41.7941 115.374L42.6043 114.532L73.9143 162.76C72.7323 163.607 71.6004 164.522 70.5242 165.5L69.5755 166.406C69.1704 166.811 68.7653 167.227 68.3708 167.653L68.3069 167.717C67.9444 168.122 67.5926 168.517 67.2408 168.922C66.889 169.327 66.5372 169.785 66.1748 170.222V170.276C65.8869 170.66 65.5991 171.065 65.3219 171.47C65.2591 171.543 65.2021 171.622 65.1513 171.704C64.2405 173.033 63.4213 174.422 62.6994 175.862C62.4436 176.352 62.209 176.843 61.9745 177.354C61.74 177.866 61.5587 178.271 61.3668 178.74C61.3365 178.798 61.3115 178.859 61.2922 178.921C61.0897 179.423 60.8871 179.924 60.7059 180.425C60.5247 180.926 60.3221 181.491 60.1515 182.013C59.981 182.535 59.8104 183.015 59.6612 183.527V183.633C59.4906 184.177 59.3413 184.699 59.2028 185.265C59.1716 185.348 59.1466 185.433 59.1281 185.52C58.883 186.48 58.6484 187.45 58.4459 188.441C58.3286 188.612 58.286 188.793 58.2646 188.953L58.2753 188.942ZM92.4529 247.884C91.5361 246.403 90.7259 245.155 89.9584 243.876C81.7782 230.302 73.6051 216.727 65.4392 203.153C63.6056 200.125 61.7293 197.108 60.0023 194.017C59.5039 193.162 59.2702 192.179 59.3307 191.192C60.3968 181.992 63.5949 173.74 70.2258 167.056C71.3877 165.884 72.7416 164.924 74.1595 163.688C75.2255 165.5 76.2916 167.11 77.2191 168.751C83.9565 180.052 90.6904 191.359 97.4207 202.673C99.3716 205.967 101.184 209.336 103.124 212.641C103.583 213.43 103.657 213.941 102.932 214.602C95.214 221.596 93.1992 230.892 92.4849 240.689C92.325 242.97 92.4529 245.273 92.4423 247.895L92.4529 247.884ZM123.059 295.047C114.03 282.883 106.28 269.877 98.3269 257.01C97.6539 255.795 96.8951 254.63 96.0562 253.524C94.0627 251.136 93.5829 248.332 93.519 245.401C93.3271 237.448 94.4251 229.74 97.9431 222.512C99.562 219.46 101.764 216.754 104.425 214.549C107.879 220.082 111.215 225.444 114.542 230.806C116.013 233.173 117.473 235.518 118.806 237.938C118.943 238.208 119.024 238.503 119.044 238.806C119.064 239.108 119.023 239.411 118.923 239.697C111.589 257.244 113.593 273.811 124.04 289.535C125.66 291.976 127.963 293.97 129.957 296.166C130.202 296.432 130.479 296.678 130.756 296.965C127.494 298.906 125.596 298.511 123.049 295.057L123.059 295.047ZM351.76 216.319C353.167 219.186 352.954 222.928 350.843 224.676C349.212 225.918 347.375 226.864 345.417 227.47C338.562 229.836 331.686 231.968 324.81 234.314C309.288 239.527 293.894 244.974 278.255 249.985C238.587 262.703 198.845 275.186 159.145 287.797C150.887 290.427 142.664 293.163 134.477 296.006C133.782 296.301 133.012 296.366 132.278 296.194C131.544 296.021 130.884 295.619 130.394 295.047C123.754 288.79 119.149 280.682 117.175 271.775C114.311 260.818 115.445 249.2 120.373 239.004C120.792 238.048 121.407 237.191 122.178 236.488C122.95 235.785 123.86 235.251 124.85 234.921C156.416 223.557 188.632 214.282 220.667 204.389C258.142 192.819 295.639 181.324 333.157 169.903C338.423 168.282 343.636 166.502 348.87 164.786C349.499 164.583 350.107 164.274 351.067 163.88C351.608 165.108 352.064 166.373 352.431 167.664C352.975 170.041 353.327 172.408 352.261 174.839C352.055 175.346 351.739 175.8 351.335 176.169C350.931 176.538 350.449 176.812 349.926 176.971C345.107 178.708 340.331 180.435 335.449 182.109C305.877 192.311 275.995 201.5 246.05 210.509C216.883 219.293 187.651 227.853 158.463 236.542C150.659 238.866 142.888 241.286 135.116 243.737C134.369 244.088 133.72 244.619 133.229 245.283C129.53 249.388 128.4 254.302 128.848 259.675C128.948 261.853 129.194 264.022 129.584 266.167C130.432 269.63 132.133 272.825 134.53 275.463C135.957 277.09 137.74 278.366 139.741 279.191C141.742 280.016 143.906 280.367 146.065 280.218C149.936 280.071 153.766 279.371 157.439 278.139C212.064 260.777 266.703 243.446 321.356 226.148L347.645 217.822C348.998 217.353 350.374 216.809 351.749 216.329L351.76 216.319ZM146.353 262.34L130.81 266.796C130.49 265.091 130.127 263.481 129.935 261.86C129.935 261.562 130.479 261.018 130.873 260.858C134.477 259.44 138.101 258.097 142.035 256.594L146.353 262.34ZM142.994 256.349C144.76 255.585 146.581 254.958 148.442 254.473C149.103 254.345 150.18 255.24 150.723 255.933C153.561 259.387 155.357 263.576 155.904 268.012C155.904 268.075 155.819 268.15 155.659 268.438C153.303 266.572 151.128 266.626 149.369 269.824C148.421 264.494 146.715 260.059 142.994 256.349ZM146.726 263.161C147.376 265.901 147.973 268.491 148.655 271.359C149.398 270.756 150.109 270.115 150.787 269.44C152.28 267.873 152.546 267.809 154.455 268.843L155.084 269.205C156.384 269.866 157.088 269.493 156.885 268.022C156.561 266.144 156.141 264.283 155.627 262.447C155.455 261.896 155.252 261.355 155.02 260.826L166.437 257.074C206.68 243.716 247.649 232.789 288.479 221.457C301.854 217.761 315.233 214.037 328.616 210.285C331.419 209.496 334.116 208.334 336.867 207.342C337.304 207.183 337.752 207.044 338.263 206.873C338.687 207.6 339.044 208.363 339.329 209.155C339.435 209.863 339.289 210.585 338.917 211.197C338.545 211.809 337.971 212.271 337.293 212.502C318.317 218.707 299.363 224.954 280.366 231.083C248.654 241.318 216.929 251.509 185.189 261.658C170.637 266.316 156.032 270.805 141.481 275.367C140.415 275.708 139.349 276.071 138.176 276.337C137.994 276.378 137.807 276.382 137.624 276.349C137.44 276.316 137.266 276.247 137.11 276.145C134.466 273.874 132.491 270.926 131.396 267.617L146.726 263.161ZM336.547 206.383C327.39 209.997 317.912 212.555 308.456 215.199C272.104 225.348 235.741 235.337 199.495 245.742C184.816 249.953 170.413 255.038 155.872 259.728L154.892 260.027C153.325 257.82 151.896 255.763 150.372 253.63C211.595 232.533 273.948 214.368 336.227 195.488C336.227 195.861 336.323 196.213 336.387 196.554C336.781 199.145 337.091 201.767 337.624 204.336C337.816 205.466 337.72 205.957 336.547 206.383ZM333.498 195.03C315.773 200.424 298.038 205.8 280.291 211.159C239.515 223.546 198.77 236.062 158.41 249.739C149.252 252.842 140.212 256.338 131.129 259.643C130.735 259.792 130.34 259.899 129.722 260.101C129.786 258.811 129.722 257.724 129.893 256.658C129.952 256.45 130.059 256.259 130.205 256.1C130.351 255.941 130.533 255.818 130.735 255.741C173.121 240.816 216.307 228.429 259.269 215.295C276.262 210.104 293.169 204.635 310.088 199.304C318.339 196.661 326.547 193.878 334.788 191.16C335.225 191.011 335.683 190.925 336.184 190.797C336.27 191.043 336.312 191.096 336.302 191.138C336.334 194.145 336.366 194.198 333.498 195.062V195.03ZM351.376 215.285C349.67 215.871 347.986 216.479 346.28 217.012L238.129 251.434C209.932 260.389 181.745 269.376 153.495 278.192C149.445 279.442 145.123 279.516 141.033 278.406C140.234 278.136 139.452 277.823 138.688 277.467C138.688 277.339 138.72 277.222 138.784 277.116C143.229 275.804 147.696 274.589 152.109 273.193C186.703 262.234 221.317 251.349 255.868 240.23C277.786 233.173 299.576 225.721 321.43 218.493C326.164 216.926 330.95 215.562 335.705 214.091C336.485 213.852 337.25 213.567 337.997 213.238C340.406 212.172 340.854 211.106 340.129 208.579C339.347 205.829 338.601 203.071 337.89 200.306C337.732 199.489 337.622 198.663 337.56 197.833C339.457 198.825 349.67 211.777 351.376 215.349V215.285ZM336.355 188.857C336.28 189.284 335.609 189.763 335.118 189.923C329.063 191.906 322.912 193.622 316.932 195.786C276.059 210.605 234.003 221.585 192.555 234.516C173.036 240.625 153.57 246.85 134.295 253.705C132.995 254.163 131.662 254.558 130.191 255.027C130.154 254.632 130.175 254.233 130.255 253.844C130.977 251.674 131.843 249.555 132.846 247.501C133.308 246.635 133.943 245.873 134.711 245.263C135.479 244.652 136.365 244.205 137.312 243.951C165.222 235.692 193.12 227.391 221.008 219.048C256.348 208.526 291.592 197.727 326.622 186.192C330.161 185.03 333.658 183.74 337.283 182.493C337.016 184.785 336.749 186.874 336.355 188.921V188.857Z" fill="#3A0D1F"/>
<path d="M236.86 69.8964C234.397 67.2846 231.903 64.7154 229.483 62.0822L229.439 62.034C227.212 59.5873 227.193 59.567 224.344 61.304L223.865 61.6132C218.737 64.7793 213.63 67.9669 208.481 71.101C206.701 72.1778 204.836 73.1052 203.002 74.1073C214.691 75.3376 226.508 74.2508 237.777 70.9091C237.489 70.5893 237.18 70.2375 236.86 69.8964Z" fill="#3A0D1F"/>
<path d="M196.552 46.4113C200.859 43.8208 204.868 40.5693 210.294 39.8124H210.304C207.394 36.4543 204.548 33.2029 201.382 29.6956C199.686 32.6698 197.981 35.3243 196.606 38.1387C196.446 38.4798 196.275 38.7997 196.115 39.1195L195.646 40.0256C195.486 40.3454 195.348 40.58 195.145 40.9637C194.943 41.3475 194.719 41.7206 194.505 42.0938C194.196 42.6055 193.919 43.0958 193.546 43.6715C193.173 44.2472 192.778 44.8228 192.384 45.3878L192.267 45.5478L191.819 46.1448C191.322 46.8105 190.792 47.451 190.231 48.0637C190.177 48.1383 190.113 48.1916 190.06 48.2662C189.921 48.4154 189.826 48.522 189.634 48.7246C189.442 48.9271 189.25 49.1297 189.047 49.3216C188.808 49.5767 188.556 49.8187 188.29 50.0465C187.747 50.5369 187.235 50.9953 186.681 51.443C184.847 52.8929 182.854 54.1295 180.935 55.462L181.031 55.622C182.222 55.1324 183.386 54.5772 184.517 53.9589C186.542 52.7223 188.525 51.443 190.529 50.1638C190.604 50.1275 190.675 50.0847 190.742 50.0358L193.631 48.2022L194.26 47.8184C195.017 47.3494 195.785 46.8697 196.552 46.4113Z" fill="#3A0D1F"/>
<path d="M182.768 35.0471C178.231 38.9381 173.135 42.1256 167.652 44.503H167.641C161.991 46.8483 156.053 47.7332 149.635 48.4048C152.311 51.9441 154.667 55.1955 157.194 58.3937C158.771 60.3872 159.624 60.4832 161.97 59.545C166.156 57.8771 170.064 55.5799 173.558 52.733C177.208 49.7441 180.018 45.8573 181.713 41.4541C182.348 39.42 182.819 37.338 183.12 35.2284L182.768 35.0471Z" fill="#3A0D1F"/>
<path d="M152.719 163.858C151.269 164.317 150.075 164.732 148.849 165.052C148.669 165.075 148.485 165.057 148.313 164.997C148.141 164.938 147.985 164.84 147.857 164.711C142.989 158.315 138.131 151.918 133.285 145.522C133.249 145.428 133.22 145.332 133.199 145.234C134.139 144.69 135.198 144.384 136.283 144.343C137.368 144.302 138.447 144.528 139.425 145C145.395 147.771 151.514 150.213 157.548 152.782C157.999 153.001 158.496 153.11 158.998 153.102L149.211 140.17C150.576 139.733 151.791 139.296 153.038 138.976C153.229 138.939 153.425 138.949 153.611 139.005C153.797 139.06 153.966 139.16 154.105 139.296C159.001 145.735 163.873 152.185 168.72 158.645C168.72 158.645 168.72 158.73 168.72 158.848C166.854 159.594 165.138 160.223 162.963 159.221C156.855 156.438 150.619 153.891 144.435 151.289C143.995 151.049 143.498 150.931 142.996 150.948L152.719 163.858Z" fill="#00559D"/>
<path d="M134.467 158.741L123.572 162.153C124.925 163.944 126.162 165.649 127.505 167.27C127.729 167.536 128.486 167.547 128.923 167.419C132.441 166.353 135.959 165.287 139.445 164.136C139.622 164.044 139.815 163.99 140.014 163.976C140.212 163.962 140.411 163.989 140.599 164.055C140.787 164.121 140.959 164.225 141.105 164.359C141.251 164.494 141.368 164.657 141.449 164.839C141.876 165.511 142.398 166.129 142.963 166.886C137.718 168.517 132.633 170.031 127.601 171.704C127.035 171.983 126.382 172.028 125.783 171.828C125.185 171.629 124.689 171.201 124.403 170.638C120.139 164.828 115.725 159.114 111.365 153.358C111.088 152.995 110.832 152.633 110.459 152.121C113.188 151.258 115.789 150.426 118.433 149.616C121.077 148.806 123.476 148.123 125.96 147.26C126.153 147.15 126.367 147.082 126.589 147.061C126.81 147.039 127.034 147.065 127.245 147.135C127.456 147.205 127.65 147.319 127.814 147.469C127.978 147.619 128.109 147.802 128.198 148.006C128.642 148.679 129.122 149.327 129.637 149.946L117.303 153.816C118.561 155.469 119.67 157.014 120.885 158.475C121.076 158.63 121.302 158.738 121.542 158.79C121.783 158.842 122.033 158.836 122.271 158.773C125.053 157.974 127.836 157.132 130.576 156.183C131.759 155.778 132.612 155.778 133.241 157.004C133.601 157.615 134.011 158.197 134.467 158.741Z" fill="#00559D"/>
<path d="M274.835 125.917C273.342 126.408 272.106 126.856 270.848 127.154C270.517 127.229 269.963 126.856 269.707 126.536C267.916 124.233 266.2 121.898 264.377 119.617C264.223 119.432 264.028 119.284 263.808 119.186C263.588 119.088 263.349 119.042 263.108 119.052C259.547 120.118 255.987 121.184 252.224 122.368L258.695 130.896C257.245 131.365 255.934 131.823 254.59 132.186C254.425 132.19 254.261 132.156 254.111 132.085C253.961 132.015 253.829 131.911 253.727 131.781C248.851 125.384 243.997 118.988 239.165 112.592C239.126 112.475 239.105 112.353 239.101 112.229C240.316 111.846 241.531 111.366 242.8 111.099C243.044 111.098 243.285 111.151 243.506 111.254C243.728 111.358 243.923 111.509 244.079 111.696C245.806 113.828 247.426 116.12 249.164 118.285C249.343 118.474 249.563 118.619 249.807 118.71C250.051 118.801 250.312 118.834 250.571 118.807C254.047 117.741 257.511 116.675 261.232 115.502L255.081 107.24C256.509 106.782 257.767 106.345 259.057 105.993C259.224 105.975 259.393 105.994 259.552 106.049C259.71 106.105 259.854 106.195 259.974 106.313C264.899 112.794 269.856 119.276 274.835 125.917Z" fill="#00559D"/>
<path d="M193.196 149.488C191.41 151.696 188.944 153.251 186.182 153.912C185.904 153.997 185.638 154.061 185.35 154.136C181.741 154.913 177.983 154.621 174.537 153.296C171.091 151.97 168.106 149.669 165.948 146.673C165.218 145.634 164.646 144.491 164.253 143.283C163.744 141.906 163.676 140.406 164.058 138.988C164.44 137.571 165.253 136.308 166.385 135.373C170.127 132.015 177.952 131.056 182.536 133.401C182.216 134.36 181.907 135.341 181.672 136.013C179.21 136.013 176.928 135.874 174.658 136.013C173.712 136.137 172.804 136.46 171.992 136.962C170.835 137.482 169.929 138.437 169.47 139.62C169.012 140.803 169.037 142.119 169.541 143.283C171.673 149.445 180.414 152.878 186.118 149.68C186.448 149.487 186.765 149.274 187.066 149.04C187.482 148.72 187.909 148.368 188.378 148.027L187.674 147.089C186.363 145.362 185.105 143.688 183.794 141.94C185.062 141.535 186.16 141.119 187.301 140.874C187.506 140.878 187.708 140.927 187.892 141.017C188.076 141.107 188.238 141.237 188.367 141.396L189.081 142.303C190.51 144.157 191.885 146.055 193.346 147.878C193.879 148.518 193.601 148.965 193.196 149.488Z" fill="#00559D"/>
<path d="M244.046 135.277C241.863 136.463 239.512 137.308 237.074 137.783C235.08 138.209 232.938 137.9 230.859 137.974C229.793 138.028 229.43 137.441 229.302 136.535C229.206 135.906 229.068 135.288 228.929 134.51C229.636 134.602 230.348 134.648 231.061 134.648C233.321 134.488 235.571 134.275 237.809 134.051C238.26 133.981 238.693 133.83 239.089 133.604C240.208 133.028 241.509 132.538 241.381 130.939C241.245 130.261 240.885 129.648 240.359 129.2C239.833 128.751 239.172 128.492 238.481 128.465C236.992 128.341 235.496 128.312 234.004 128.38C231.605 128.38 229.206 128.657 226.808 128.551C225.483 128.495 224.191 128.118 223.044 127.454C221.896 126.789 220.927 125.856 220.22 124.734C218.439 122.122 218.876 119.521 221.531 117.805C222.768 116.968 224.149 116.365 225.603 116.024C227.948 115.545 230.358 115.427 232.724 115.182C233.737 115.076 234.355 115.459 234.43 116.568C234.522 117.135 234.654 117.694 234.824 118.242C232.223 118.583 229.771 118.892 227.362 119.308C226.863 119.36 226.392 119.56 226.008 119.884C225.284 120.438 224.718 121.174 224.366 122.016C224.286 122.57 224.418 123.134 224.737 123.595C225.055 124.056 225.536 124.379 226.083 124.5C227.431 124.868 228.822 125.05 230.219 125.043C233.151 125.043 236.104 124.702 239.035 124.809C240.27 124.85 241.478 125.181 242.562 125.776C243.645 126.37 244.574 127.211 245.272 128.231C247.169 130.779 246.86 133.678 244.046 135.277Z" fill="#00559D"/>
<path d="M217.62 143.689C214.549 144.637 211.639 145.554 208.718 146.482C206.511 147.164 204.305 147.857 202.087 148.486C201.871 148.526 201.649 148.515 201.438 148.454C201.227 148.393 201.033 148.283 200.872 148.134C197.517 143.77 194.181 139.389 190.862 134.99L186.47 129.18C186.358 129.005 186.265 128.819 186.192 128.625C187.461 128.22 188.666 127.879 189.86 127.453C190.67 127.154 191 127.677 191.384 128.199L192.13 129.18C195.638 133.806 199.166 138.422 202.62 143.038C202.821 143.428 203.167 143.725 203.583 143.864C203.999 144.003 204.453 143.975 204.848 143.785C207.94 142.719 211.085 141.844 214.187 140.832C214.954 140.576 215.434 140.618 215.893 141.333C216.351 142.047 217.012 142.814 217.62 143.689Z" fill="#00559D"/>
<path d="M226.009 141.087C224.794 141.482 223.643 141.897 222.459 142.153C222.26 142.199 222.053 142.198 221.853 142.152C221.654 142.106 221.467 142.015 221.308 141.887C216.362 135.49 211.479 128.966 206.437 122.325C207.887 121.856 209.198 121.408 210.53 121.045C210.696 121.037 210.861 121.067 211.013 121.134C211.165 121.201 211.299 121.302 211.405 121.429C216.266 127.826 221.113 134.222 225.945 140.618C225.999 140.746 225.977 140.853 226.009 141.087Z" fill="#00559D"/>
<path d="M170.338 159.274C170.19 159.361 170.037 159.439 169.88 159.509C166.874 160.991 164.07 160.724 161.01 159.221C156.011 156.78 150.776 154.797 145.467 152.825L154.198 164.391C152.183 165.02 150.318 165.628 148.431 166.161C148.267 166.172 148.103 166.145 147.951 166.082C147.8 166.019 147.665 165.922 147.557 165.798C142.227 158.826 136.95 151.844 131.513 144.669C133.25 144.126 134.849 143.603 136.481 143.166C136.854 143.07 137.344 143.358 137.76 143.529L155.062 150.852C155.456 151.012 155.872 151.151 156.661 151.449L147.738 139.638C149.721 139.009 151.554 138.369 153.431 137.878C153.772 137.793 154.39 138.241 154.667 138.603C159.223 144.552 163.757 150.518 168.27 156.502C168.942 157.345 169.645 158.283 170.338 159.274ZM152.716 163.858L142.994 150.948C143.492 150.906 143.993 150.998 144.444 151.215C150.627 153.837 156.863 156.364 162.972 159.146C165.104 160.148 166.863 159.519 168.729 158.773C168.729 158.656 168.729 158.592 168.729 158.571C163.846 152.139 158.964 145.689 154.081 139.222C153.943 139.086 153.773 138.986 153.588 138.93C153.402 138.874 153.205 138.865 153.015 138.902C151.768 139.222 150.552 139.659 149.188 140.096L158.985 153.08C158.483 153.089 157.987 152.979 157.535 152.761C151.48 150.191 145.361 147.75 139.412 144.978C138.434 144.506 137.355 144.281 136.27 144.322C135.185 144.363 134.126 144.669 133.186 145.213C133.207 145.311 133.236 145.407 133.272 145.501C138.126 151.897 142.983 158.293 147.845 164.69C147.973 164.819 148.129 164.917 148.3 164.976C148.472 165.035 148.656 165.054 148.836 165.031C150.073 164.732 151.267 164.317 152.716 163.858Z" fill="#3A0D1F"/>
<path d="M131.151 150.501L118.795 154.36C119.702 155.554 120.49 156.695 121.407 157.707C121.61 157.942 122.335 157.835 122.761 157.707C125.586 156.865 128.401 155.991 131.204 155.063C132.132 154.754 132.761 154.776 133.336 155.714C134.083 156.897 135.01 157.963 135.991 159.242L125.085 162.675C126.087 163.986 126.983 165.223 127.953 166.385C128.113 166.566 128.688 166.513 129.019 166.385C132.665 165.319 136.321 164.2 139.946 163.016C140.092 162.94 140.251 162.894 140.415 162.88C140.579 162.867 140.744 162.887 140.9 162.938C141.057 162.99 141.201 163.073 141.324 163.181C141.448 163.29 141.548 163.422 141.62 163.571C142.504 164.829 143.464 166.033 144.477 167.376L134.466 170.511C131.791 171.353 129.136 172.216 126.407 172.984C126.173 173.051 125.926 173.062 125.687 173.015C125.449 172.969 125.224 172.867 125.032 172.717C119.702 165.777 114.425 158.805 109.041 151.652C110.832 151.076 112.484 150.533 114.137 150.021C118.262 148.742 122.388 147.495 126.492 146.173C126.648 146.088 126.818 146.036 126.994 146.017C127.17 145.999 127.347 146.016 127.517 146.066C127.686 146.117 127.844 146.2 127.981 146.312C128.118 146.423 128.231 146.561 128.315 146.716C129.136 147.974 130.138 149.168 131.151 150.501ZM134.498 158.741C134.037 158.211 133.62 157.644 133.251 157.046C132.622 155.82 131.769 155.82 130.586 156.226C127.846 157.174 125.064 158.016 122.281 158.816C122.043 158.879 121.794 158.884 121.553 158.832C121.312 158.781 121.087 158.673 120.896 158.518C119.68 157.068 118.572 155.511 117.314 153.859L129.648 149.989C129.133 149.369 128.652 148.722 128.209 148.049C128.12 147.845 127.989 147.662 127.824 147.512C127.66 147.362 127.466 147.248 127.255 147.178C127.044 147.107 126.821 147.082 126.599 147.104C126.378 147.125 126.163 147.193 125.97 147.303C123.486 148.166 120.949 148.87 118.444 149.659C115.938 150.448 113.199 151.3 110.47 152.164C110.843 152.676 111.098 153.038 111.376 153.4C115.736 159.157 120.149 164.871 124.414 170.681C124.699 171.244 125.195 171.671 125.794 171.871C126.392 172.07 127.046 172.026 127.612 171.747C132.643 170.074 137.728 168.549 142.973 166.929C142.408 166.172 141.907 165.553 141.46 164.882C141.379 164.7 141.262 164.537 141.115 164.402C140.969 164.267 140.797 164.164 140.609 164.098C140.422 164.032 140.223 164.005 140.024 164.019C139.826 164.033 139.632 164.087 139.455 164.178C135.969 165.351 132.452 166.406 128.934 167.462C128.496 167.59 127.74 167.579 127.516 167.312C126.172 165.692 124.936 163.986 123.582 162.195L134.498 158.741Z" fill="#3A0D1F"/>
<path d="M253.757 122.901L260.207 131.429C258.139 132.079 256.23 132.708 254.29 133.263C254.125 133.263 253.961 133.224 253.813 133.15C253.665 133.076 253.537 132.969 253.437 132.836C248.107 125.875 242.841 118.892 237.447 111.75C239.504 111.099 241.423 110.46 243.363 109.927C243.63 109.852 244.152 110.247 244.429 110.545C246.135 112.677 247.777 114.969 249.482 117.144C249.738 117.474 250.335 117.858 250.634 117.773C253.682 116.899 256.689 115.939 259.855 114.958L253.65 106.739C255.655 106.1 257.52 105.481 259.407 104.938C259.57 104.93 259.733 104.959 259.882 105.024C260.032 105.088 260.165 105.187 260.271 105.311C265.551 112.233 270.81 119.169 276.048 126.12C276.095 126.247 276.123 126.38 276.134 126.514L270.089 128.412C268.49 126.28 266.891 124.148 265.27 122.08C263.65 120.012 263.565 119.83 261.006 120.641L253.757 122.901ZM274.844 125.928C269.801 119.276 264.897 112.805 259.972 106.345C259.857 106.224 259.715 106.133 259.557 106.077C259.4 106.021 259.232 106.004 259.066 106.025C257.776 106.366 256.508 106.803 255.079 107.262L261.283 115.481C257.531 116.653 254.077 117.762 250.623 118.775C250.363 118.805 250.1 118.774 249.854 118.685C249.608 118.597 249.386 118.452 249.205 118.263C247.478 116.131 245.858 113.85 244.131 111.686C243.978 111.493 243.784 111.338 243.562 111.233C243.34 111.127 243.097 111.074 242.851 111.078C241.593 111.355 240.367 111.824 239.152 112.208C239.156 112.331 239.178 112.453 239.216 112.571C244.063 118.967 248.917 125.363 253.778 131.759C253.881 131.889 254.012 131.994 254.162 132.064C254.312 132.134 254.476 132.169 254.642 132.165C255.985 131.802 257.296 131.344 258.746 130.875L252.286 122.346C256.049 121.184 259.599 120.065 263.17 119.031C263.408 119.023 263.644 119.07 263.86 119.168C264.076 119.266 264.267 119.412 264.418 119.596C266.219 121.877 267.946 124.222 269.748 126.504C270.004 126.834 270.558 127.207 270.878 127.133C272.115 126.866 273.34 126.429 274.844 125.928Z" fill="#3A0D1F"/>
<path d="M183.847 132.91C183.335 134.488 182.845 135.981 182.472 137.111C179.988 136.961 177.707 136.716 175.436 136.738C174.444 136.832 173.487 137.157 172.643 137.686C172.137 137.926 171.683 138.264 171.307 138.679C170.931 139.095 170.641 139.58 170.453 140.108C170.265 140.635 170.183 141.195 170.211 141.754C170.239 142.314 170.377 142.862 170.617 143.368C172.643 148.699 179.871 151.588 184.967 149.125C185.706 148.713 186.418 148.254 187.099 147.75L182.312 141.354C184.22 140.746 185.979 140.16 187.749 139.659C187.973 139.595 188.41 139.893 188.602 140.128C190.595 142.718 192.589 145.309 194.508 147.963C194.626 148.2 194.688 148.461 194.688 148.725C194.688 148.99 194.626 149.251 194.508 149.488C192.961 151.755 190.679 153.42 188.047 154.2C184.03 155.581 179.68 155.665 175.613 154.438C171.546 153.212 167.967 150.738 165.383 147.366C164.484 146.163 163.765 144.834 163.251 143.422C162.561 141.71 162.513 139.807 163.117 138.063C163.72 136.319 164.934 134.853 166.535 133.934C172.057 130.597 177.856 130.491 183.847 132.91ZM182.525 133.38C177.941 131.045 170.116 132.015 166.375 135.362C165.242 136.299 164.429 137.564 164.047 138.983C163.665 140.402 163.733 141.905 164.242 143.283C164.638 144.487 165.209 145.626 165.938 146.663C168.179 149.784 171.317 152.149 174.935 153.443C178.553 154.738 182.48 154.902 186.192 153.912C188.956 153.248 191.425 151.693 193.218 149.488C193.612 148.965 193.889 148.507 193.346 147.825C191.651 145.692 190.052 143.486 188.367 141.343C188.24 141.182 188.078 141.052 187.894 140.963C187.709 140.875 187.506 140.83 187.301 140.831C186.161 141.087 185.062 141.503 183.794 141.897L188.378 147.974C187.66 148.58 186.902 149.136 186.107 149.637C180.415 152.835 171.673 149.381 169.541 143.241C169.042 142.075 169.017 140.761 169.474 139.578C169.93 138.395 170.83 137.437 171.982 136.908C172.799 136.415 173.711 136.099 174.658 135.981C176.929 135.874 179.21 135.981 181.672 135.981L182.525 133.38Z" fill="#3A0D1F"/>
<path d="M227.596 133.348C230.69 134.116 233.926 134.116 237.02 133.348C237.813 133.156 238.569 132.836 239.259 132.399C239.738 132.047 240.325 131.28 240.229 130.832C240.114 130.508 239.928 130.215 239.685 129.973C239.441 129.731 239.146 129.547 238.822 129.435C237.771 129.213 236.696 129.13 235.623 129.19C232.681 129.244 229.717 129.553 226.786 129.382C225.255 129.301 223.766 128.847 222.451 128.059C221.135 127.271 220.032 126.174 219.238 124.862C217.33 121.93 217.831 118.903 220.848 117.123C222.713 116.021 224.754 115.249 226.882 114.841C229.307 114.544 231.754 114.455 234.195 114.575C234.396 114.609 234.586 114.692 234.748 114.816C234.909 114.941 235.038 115.103 235.122 115.289C235.559 116.653 235.869 118.071 236.188 119.393C233.971 119.478 231.85 119.457 229.792 119.67C228.67 119.827 227.586 120.188 226.594 120.736C226.05 121.024 225.336 121.909 225.443 122.336C225.565 122.702 225.767 123.036 226.034 123.315C226.301 123.593 226.627 123.808 226.988 123.945C228.091 124.183 229.223 124.254 230.346 124.158C233.257 124.158 236.167 123.807 239.045 123.977C240.528 124.046 241.973 124.469 243.258 125.211C244.543 125.953 245.632 126.992 246.433 128.241C248.331 131.077 247.947 134.211 244.994 135.917C242.726 137.216 240.253 138.117 237.681 138.582C235.229 139.041 232.628 138.71 230.101 138.678C229.888 138.701 229.672 138.678 229.468 138.61C229.264 138.542 229.077 138.431 228.92 138.284C228.764 138.138 228.64 137.959 228.559 137.76C228.477 137.561 228.44 137.347 228.449 137.132C228.233 135.856 227.948 134.593 227.596 133.348ZM234.824 118.242C234.647 117.696 234.519 117.136 234.44 116.568C234.455 116.353 234.418 116.138 234.332 115.94C234.246 115.742 234.114 115.568 233.947 115.432C233.78 115.296 233.582 115.203 233.371 115.159C233.16 115.116 232.942 115.124 232.734 115.182C230.357 115.428 227.948 115.545 225.602 116.014C224.149 116.363 222.77 116.969 221.53 117.805C218.876 119.51 218.449 122.133 220.208 124.734C220.921 125.853 221.893 126.785 223.041 127.449C224.19 128.113 225.482 128.491 226.807 128.551C229.195 128.668 231.604 128.423 234.014 128.391C235.503 128.314 236.995 128.339 238.48 128.465C239.171 128.491 239.833 128.748 240.36 129.195C240.888 129.641 241.251 130.251 241.391 130.928C241.508 132.548 240.218 133.06 239.088 133.604C238.694 133.831 238.26 133.979 237.809 134.041C235.559 134.275 233.31 134.489 231.061 134.648C230.348 134.647 229.636 134.601 228.929 134.51C229.078 135.288 229.216 135.906 229.312 136.535C229.44 137.441 229.803 138.017 230.869 137.985C232.948 137.9 235.133 138.198 237.095 137.783C239.531 137.313 241.879 136.468 244.056 135.277C246.881 133.678 247.179 130.779 245.25 128.146C244.55 127.128 243.622 126.289 242.538 125.696C241.455 125.104 240.248 124.774 239.013 124.734C236.071 124.628 233.129 124.958 230.176 124.958C228.783 124.974 227.394 124.794 226.05 124.425C225.503 124.304 225.022 123.981 224.704 123.52C224.386 123.059 224.253 122.495 224.334 121.941C224.504 121.152 225.336 120.47 225.976 119.809C226.359 119.486 226.831 119.285 227.329 119.233C229.771 118.892 232.223 118.583 234.824 118.242Z" fill="#3A0D1F"/>
<path d="M184.741 128.113C186.66 127.516 188.494 126.866 190.381 126.397C190.754 126.301 191.447 126.781 191.724 127.175C195.541 132.15 199.329 137.143 203.088 142.153C203.251 142.488 203.54 142.744 203.892 142.866C204.244 142.988 204.629 142.965 204.964 142.804C208.163 141.738 211.361 140.831 214.559 139.776C214.705 139.701 214.864 139.656 215.028 139.643C215.192 139.631 215.356 139.651 215.512 139.703C215.668 139.754 215.812 139.836 215.935 139.944C216.059 140.052 216.16 140.183 216.233 140.33C217.128 141.588 218.088 142.804 219.143 144.189L212.843 146.172L202.182 149.488C201.521 149.69 200.999 149.85 200.434 149.093C195.295 142.228 190.093 135.395 184.901 128.55C184.836 128.409 184.783 128.263 184.741 128.113ZM186.234 128.636C186.313 128.82 186.405 128.998 186.511 129.169C191.301 135.501 196.102 141.823 200.913 148.134C201.072 148.283 201.264 148.393 201.474 148.454C201.683 148.515 201.904 148.526 202.118 148.486C204.346 147.857 206.553 147.164 208.76 146.471L217.661 143.688C217 142.814 216.414 142.132 215.934 141.364C215.454 140.597 214.996 140.608 214.228 140.863C211.126 141.876 207.981 142.772 204.89 143.816C204.495 144.01 204.04 144.04 203.623 143.9C203.206 143.76 202.861 143.462 202.662 143.07C198.952 138.081 195.199 133.156 191.426 128.145C191.031 127.623 190.711 127.079 189.901 127.399C188.718 127.879 187.502 128.231 186.234 128.636Z" fill="#3A0D1F"/>
<path d="M227.746 141.546C225.881 142.122 224.207 142.559 222.597 143.166C222.424 143.26 222.233 143.318 222.037 143.336C221.84 143.354 221.642 143.333 221.454 143.273C221.266 143.214 221.092 143.117 220.943 142.989C220.793 142.86 220.67 142.703 220.583 142.527C216.201 136.674 211.766 130.864 207.353 125.033L204.965 121.835C207.001 121.184 208.877 120.577 210.775 120.033C210.937 120.015 211.101 120.035 211.254 120.09C211.408 120.145 211.546 120.235 211.66 120.353C217.001 127.357 222.31 134.382 227.746 141.546ZM226.009 141.098C226.009 140.853 226.009 140.746 225.955 140.682C221.116 134.286 216.265 127.89 211.404 121.493C211.299 121.364 211.165 121.261 211.014 121.192C210.862 121.124 210.696 121.092 210.53 121.099C209.197 121.461 207.896 121.92 206.436 122.389C211.468 129.02 216.372 135.491 221.307 141.94C221.467 142.068 221.653 142.159 221.853 142.205C222.052 142.251 222.259 142.252 222.459 142.207C223.642 141.898 224.793 141.482 226.009 141.098Z" fill="#3A0D1F"/>
</svg>
