<svg width="66" height="66" viewBox="0 0 66 66" fill="none" xmlns="http://www.w3.org/2000/svg">
<circle opacity="0.12" cx="33" cy="33" r="33" fill="#DB524E"/>
<path fill-rule="evenodd" clip-rule="evenodd" d="M21.3162 41.3453C20.3944 42.2671 20.3944 43.7616 21.3162 44.6834C22.238 45.6052 23.7326 45.6052 24.6544 44.6834L32.9997 36.3381L41.3454 44.6837C42.2672 45.6055 43.7617 45.6055 44.6835 44.6837C45.6053 43.7619 45.6053 42.2674 44.6835 41.3456L36.3379 33L44.6833 24.6545C45.6051 23.7327 45.6051 22.2382 44.6833 21.3164C43.7615 20.3945 42.267 20.3945 41.3452 21.3164L32.9997 29.6618L24.6546 21.3167C23.7328 20.3949 22.2382 20.3949 21.3164 21.3167C20.3946 22.2385 20.3946 23.733 21.3164 24.6548L29.6616 33L21.3162 41.3453Z" fill="#F61414"/>
</svg>
