<svg width="201" height="147" viewBox="0 0 201 147" fill="none" xmlns="http://www.w3.org/2000/svg">
<path fill-rule="evenodd" clip-rule="evenodd" d="M50.4493 136.697V58.5997C50.4493 54.6584 53.6474 51.4629 57.5931 51.4629H180.146C184.092 51.4629 187.29 54.6584 187.29 58.5997V136.697H50.4493Z" fill="white"/>
<path fill-rule="evenodd" clip-rule="evenodd" d="M50.4493 136.697V58.5997C50.4493 54.6584 53.6474 51.4629 57.5931 51.4629H180.146C184.092 51.4629 187.29 54.6584 187.29 58.5997V136.697H50.4493Z" stroke="#4C4C4C" stroke-width="1.8" stroke-linejoin="round"/>
<path fill-rule="evenodd" clip-rule="evenodd" d="M176.671 137.069H61.0664V65.8206C61.0664 63.7488 62.7477 62.0693 64.8208 62.0693H172.918C174.991 62.0693 176.671 63.7488 176.671 65.8206V137.069Z" fill="#F0F0F0"/>
<path fill-rule="evenodd" clip-rule="evenodd" d="M176.671 137.069H61.0664V65.8206C61.0664 63.7488 62.7477 62.0693 64.8208 62.0693H172.918C174.991 62.0693 176.671 63.7488 176.671 65.8206V137.069Z" stroke="#4C4C4C" stroke-width="1.8" stroke-linejoin="round"/>
<path fill-rule="evenodd" clip-rule="evenodd" d="M121.307 56.7459C121.307 58.0915 120.215 59.1814 118.869 59.1814C117.523 59.1814 116.432 58.0915 116.432 56.7459C116.432 55.4014 117.523 54.3115 118.869 54.3115C120.215 54.3115 121.307 55.4014 121.307 56.7459Z" fill="#E8E8E8"/>
<path fill-rule="evenodd" clip-rule="evenodd" d="M121.307 56.7459C121.307 58.0915 120.215 59.1814 118.869 59.1814C117.523 59.1814 116.432 58.0915 116.432 56.7459C116.432 55.4014 117.523 54.3115 118.869 54.3115C120.215 54.3115 121.307 55.4014 121.307 56.7459Z" stroke="#4C4C4C" stroke-width="1.8"/>
<path fill-rule="evenodd" clip-rule="evenodd" d="M192.918 145.402H44.8212C41.2878 145.402 38.424 142.541 38.424 139.011V135.884H199.316V139.011C199.316 142.541 196.452 145.402 192.918 145.402Z" fill="white"/>
<path fill-rule="evenodd" clip-rule="evenodd" d="M192.918 145.402H44.8212C41.2878 145.402 38.424 142.541 38.424 139.011V135.884H199.316V139.011C199.316 142.541 196.452 145.402 192.918 145.402Z" stroke="#4C4C4C" stroke-width="1.8" stroke-linejoin="round"/>
<path fill-rule="evenodd" clip-rule="evenodd" d="M132.004 138.919H109.798C108.031 138.919 106.6 137.488 106.6 135.725V134.752H135.203V135.725C135.203 137.488 133.77 138.919 132.004 138.919Z" fill="#4C4C4C"/>
<path fill-rule="evenodd" clip-rule="evenodd" d="M73.3644 135.8H164.374V1.59766H73.3644V135.8Z" fill="white"/>
<path fill-rule="evenodd" clip-rule="evenodd" d="M73.3644 135.8H164.374V1.59766H73.3644V135.8Z" stroke="#4C4C4C" stroke-width="1.8" stroke-linejoin="round"/>
<path d="M105.197 49.6995H147.09M105.197 42.0879H151.425H105.197Z" stroke="#A7A7A7" stroke-width="1.8" stroke-linecap="round" stroke-linejoin="round"/>
<path fill-rule="evenodd" clip-rule="evenodd" d="M98.806 45.8934C98.806 49.6559 95.7519 52.7066 91.9841 52.7066C88.2173 52.7066 85.1632 49.6559 85.1632 45.8934C85.1632 42.1298 88.2173 39.0791 91.9841 39.0791C95.7519 39.0791 98.806 42.1298 98.806 45.8934Z" fill="#E8E8E8"/>
<path d="M105.197 73.6694H147.09M89.1759 45.9969L90.9796 47.7986L94.7937 43.9888L89.1759 45.9969ZM105.197 66.0579H151.425H105.197Z" stroke="#A7A7A7" stroke-width="1.8" stroke-linecap="round" stroke-linejoin="round"/>
<path fill-rule="evenodd" clip-rule="evenodd" d="M98.806 69.8635C98.806 73.6261 95.7519 76.6768 91.9841 76.6768C88.2173 76.6768 85.1632 73.6261 85.1632 69.8635C85.1632 66.101 88.2173 63.0503 91.9841 63.0503C95.7519 63.0503 98.806 66.101 98.806 69.8635Z" fill="#E8E8E8"/>
<path d="M105.197 121.611H147.09M89.1759 69.9681L90.9796 71.7688L94.7937 67.959L89.1759 69.9681ZM105.197 113.998H151.425H105.197Z" stroke="#A7A7A7" stroke-width="1.8" stroke-linecap="round" stroke-linejoin="round"/>
<path fill-rule="evenodd" clip-rule="evenodd" d="M98.806 117.803C98.806 121.567 95.7519 124.618 91.9841 124.618C88.2173 124.618 85.1632 121.567 85.1632 117.803C85.1632 114.041 88.2173 110.99 91.9841 110.99C95.7519 110.99 98.806 114.041 98.806 117.803Z" fill="#E8E8E8"/>
<path d="M105.197 25.7293H147.09M89.1759 117.908L90.9796 119.71L94.7937 115.899L89.1759 117.908ZM105.197 18.1167H151.425H105.197Z" stroke="#A7A7A7" stroke-width="1.8" stroke-linecap="round" stroke-linejoin="round"/>
<path fill-rule="evenodd" clip-rule="evenodd" d="M98.806 21.9236C98.806 25.6862 95.7519 28.7369 91.9841 28.7369C88.2173 28.7369 85.1632 25.6862 85.1632 21.9236C85.1632 18.1601 88.2173 15.1094 91.9841 15.1094C95.7519 15.1094 98.806 18.1601 98.806 21.9236Z" fill="#E8E8E8"/>
<path d="M105.197 97.6395H147.09M89.4541 24.4513L94.5166 19.3945L89.4541 24.4513ZM89.4541 19.3947L94.5166 24.4515L89.4541 19.3947ZM105.197 90.0279H151.425H105.197Z" stroke="#A7A7A7" stroke-width="1.8" stroke-linecap="round" stroke-linejoin="round"/>
<path fill-rule="evenodd" clip-rule="evenodd" d="M98.806 93.8338C98.806 97.5973 95.7519 100.648 91.9841 100.648C88.2173 100.648 85.1632 97.5973 85.1632 93.8338C85.1632 90.0712 88.2173 87.0205 91.9841 87.0205C95.7519 87.0205 98.806 90.0712 98.806 93.8338Z" fill="#E8E8E8"/>
<path fill-rule="evenodd" clip-rule="evenodd" d="M89.4541 96.3624L94.5165 91.3057L89.4541 96.3624ZM89.4541 91.3059L94.5165 96.3626L89.4541 91.3059Z" stroke="#A7A7A7" stroke-width="1.8" stroke-linecap="round" stroke-linejoin="round"/>
<path fill-rule="evenodd" clip-rule="evenodd" d="M50.1124 84.6499L58.5735 78.0123L53.3517 71.3716L44.8916 78.0092L50.1124 84.6499Z" fill="#CACACA"/>
<path fill-rule="evenodd" clip-rule="evenodd" d="M50.1124 84.6499L58.5735 78.0123L53.3517 71.3716L44.8916 78.0092L50.1124 84.6499Z" stroke="#4C4C4C" stroke-width="1.8" stroke-linejoin="round"/>
<path fill-rule="evenodd" clip-rule="evenodd" d="M54.6692 81.0735L60.9903 76.1153L55.7685 69.4746L49.4484 74.4328L54.6692 81.0735Z" fill="#4C4C4C"/>
<path fill-rule="evenodd" clip-rule="evenodd" d="M59.105 32.7616C65.6133 27.634 73.7247 25.3382 81.937 26.3068C90.1698 27.2724 97.5388 31.3955 102.675 37.9201C107.783 44.419 110.07 52.5101 109.103 60.6843C107.105 77.6388 91.6608 89.8211 74.6873 87.8161C66.4473 86.8485 59.0803 82.7172 53.9418 76.1936C48.83 69.6978 46.5512 61.6201 47.5137 53.4417C48.4803 45.2346 52.5926 37.8893 59.105 32.7616Z" fill="#DDDDDD"/>
<path fill-rule="evenodd" clip-rule="evenodd" d="M59.105 32.7616C65.6133 27.634 73.7247 25.3382 81.937 26.3068C90.1698 27.2724 97.5388 31.3955 102.675 37.9201C107.783 44.419 110.07 52.5101 109.103 60.6843C107.105 77.6388 91.6608 89.8211 74.6873 87.8161C66.4473 86.8485 59.0803 82.7172 53.9418 76.1936C48.83 69.6977 46.5512 61.6201 47.5137 53.4417C48.4803 45.2346 52.5926 37.8893 59.105 32.7616V32.7616Z" stroke="#4C4C4C" stroke-width="1.8" stroke-linejoin="round"/>
<path fill-rule="evenodd" clip-rule="evenodd" d="M58.9751 72.2327C63.0607 77.426 68.9016 80.6935 75.4387 81.4649C88.9108 83.056 101.158 73.3985 102.741 59.9353C103.503 53.4436 101.692 47.0309 97.6341 41.8776C93.5568 36.6996 87.7159 33.426 81.1911 32.6567C74.6674 31.8914 68.2383 33.7054 63.071 37.7854C57.9098 41.854 54.6418 47.6863 53.8695 54.1903C53.1054 60.6811 54.9163 67.0855 58.9751 72.2327Z" fill="white"/>
<path fill-rule="evenodd" clip-rule="evenodd" d="M58.9751 72.2327C63.0607 77.426 68.9016 80.6935 75.4387 81.4649C88.9108 83.056 101.158 73.3985 102.741 59.9353C103.503 53.4436 101.692 47.0309 97.6341 41.8776C93.5568 36.6996 87.7159 33.426 81.1911 32.6567C74.6674 31.8914 68.2383 33.7054 63.071 37.7854C57.9098 41.854 54.6418 47.6863 53.8695 54.1903C53.1054 60.6811 54.9163 67.0855 58.9751 72.2327V72.2327Z" stroke="#4C4C4C" stroke-width="1.8" stroke-linejoin="round"/>
<path fill-rule="evenodd" clip-rule="evenodd" d="M3.91101 108.087L11.316 117.453L51.101 86.1219C51.9668 85.4388 52.1149 84.1836 51.4311 83.3187L46.5023 77.0848C45.8195 76.2199 44.5629 76.072 43.696 76.7551L3.91101 108.087Z" fill="#F0F0F0"/>
<path fill-rule="evenodd" clip-rule="evenodd" d="M3.91101 108.087L11.316 117.453L51.101 86.1219C51.9668 85.4388 52.1149 84.1836 51.4311 83.3187L46.5023 77.0848C45.8195 76.2199 44.5629 76.072 43.696 76.7551L3.91101 108.087Z" stroke="#4C4C4C" stroke-width="1.8" stroke-linejoin="round"/>
<path fill-rule="evenodd" clip-rule="evenodd" d="M1.52902 112.505L6.45677 118.738C7.13855 119.601 8.39106 119.751 9.25794 119.074L11.3927 117.404L3.98776 108.037L1.86529 109.697C0.993266 110.378 0.84313 111.637 1.52902 112.505Z" fill="#CACACA"/>
<path fill-rule="evenodd" clip-rule="evenodd" d="M1.52902 112.505L6.45677 118.738C7.13855 119.601 8.39105 119.751 9.25794 119.074L11.3927 117.404L3.98776 108.037L1.86529 109.697C0.993266 110.378 0.84313 111.637 1.52902 112.505V112.505Z" stroke="#4C4C4C" stroke-width="1.8" stroke-linejoin="round"/>
<path fill-rule="evenodd" clip-rule="evenodd" d="M91.9836 56.7216C91.9836 64.2233 85.8824 70.3042 78.3556 70.3042C70.8308 70.3042 64.7296 64.2233 64.7296 56.7216C64.7296 49.2219 70.8308 43.1411 78.3556 43.1411C85.8824 43.1411 91.9836 49.2219 91.9836 56.7216Z" fill="#3A10E5"/>
<path d="M72.7462 56.9401L76.3493 60.7172L83.9684 52.728" stroke="white" stroke-width="2" stroke-linecap="round" stroke-linejoin="round"/>
</svg>
