<svg width="320" height="180" viewBox="0 0 320 180" fill="none" xmlns="http://www.w3.org/2000/svg">
<path d="M276.241 66.022C288.394 70.949 321.253 81.9901 313.029 96.5694C305.803 109.38 261.131 107.737 184.927 74.2337" stroke="#DDDDDC" stroke-width="2" stroke-linecap="round" stroke-dasharray="3 4"/>
<path d="M140.247 100.36C64.0426 66.8566 19.3711 65.2144 12.1448 78.0245C9.10323 83.4166 11.681 88.3246 16.7524 92.6183" stroke="#DDDDDC" stroke-width="2" stroke-linecap="round" stroke-dasharray="3 4"/>
<path d="M272.539 95.8075C272.925 94.8543 274.339 94.5705 275.608 95.1157C276.878 95.6603 277.587 96.9617 277.158 97.8657L264.079 126.834L259.448 130.919L259.417 124.726L272.539 95.8075Z" fill="white" stroke="#4C4C4C" stroke-width="2" stroke-miterlimit="10" stroke-linejoin="round"/>
<path d="M270.654 99.9126L259.662 124.215L264.271 126.299L275.263 101.997L270.654 99.9126Z" fill="#FFC700" stroke="#4C4C4C" stroke-width="2" stroke-miterlimit="10" stroke-linejoin="round"/>
<path d="M271.703 97.5405L270.513 100.174L275.121 102.259L276.313 99.625L271.703 97.5405Z" fill="#E8E8E8" stroke="#4C4C4C" stroke-width="2" stroke-miterlimit="10" stroke-linejoin="round"/>
<path d="M261.99 125.259L273.011 100.91" stroke="#4C4C4C" stroke-width="2" stroke-miterlimit="10" stroke-linejoin="round"/>
<path d="M261.928 91.7694C262.116 90.7583 263.446 90.1993 264.798 90.4818C266.15 90.7636 267.104 91.8975 266.863 92.8691L259.8 123.858L256.072 128.782L254.812 122.719L261.928 91.7694Z" fill="white" stroke="#4C4C4C" stroke-width="2" stroke-miterlimit="10" stroke-linejoin="round"/>
<path d="M260.896 96.1667L254.951 122.168L259.883 123.296L265.827 97.2947L260.896 96.1667Z" fill="#FFC700" stroke="#4C4C4C" stroke-width="2" stroke-miterlimit="10" stroke-linejoin="round"/>
<path d="M261.452 93.6333L260.809 96.4509L265.74 97.5788L266.384 94.7606L261.452 93.6333Z" fill="#E8E8E8" stroke="#4C4C4C" stroke-width="2" stroke-miterlimit="10" stroke-linejoin="round"/>
<path d="M257.44 122.731L263.404 96.6772" stroke="#4C4C4C" stroke-width="2" stroke-miterlimit="10" stroke-linejoin="round"/>
<path fill-rule="evenodd" clip-rule="evenodd" d="M246.715 152.737H267.016C270.298 152.737 272.96 150.055 272.96 146.746V115.949C272.96 115.224 272.372 114.635 271.646 114.635H242.084C241.358 114.635 240.77 115.224 240.77 115.949V146.746C240.77 150.055 243.432 152.737 246.715 152.737Z" fill="#E8E8E8" stroke="#4C4C4C" stroke-width="2"/>
<path opacity="0.1" fill-rule="evenodd" clip-rule="evenodd" d="M246.715 152.737H267.016C270.298 152.737 272.96 150.055 272.96 146.746C272.96 146.79 272.925 146.825 272.881 146.825H240.849C240.805 146.825 240.77 146.79 240.77 146.746C240.77 150.055 243.432 152.737 246.715 152.737Z" fill="#4C4C4C"/>
<path opacity="0.1" d="M249.964 115.292H243.395V147.482H249.964V115.292Z" fill="#4C4C4C"/>
<path fill-rule="evenodd" clip-rule="evenodd" d="M36.4835 152.723H65.4543C70.1396 152.723 73.938 148.925 73.938 144.24V100.084C73.938 99.358 73.35 98.77 72.6241 98.77H29.3137C28.5881 98.77 27.9998 99.358 27.9998 100.084V144.24C27.9998 148.925 31.7976 152.723 36.4835 152.723Z" fill="white" stroke="#4C4C4C" stroke-width="2"/>
<path fill-rule="evenodd" clip-rule="evenodd" d="M23.3217 109.379C18.9679 109.379 15.4385 112.909 15.4385 117.263V133.029C15.4385 137.383 18.9679 140.912 23.3217 140.912H27.9202V135H22.6648C21.5763 135 20.694 134.118 20.694 133.029V117.263C20.694 116.174 21.5763 115.292 22.6648 115.292H27.9202V109.379H23.3217Z" fill="white"/>
<path d="M27.9198 140.912H28.5768V141.569H27.9198V140.912ZM27.9198 135V134.343H28.5768V135H27.9198ZM27.9198 115.292H28.5768V115.949H27.9198V115.292ZM27.9198 109.38V108.723H28.5768V109.38H27.9198ZM14.7812 117.263C14.7812 112.546 18.6047 108.723 23.3213 108.723V110.037C19.3303 110.037 16.095 113.272 16.095 117.263H14.7812ZM14.7812 133.029V117.263H16.095V133.029H14.7812ZM23.3213 141.569C18.6047 141.569 14.7812 137.746 14.7812 133.029H16.095C16.095 137.02 19.3303 140.256 23.3213 140.256V141.569ZM27.9198 141.569H23.3213V140.256H27.9198V141.569ZM28.5768 135V140.912H27.2629V135H28.5768ZM27.9198 135.657H22.6644V134.343H27.9198V135.657ZM22.6644 135.657C21.2131 135.657 20.0366 134.48 20.0366 133.029H21.3505C21.3505 133.755 21.9387 134.343 22.6644 134.343V135.657ZM20.0366 133.029V117.263H21.3505V133.029H20.0366ZM20.0366 117.263C20.0366 115.812 21.2131 114.635 22.6644 114.635V115.949C21.9387 115.949 21.3505 116.537 21.3505 117.263H20.0366ZM22.6644 114.635H27.9198V115.949H22.6644V114.635ZM28.5768 109.38V115.292H27.2629V109.38H28.5768ZM23.3213 108.723H27.9198V110.037H23.3213V108.723Z" fill="#4C4C4C"/>
<path opacity="0.1" fill-rule="evenodd" clip-rule="evenodd" d="M27.9194 109.379H24.6348V115.292H27.9194V109.379ZM27.9194 135V140.912H24.6348V135H27.9194Z" fill="#4C4C4C"/>
<path fill-rule="evenodd" clip-rule="evenodd" d="M44.9623 113.015L43.6272 114.09C43.4522 114.232 43.2257 114.291 43.0035 114.256L41.3042 113.986C40.5651 113.868 39.8443 114.28 39.5775 114.973L38.9644 116.566C38.8844 116.775 38.7182 116.939 38.508 117.018L36.8996 117.626C36.2004 117.89 35.7841 118.604 35.9029 119.336L36.1759 121.02C36.2115 121.24 36.1508 121.464 36.0086 121.637L34.9228 122.96C34.6892 123.244 34.5712 123.589 34.5684 123.935V123.959C34.5712 124.306 34.6892 124.65 34.9228 124.934L36.0086 126.257C36.1508 126.43 36.2115 126.655 36.1759 126.875L35.9029 128.558C35.7841 129.29 36.2004 130.004 36.8996 130.269L38.508 130.876C38.7182 130.956 38.8844 131.12 38.9644 131.328L39.5775 132.921C39.8443 133.614 40.5651 134.026 41.3042 133.909L43.0035 133.638C43.2257 133.603 43.4522 133.663 43.6272 133.804L44.9623 134.88C45.2492 135.111 45.5977 135.228 45.9467 135.23H45.9715C46.3205 135.228 46.669 135.111 46.9559 134.88L48.2911 133.804C48.4654 133.663 48.6922 133.603 48.9144 133.638L50.614 133.909C51.3531 134.026 52.0737 133.614 52.3403 132.921L52.9535 131.328C53.0339 131.12 53.1999 130.956 53.4102 130.876L55.0187 130.269C55.7176 130.004 56.1341 129.29 56.015 128.558L55.7423 126.875C55.7067 126.655 55.7674 126.43 55.9096 126.257L56.9954 124.934C57.229 124.65 57.347 124.305 57.3499 123.959V123.935C57.347 123.59 57.229 123.244 56.9954 122.96L55.9096 121.637C55.7674 121.464 55.7067 121.24 55.7423 121.02L56.015 119.336C56.1341 118.604 55.7176 117.89 55.0187 117.626L53.4102 117.018C53.1999 116.939 53.0339 116.775 52.9535 116.566L52.3403 114.973C52.0737 114.28 51.3531 113.868 50.614 113.986L48.9144 114.256C48.6922 114.291 48.4654 114.232 48.2911 114.09L46.9559 113.015C46.6655 112.781 46.3122 112.664 45.9589 112.664C45.606 112.664 45.2527 112.781 44.9623 113.015Z" fill="#DDDDDD"/>
<path fill-rule="evenodd" clip-rule="evenodd" d="M43.3856 119.911C43.0514 120.143 42.2994 120.382 41.1295 120.629C40.9431 120.669 40.7665 120.744 40.6105 120.853C39.9674 121.299 39.8111 122.177 40.2614 122.814L41.301 124.285L39.2568 125.062C38.9394 125.183 38.8333 125.575 39.0473 125.837C40.0576 127.073 41.77 127.55 43.3138 127.002C44.7386 128.372 46.989 128.593 48.676 127.423C50.3651 126.252 50.9239 124.078 50.1064 122.281C51.1381 121.033 51.2649 119.289 50.4421 117.933C50.2668 117.644 49.8583 117.609 49.6353 117.863L48.2168 119.48L47.1854 118.021C47.0755 117.866 46.935 117.734 46.7722 117.633C46.1057 117.223 45.2291 117.424 44.8142 118.084C44.1938 119.072 43.7176 119.681 43.3856 119.911ZM44.0986 129.752C44.1517 129.368 44.5086 129.1 44.8957 129.152L44.9006 129.153L46.0109 129.311C46.4013 129.367 46.6731 129.725 46.6196 130.112C46.5665 130.495 46.2096 130.763 45.8224 130.711L45.8175 130.71L44.7072 130.552C44.3169 130.496 44.045 130.139 44.0986 129.752ZM51.5791 124.517C51.6617 124.139 52.0383 123.898 52.4204 123.98C52.8058 124.063 53.0518 124.438 52.9711 124.82L52.7418 125.908L52.7407 125.912C52.6582 126.291 52.2816 126.531 51.8995 126.45C51.5141 126.367 51.268 125.992 51.3486 125.61L51.578 124.522L51.5791 124.517Z" fill="white"/>
<path opacity="0.1" fill-rule="evenodd" clip-rule="evenodd" d="M60.8485 98.77H73.9379V144.24C73.9379 148.925 70.1396 152.723 65.4543 152.723H36.4835C32.6549 152.723 29.4188 150.188 28.3631 146.703H54.3731C57.9488 146.703 60.8485 143.804 60.8485 140.228V98.77Z" fill="#4C4C4C"/>
<path d="M67.3358 35.146C67.3358 30.7923 70.8655 27.2628 75.219 27.2628H235.511C239.865 27.2628 243.394 30.7923 243.394 35.146V142.226H67.3358V35.146Z" fill="#E8E8E8" stroke="#4C4C4C" stroke-width="2"/>
<path d="M75.219 39.0876C75.219 36.9107 76.9835 35.146 79.1606 35.146H231.569C233.746 35.146 235.511 36.9107 235.511 39.0876V142.226H75.219V39.0876Z" fill="#DBDBDB"/>
<path d="M75.219 39.0876C75.219 36.9107 76.9835 35.146 79.1606 35.146H231.569C233.746 35.146 235.511 36.9107 235.511 39.0876V48.2847H75.219V39.0876Z" fill="white" stroke="#777777" stroke-width="2"/>
<path d="M75.219 39.0876C75.219 36.9107 76.9835 35.146 79.1606 35.146H231.569C233.746 35.146 235.511 36.9107 235.511 39.0876V142.226H75.219V39.0876Z" stroke="#4C4C4C" stroke-width="2"/>
<path d="M171.788 41.0583H163.905C163.542 41.0583 163.248 41.3525 163.248 41.7153C163.248 42.0781 163.542 42.3722 163.905 42.3722H171.788C172.151 42.3722 172.445 42.0781 172.445 41.7153C172.445 41.3525 172.151 41.0583 171.788 41.0583Z" fill="#DDDDDD"/>
<path d="M184.27 41.0586H176.386C176.024 41.0586 175.729 41.3527 175.729 41.7155C175.729 42.0783 176.024 42.3725 176.386 42.3725H184.27C184.632 42.3725 184.927 42.0783 184.927 41.7155C184.927 41.3527 184.632 41.0586 184.27 41.0586Z" fill="#DDDDDD"/>
<path d="M196.752 41.0583H188.869C188.506 41.0583 188.212 41.3525 188.212 41.7153C188.212 42.0781 188.506 42.3722 188.869 42.3722H196.752C197.115 42.3722 197.409 42.0781 197.409 41.7153C197.409 41.3525 197.115 41.0583 196.752 41.0583Z" fill="#DDDDDD"/>
<path d="M209.234 41.0583H201.35C200.988 41.0583 200.693 41.3525 200.693 41.7153C200.693 42.0781 200.988 42.3722 201.35 42.3722H209.234C209.596 42.3722 209.891 42.0781 209.891 41.7153C209.891 41.3525 209.596 41.0583 209.234 41.0583Z" fill="#DDDDDD"/>
<path d="M221.715 41.0586H213.832C213.469 41.0586 213.175 41.3527 213.175 41.7155C213.175 42.0783 213.469 42.3725 213.832 42.3725H221.715C222.078 42.3725 222.372 42.0783 222.372 41.7155C222.372 41.3527 222.078 41.0586 221.715 41.0586Z" fill="#DDDDDD"/>
<path d="M88.3574 61.9397C88.3574 59.4778 90.3578 57.4819 92.8246 57.4819H217.905C220.372 57.4819 222.372 59.4778 222.372 61.9397V146.309C222.372 148.771 220.372 150.767 217.905 150.767H92.8246C90.3578 150.767 88.3574 148.771 88.3574 146.309V61.9397Z" fill="white"/>
<path d="M88.3574 61.9397C88.3574 59.4778 90.3578 57.4819 92.8246 57.4819H217.905C220.372 57.4819 222.372 59.4778 222.372 61.9397V146.309C222.372 148.771 220.372 150.767 217.905 150.767H92.8246C90.3578 150.767 88.3574 148.771 88.3574 146.309V61.9397Z" stroke="#777777" stroke-width="2"/>
<path d="M97.293 104.288C97.293 102.565 98.6929 101.168 100.42 101.168H114.268C115.995 101.168 117.395 102.565 117.395 104.288C117.395 106.012 115.995 107.409 114.268 107.409H100.42C98.6929 107.409 97.293 106.012 97.293 104.288Z" fill="#DDDDDD"/>
<path d="M100.865 117.216C100.865 115.985 101.866 114.987 103.099 114.987H115.16C116.394 114.987 117.394 115.985 117.394 117.216C117.394 118.447 116.394 119.445 115.16 119.445H103.099C101.866 119.445 100.865 118.447 100.865 117.216Z" fill="#DDDDDD"/>
<path d="M100.865 130.144C100.865 128.912 101.866 127.915 103.099 127.915H115.16C116.394 127.915 117.394 128.912 117.394 130.144C117.394 131.375 116.394 132.373 115.16 132.373H103.099C101.866 132.373 100.865 131.375 100.865 130.144Z" fill="#DDDDDD"/>
<path d="M100.865 143.071C100.865 141.84 101.866 140.842 103.099 140.842H115.16C116.394 140.842 117.394 141.84 117.394 143.071C117.394 144.302 116.394 145.3 115.16 145.3H103.099C101.866 145.3 100.865 144.302 100.865 143.071Z" fill="#DDDDDD"/>
<path d="M123.203 104.288C123.203 103.304 124.003 102.505 124.99 102.505H212.993C213.98 102.505 214.78 103.304 214.78 104.288C214.78 105.273 213.98 106.071 212.993 106.071H124.99C124.003 106.071 123.203 105.273 123.203 104.288Z" fill="#EDEDED"/>
<path d="M181.274 104.288C181.274 103.304 182.075 102.505 183.061 102.505H195.569C196.556 102.505 197.356 103.304 197.356 104.288C197.356 105.273 196.556 106.071 195.569 106.071H183.061C182.075 106.071 181.274 105.273 181.274 104.288Z" fill="#3A10E5" fill-opacity="0.25"/>
<path d="M186.635 104.288C186.635 102.811 187.835 101.614 189.315 101.614C190.796 101.614 191.995 102.811 191.995 104.288C191.995 105.766 190.796 106.963 189.315 106.963C187.835 106.963 186.635 105.766 186.635 104.288Z" fill="#3A10E5"/>
<path d="M123.203 117.216C123.203 116.231 124.003 115.433 124.99 115.433H212.993C213.98 115.433 214.78 116.231 214.78 117.216C214.78 118.201 213.98 118.999 212.993 118.999H124.99C124.003 118.999 123.203 118.201 123.203 117.216Z" fill="#EDEDED"/>
<path d="M172.34 117.216C172.34 116.231 173.14 115.433 174.127 115.433H186.635C187.622 115.433 188.422 116.231 188.422 117.216C188.422 118.2 187.622 118.999 186.635 118.999H174.127C173.14 118.999 172.34 118.2 172.34 117.216Z" fill="#3A10E5" fill-opacity="0.25"/>
<path d="M177.701 117.215C177.701 115.739 178.901 114.541 180.381 114.541C181.862 114.541 183.062 115.739 183.062 117.215C183.062 118.693 181.862 119.89 180.381 119.89C178.901 119.89 177.701 118.693 177.701 117.215Z" fill="#3A10E5"/>
<path d="M123.203 130.143C123.203 129.159 124.003 128.36 124.99 128.36H212.993C213.98 128.36 214.78 129.159 214.78 130.143C214.78 131.128 213.98 131.926 212.993 131.926H124.99C124.003 131.926 123.203 131.128 123.203 130.143Z" fill="#EDEDED"/>
<path d="M185.743 130.143C185.743 129.159 186.543 128.36 187.53 128.36H200.038C201.025 128.36 201.825 129.159 201.825 130.143C201.825 131.128 201.025 131.926 200.038 131.926H187.53C186.543 131.926 185.743 131.128 185.743 130.143Z" fill="#3A10E5" fill-opacity="0.25"/>
<path d="M191.103 130.143C191.103 128.666 192.303 127.469 193.783 127.469C195.264 127.469 196.463 128.666 196.463 130.143C196.463 131.621 195.264 132.818 193.783 132.818C192.303 132.818 191.103 131.621 191.103 130.143Z" fill="#3A10E5"/>
<path d="M123.203 143.071C123.203 142.086 124.003 141.288 124.99 141.288H212.993C213.98 141.288 214.78 142.086 214.78 143.071C214.78 144.056 213.98 144.854 212.993 144.854H124.99C124.003 144.854 123.203 144.056 123.203 143.071Z" fill="#EDEDED"/>
<path d="M179.936 143.071C179.936 142.086 180.736 141.288 181.723 141.288H194.231C195.217 141.288 196.017 142.086 196.017 143.071C196.017 144.056 195.217 144.854 194.231 144.854H181.723C180.736 144.854 179.936 144.056 179.936 143.071Z" fill="#3A10E5" fill-opacity="0.25"/>
<path d="M185.296 143.071C185.296 141.594 186.496 140.396 187.976 140.396C189.457 140.396 190.656 141.594 190.656 143.071C190.656 144.548 189.457 145.745 187.976 145.745C186.496 145.745 185.296 144.548 185.296 143.071Z" fill="#3A10E5"/>
<path fill-rule="evenodd" clip-rule="evenodd" d="M201.535 71.7194C201.207 71.9467 200.47 72.1812 199.323 72.4236C199.14 72.4617 198.967 72.5366 198.814 72.6424C198.184 73.0799 198.031 73.9405 198.472 74.5652L199.491 76.0072L197.487 76.7692C197.176 76.8875 197.071 77.2725 197.282 77.5287C198.272 78.7414 199.951 79.2091 201.464 78.6711C202.862 80.0152 205.068 80.2319 206.722 79.0849C208.378 77.936 208.926 75.8042 208.124 74.043C209.135 72.8198 209.26 71.1091 208.453 69.7801C208.281 69.497 207.881 69.4622 207.663 69.7118L206.272 71.297L205.26 69.8662C205.152 69.7138 205.014 69.5844 204.855 69.4858C204.202 69.0831 203.343 69.2815 202.935 69.9286C202.328 70.8969 201.86 71.4934 201.535 71.7194ZM202.234 81.3671C202.286 80.9914 202.636 80.7279 203.015 80.7798L203.02 80.7805L204.109 80.9355C204.491 80.9907 204.758 81.3409 204.706 81.7206C204.654 82.0963 204.304 82.3598 203.924 82.3079L203.919 82.3072L202.831 82.1522C202.448 82.097 202.181 81.7468 202.234 81.3671ZM209.568 76.2352C209.649 75.864 210.018 75.6281 210.393 75.7083C210.77 75.7891 211.012 76.157 210.933 76.5321L210.708 77.5983L210.707 77.6035C210.626 77.9741 210.257 78.2099 209.882 78.1298C209.504 78.0489 209.263 77.6811 209.342 77.306L209.567 76.2398L209.568 76.2352Z" fill="white"/>
<path d="M123.202 69.5175C123.202 68.5328 124.002 67.7346 124.989 67.7346H153.132C154.119 67.7346 154.919 68.5328 154.919 69.5175C154.919 70.5029 154.119 71.3011 153.132 71.3011H124.989C124.002 71.3011 123.202 70.5029 123.202 69.5175Z" fill="#DDDDDD"/>
<path d="M123.202 77.7646C123.202 77.149 123.702 76.6504 124.319 76.6504H144.868C145.485 76.6504 145.985 77.149 145.985 77.7646C145.985 78.3801 145.485 78.8787 144.868 78.8787H124.319C123.702 78.8787 123.202 78.3801 123.202 77.7646Z" fill="#DDDDDD"/>
<path d="M123.202 83.1141C123.202 82.4985 123.702 81.9993 124.319 81.9993H148.442C149.058 81.9993 149.558 82.4985 149.558 83.1141C149.558 83.7296 149.058 84.2282 148.442 84.2282H124.319C123.702 84.2282 123.202 83.7296 123.202 83.1141Z" fill="#DDDDDD"/>
<path d="M95.5051 67.2892C95.5051 65.8117 96.7053 64.6143 98.1854 64.6143H116.054C117.535 64.6143 118.734 65.8117 118.734 67.2892V85.1197C118.734 86.5971 117.535 87.7947 116.054 87.7947H98.1854C96.7053 87.7947 95.5051 86.5971 95.5051 85.1197V67.2892Z" fill="#DDDDDD"/>
<mask id="mask0_948_14604" style="mask-type:alpha" maskUnits="userSpaceOnUse" x="95" y="64" width="24" height="24">
<path d="M95.5051 67.2892C95.5051 65.8117 96.7053 64.6143 98.1854 64.6143H116.054C117.535 64.6143 118.734 65.8117 118.734 67.2892V85.1197C118.734 86.5971 117.535 87.7947 116.054 87.7947H98.1854C96.7053 87.7947 95.5051 86.5971 95.5051 85.1197V67.2892Z" fill="#E5E5E5"/>
</mask>
<g mask="url(#mask0_948_14604)">
<path d="M98.7324 89.088C98.7324 85.4341 101.7 82.4727 105.361 82.4727H108.881C112.542 82.4727 115.51 85.4341 115.51 89.088V92.9902H98.7324V89.088Z" stroke="#4C4C4C" stroke-width="2"/>
<path d="M113.79 78.1796C113.79 81.8544 110.805 84.8336 107.122 84.8336C103.44 84.8336 100.454 81.8544 100.454 78.1796C100.454 74.5047 103.44 71.5261 107.122 71.5261C110.805 71.5261 113.79 74.5047 113.79 78.1796Z" fill="white" stroke="#4C4C4C" stroke-width="2"/>
<path d="M110.131 68.7348C110.131 70.3949 108.782 71.7396 107.12 71.7396C105.456 71.7396 104.108 70.3949 104.108 68.7348C104.108 67.0754 105.456 65.73 107.12 65.73C108.782 65.73 110.131 67.0754 110.131 68.7348Z" fill="#4B4B4B"/>
<path fill-rule="evenodd" clip-rule="evenodd" d="M100.477 78.1788C99.9891 78.1788 99.5877 77.782 99.6442 77.2985C100.082 73.5645 103.263 70.6667 107.121 70.6667C110.981 70.6667 114.162 73.5645 114.599 77.2985C114.655 77.782 114.254 78.1788 113.766 78.1788H111.883C111.273 78.1788 110.778 77.6854 110.778 77.0765V75.603C110.778 75.0104 110.297 74.5295 109.703 74.5295C109.109 74.5295 108.627 75.0104 108.627 75.603V77.0765C108.627 77.6854 108.132 78.1788 107.522 78.1788H100.477Z" fill="#4B4B4B"/>
</g>
</svg>
