<svg width="226" height="53" viewBox="0 0 226 53" fill="none" xmlns="http://www.w3.org/2000/svg">
<g filter="url(#filter0_d_948_9998)">
<rect x="2" y="1" width="221.738" height="49" rx="8" fill="white" shape-rendering="crispEdges"/>
<g clip-path="url(#clip0_948_9998)">
<path d="M37.7376 25.6837C37.7376 25.1399 37.6934 24.5931 37.599 24.0581H30.0266V27.1388H34.363C34.183 28.1324 33.6048 29.0113 32.7582 29.5698V31.5687H35.3453C36.8645 30.1754 37.7376 28.1177 37.7376 25.6837Z" fill="#4285F4"/>
<path d="M30.0267 33.5C32.1919 33.5 34.0179 32.7916 35.3483 31.5687L32.7612 29.5698C32.0415 30.0578 31.1123 30.3341 30.0296 30.3341C27.9352 30.3341 26.1594 28.9261 25.5222 27.033H22.8525V29.0936C24.2154 31.7951 26.9912 33.5 30.0267 33.5Z" fill="#34A853"/>
<path d="M25.5192 27.033C25.183 26.0394 25.183 24.9635 25.5192 23.97V21.9093H22.8525C21.7139 24.1699 21.7139 26.8331 22.8525 29.0936L25.5192 27.033Z" fill="#FBBC04"/>
<path d="M30.0267 20.6659C31.1713 20.6483 32.2775 21.0774 33.1064 21.8652L35.3985 19.5812C33.9471 18.2231 32.0208 17.4765 30.0267 17.5C26.9912 17.5 24.2154 19.2049 22.8525 21.9093L25.5192 23.97C26.1535 22.0739 27.9323 20.6659 30.0267 20.6659Z" fill="#EA4335"/>
</g>
<path d="M50.4398 30.098C49.7865 30.098 49.1985 29.986 48.6758 29.762C48.1532 29.5287 47.7425 29.202 47.4438 28.782C47.1452 28.362 46.9958 27.872 46.9958 27.312H48.7038C48.7412 27.732 48.9045 28.0773 49.1938 28.348C49.4925 28.6187 49.9078 28.754 50.4398 28.754C50.9905 28.754 51.4198 28.6233 51.7278 28.362C52.0358 28.0913 52.1898 27.746 52.1898 27.326C52.1898 26.9993 52.0918 26.7333 51.8958 26.528C51.7092 26.3227 51.4712 26.164 51.1818 26.052C50.9018 25.94 50.5098 25.8187 50.0058 25.688C49.3712 25.52 48.8532 25.352 48.4518 25.184C48.0598 25.0067 47.7238 24.736 47.4438 24.372C47.1638 24.008 47.0238 23.5227 47.0238 22.916C47.0238 22.356 47.1638 21.866 47.4438 21.446C47.7238 21.026 48.1158 20.704 48.6198 20.48C49.1238 20.256 49.7072 20.144 50.3698 20.144C51.3125 20.144 52.0825 20.382 52.6798 20.858C53.2865 21.3247 53.6225 21.9687 53.6878 22.79H51.9238C51.8958 22.4353 51.7278 22.132 51.4198 21.88C51.1118 21.628 50.7058 21.502 50.2018 21.502C49.7445 21.502 49.3712 21.6187 49.0818 21.852C48.7925 22.0853 48.6478 22.4213 48.6478 22.86C48.6478 23.1587 48.7365 23.406 48.9138 23.602C49.1005 23.7887 49.3338 23.938 49.6138 24.05C49.8938 24.162 50.2765 24.2833 50.7618 24.414C51.4058 24.5913 51.9285 24.7687 52.3298 24.946C52.7405 25.1233 53.0858 25.3987 53.3658 25.772C53.6552 26.136 53.7998 26.626 53.7998 27.242C53.7998 27.7367 53.6645 28.2033 53.3938 28.642C53.1325 29.0807 52.7452 29.4353 52.2318 29.706C51.7278 29.9673 51.1305 30.098 50.4398 30.098ZM57.4191 20.27V30H55.8231V20.27H57.4191ZM66.6965 23.07C66.4445 22.5847 66.0945 22.2207 65.6465 21.978C65.1985 21.726 64.6805 21.6 64.0925 21.6C63.4485 21.6 62.8745 21.7447 62.3705 22.034C61.8665 22.3233 61.4698 22.734 61.1805 23.266C60.9005 23.798 60.7605 24.414 60.7605 25.114C60.7605 25.814 60.9005 26.4347 61.1805 26.976C61.4698 27.508 61.8665 27.9187 62.3705 28.208C62.8745 28.4973 63.4485 28.642 64.0925 28.642C64.9605 28.642 65.6651 28.3993 66.2065 27.914C66.7478 27.4287 67.0791 26.7707 67.2005 25.94H63.5465V24.666H68.9085V25.912C68.8058 26.668 68.5351 27.3633 68.0965 27.998C67.6671 28.6327 67.1025 29.1413 66.4025 29.524C65.7118 29.8973 64.9418 30.084 64.0925 30.084C63.1778 30.084 62.3425 29.874 61.5865 29.454C60.8305 29.0247 60.2285 28.432 59.7805 27.676C59.3418 26.92 59.1225 26.066 59.1225 25.114C59.1225 24.162 59.3418 23.308 59.7805 22.552C60.2285 21.796 60.8305 21.208 61.5865 20.788C62.3518 20.3587 63.1871 20.144 64.0925 20.144C65.1285 20.144 66.0478 20.4007 66.8505 20.914C67.6625 21.418 68.2505 22.1367 68.6145 23.07H66.6965ZM78.6166 30H77.0206L72.2186 22.734V30H70.6226V20.256H72.2186L77.0206 27.508V20.256H78.6166V30ZM86.2112 20.27V26.472C86.2112 27.2093 86.4025 27.7647 86.7852 28.138C87.1772 28.5113 87.7185 28.698 88.4092 28.698C89.1092 28.698 89.6505 28.5113 90.0332 28.138C90.4252 27.7647 90.6212 27.2093 90.6212 26.472V20.27H92.2172V26.444C92.2172 27.2373 92.0445 27.9093 91.6992 28.46C91.3538 29.0107 90.8918 29.4213 90.3132 29.692C89.7345 29.9627 89.0952 30.098 88.3952 30.098C87.6952 30.098 87.0558 29.9627 86.4772 29.692C85.9078 29.4213 85.4552 29.0107 85.1192 28.46C84.7832 27.9093 84.6152 27.2373 84.6152 26.444V20.27H86.2112ZM101.239 23.168C101.239 23.6627 101.123 24.1293 100.889 24.568C100.656 25.0067 100.283 25.366 99.7692 25.646C99.2558 25.9167 98.5978 26.052 97.7952 26.052H96.0312V30H94.4352V20.27H97.7952C98.5418 20.27 99.1718 20.4007 99.6852 20.662C100.208 20.914 100.595 21.2593 100.847 21.698C101.109 22.1367 101.239 22.6267 101.239 23.168ZM97.7952 24.75C98.4018 24.75 98.8545 24.6147 99.1532 24.344C99.4518 24.064 99.6012 23.672 99.6012 23.168C99.6012 22.104 98.9992 21.572 97.7952 21.572H96.0312V24.75H97.7952ZM119.348 20.27L116.464 30H114.658L112.614 22.636L110.444 30L108.652 30.014L105.894 20.27H107.588L109.604 28.194L111.788 20.27H113.58L115.61 28.152L117.64 20.27H119.348ZM122.4 20.27V30H120.804V20.27H122.4ZM130.922 20.27V21.572H128.332V30H126.736V21.572H124.132V20.27H130.922ZM140.448 20.27V30H138.852V25.744H134.274V30H132.678V20.27H134.274V24.442H138.852V20.27H140.448ZM153.508 23.07C153.256 22.5847 152.906 22.2207 152.458 21.978C152.01 21.726 151.492 21.6 150.904 21.6C150.26 21.6 149.686 21.7447 149.182 22.034C148.678 22.3233 148.281 22.734 147.992 23.266C147.712 23.798 147.572 24.414 147.572 25.114C147.572 25.814 147.712 26.4347 147.992 26.976C148.281 27.508 148.678 27.9187 149.182 28.208C149.686 28.4973 150.26 28.642 150.904 28.642C151.772 28.642 152.477 28.3993 153.018 27.914C153.559 27.4287 153.891 26.7707 154.012 25.94H150.358V24.666H155.72V25.912C155.617 26.668 155.347 27.3633 154.908 27.998C154.479 28.6327 153.914 29.1413 153.214 29.524C152.523 29.8973 151.753 30.084 150.904 30.084C149.989 30.084 149.154 29.874 148.398 29.454C147.642 29.0247 147.04 28.432 146.592 27.676C146.153 26.92 145.934 26.066 145.934 25.114C145.934 24.162 146.153 23.308 146.592 22.552C147.04 21.796 147.642 21.208 148.398 20.788C149.163 20.3587 149.999 20.144 150.904 20.144C151.94 20.144 152.859 20.4007 153.662 20.914C154.474 21.418 155.062 22.1367 155.426 23.07H153.508ZM161.872 30.098C160.967 30.098 160.131 29.888 159.366 29.468C158.61 29.0387 158.008 28.446 157.56 27.69C157.121 26.9247 156.902 26.066 156.902 25.114C156.902 24.162 157.121 23.308 157.56 22.552C158.008 21.796 158.61 21.208 159.366 20.788C160.131 20.3587 160.967 20.144 161.872 20.144C162.787 20.144 163.622 20.3587 164.378 20.788C165.143 21.208 165.745 21.796 166.184 22.552C166.623 23.308 166.842 24.162 166.842 25.114C166.842 26.066 166.623 26.9247 166.184 27.69C165.745 28.446 165.143 29.0387 164.378 29.468C163.622 29.888 162.787 30.098 161.872 30.098ZM161.872 28.712C162.516 28.712 163.09 28.5673 163.594 28.278C164.098 27.9793 164.49 27.5593 164.77 27.018C165.059 26.4673 165.204 25.8327 165.204 25.114C165.204 24.3953 165.059 23.7653 164.77 23.224C164.49 22.6827 164.098 22.2673 163.594 21.978C163.09 21.6887 162.516 21.544 161.872 21.544C161.228 21.544 160.654 21.6887 160.15 21.978C159.646 22.2673 159.249 22.6827 158.96 23.224C158.68 23.7653 158.54 24.3953 158.54 25.114C158.54 25.8327 158.68 26.4673 158.96 27.018C159.249 27.5593 159.646 27.9793 160.15 28.278C160.654 28.5673 161.228 28.712 161.872 28.712ZM172.991 30.098C172.085 30.098 171.25 29.888 170.485 29.468C169.729 29.0387 169.127 28.446 168.679 27.69C168.24 26.9247 168.021 26.066 168.021 25.114C168.021 24.162 168.24 23.308 168.679 22.552C169.127 21.796 169.729 21.208 170.485 20.788C171.25 20.3587 172.085 20.144 172.991 20.144C173.905 20.144 174.741 20.3587 175.497 20.788C176.262 21.208 176.864 21.796 177.303 22.552C177.741 23.308 177.961 24.162 177.961 25.114C177.961 26.066 177.741 26.9247 177.303 27.69C176.864 28.446 176.262 29.0387 175.497 29.468C174.741 29.888 173.905 30.098 172.991 30.098ZM172.991 28.712C173.635 28.712 174.209 28.5673 174.713 28.278C175.217 27.9793 175.609 27.5593 175.889 27.018C176.178 26.4673 176.323 25.8327 176.323 25.114C176.323 24.3953 176.178 23.7653 175.889 23.224C175.609 22.6827 175.217 22.2673 174.713 21.978C174.209 21.6887 173.635 21.544 172.991 21.544C172.347 21.544 171.773 21.6887 171.269 21.978C170.765 22.2673 170.368 22.6827 170.079 23.224C169.799 23.7653 169.659 24.3953 169.659 25.114C169.659 25.8327 169.799 26.4673 170.079 27.018C170.368 27.5593 170.765 27.9793 171.269 28.278C171.773 28.5673 172.347 28.712 172.991 28.712ZM186.713 23.07C186.461 22.5847 186.111 22.2207 185.663 21.978C185.215 21.726 184.697 21.6 184.109 21.6C183.465 21.6 182.891 21.7447 182.387 22.034C181.883 22.3233 181.486 22.734 181.197 23.266C180.917 23.798 180.777 24.414 180.777 25.114C180.777 25.814 180.917 26.4347 181.197 26.976C181.486 27.508 181.883 27.9187 182.387 28.208C182.891 28.4973 183.465 28.642 184.109 28.642C184.977 28.642 185.682 28.3993 186.223 27.914C186.764 27.4287 187.096 26.7707 187.217 25.94H183.563V24.666H188.925V25.912C188.822 26.668 188.552 27.3633 188.113 27.998C187.684 28.6327 187.119 29.1413 186.419 29.524C185.728 29.8973 184.958 30.084 184.109 30.084C183.194 30.084 182.359 29.874 181.603 29.454C180.847 29.0247 180.245 28.432 179.797 27.676C179.358 26.92 179.139 26.066 179.139 25.114C179.139 24.162 179.358 23.308 179.797 22.552C180.245 21.796 180.847 21.208 181.603 20.788C182.368 20.3587 183.204 20.144 184.109 20.144C185.145 20.144 186.064 20.4007 186.867 20.914C187.679 21.418 188.267 22.1367 188.631 23.07H186.713ZM192.235 28.712H195.525V30H190.639V20.27H192.235V28.712ZM198.596 21.558V24.414H201.956V25.716H198.596V28.698H202.376V30H197V20.256H202.376V21.558H198.596Z" fill="#757575"/>
<rect x="2.5" y="1.5" width="220.738" height="48" rx="7.5" stroke="#BDBDBD" shape-rendering="crispEdges"/>
</g>
<defs>
<filter id="filter0_d_948_9998" x="0" y="0" width="225.738" height="53" filterUnits="userSpaceOnUse" color-interpolation-filters="sRGB">
<feFlood flood-opacity="0" result="BackgroundImageFix"/>
<feColorMatrix in="SourceAlpha" type="matrix" values="0 0 0 0 0 0 0 0 0 0 0 0 0 0 0 0 0 0 127 0" result="hardAlpha"/>
<feOffset dy="1"/>
<feGaussianBlur stdDeviation="1"/>
<feComposite in2="hardAlpha" operator="out"/>
<feColorMatrix type="matrix" values="0 0 0 0 0 0 0 0 0 0 0 0 0 0 0 0 0 0 0.2 0"/>
<feBlend mode="normal" in2="BackgroundImageFix" result="effect1_dropShadow_948_9998"/>
<feBlend mode="normal" in="SourceGraphic" in2="effect1_dropShadow_948_9998" result="shape"/>
</filter>
<clipPath id="clip0_948_9998">
<rect width="15.7377" height="16" fill="white" transform="translate(22 17.5)"/>
</clipPath>
</defs>
</svg>
