<svg width="22" height="22" viewBox="0 0 22 22" fill="none" xmlns="http://www.w3.org/2000/svg">
<path d="M2.75 5.5H4.58333H19.25" stroke="#91969E" stroke-width="2" stroke-linecap="round" stroke-linejoin="round"/>
<path d="M7.33337 5.50004V3.66671C7.33337 3.18048 7.52653 2.71416 7.87035 2.37034C8.21416 2.02653 8.68048 1.83337 9.16671 1.83337H12.8334C13.3196 1.83337 13.7859 2.02653 14.1297 2.37034C14.4736 2.71416 14.6667 3.18048 14.6667 3.66671V5.50004M17.4167 5.50004V18.3334C17.4167 18.8196 17.2236 19.2859 16.8797 19.6297C16.5359 19.9736 16.0696 20.1667 15.5834 20.1667H6.41671C5.93048 20.1667 5.46416 19.9736 5.12034 19.6297C4.77653 19.2859 4.58337 18.8196 4.58337 18.3334V5.50004H17.4167Z" stroke="#91969E" stroke-width="2" stroke-linecap="round" stroke-linejoin="round"/>
</svg>
