<svg width="200" height="60" viewBox="0 0 200 60" fill="none" xmlns="http://www.w3.org/2000/svg">
<g filter="url(#filter0_i_948_14600)">
<path d="M33.0807 1.40343C11.382 2.58072 0 14.8722 0 27.2757C0 42.3142 1.57597 53.9049 15.9202 58.6981C27.0103 62.4122 55.7134 56.8201 90.3409 56.9742C136.861 57.1704 168.191 59.469 177.661 59.9735C204.73 61.375 210.727 6.71524 175.764 2.67883C144.376 -0.881067 67.8104 -0.446592 33.0807 1.40343Z" fill="url(#paint0_linear_948_14600)"/>
</g>
<path d="M58.475 24.28C58.2977 23.9533 58.041 23.706 57.705 23.538C57.3783 23.3607 56.991 23.272 56.543 23.272C55.7683 23.272 55.1477 23.5287 54.681 24.042C54.2143 24.546 53.981 25.2227 53.981 26.072C53.981 26.9773 54.2237 27.6867 54.709 28.2C55.2037 28.704 55.8803 28.956 56.739 28.956C57.327 28.956 57.8217 28.8067 58.223 28.508C58.6337 28.2093 58.9323 27.78 59.119 27.22H56.081V25.456H61.289V27.682C61.1117 28.2793 60.8083 28.8347 60.379 29.348C59.959 29.8613 59.4223 30.2767 58.769 30.594C58.1157 30.9113 57.3783 31.07 56.557 31.07C55.5863 31.07 54.7183 30.86 53.953 30.44C53.197 30.0107 52.6043 29.418 52.175 28.662C51.755 27.906 51.545 27.0427 51.545 26.072C51.545 25.1013 51.755 24.238 52.175 23.482C52.6043 22.7167 53.197 22.124 53.953 21.704C54.709 21.2747 55.5723 21.06 56.543 21.06C57.719 21.06 58.7083 21.3447 59.511 21.914C60.323 22.4833 60.8597 23.272 61.121 24.28H58.475ZM65.7091 23.09V25.078H68.9151V26.926H65.7091V29.082H69.3351V31H63.3151V21.172H69.3351V23.09H65.7091ZM78.6593 21.172V23.09H76.0553V31H73.6613V23.09H71.0573V21.172H78.6593ZM87.7836 31.098C87.0649 31.098 86.4209 30.9813 85.8516 30.748C85.2822 30.5147 84.8249 30.1693 84.4796 29.712C84.1436 29.2547 83.9662 28.704 83.9476 28.06H86.4956C86.5329 28.424 86.6589 28.704 86.8736 28.9C87.0882 29.0867 87.3682 29.18 87.7136 29.18C88.0682 29.18 88.3482 29.1007 88.5536 28.942C88.7589 28.774 88.8616 28.5453 88.8616 28.256C88.8616 28.0133 88.7776 27.8127 88.6096 27.654C88.4509 27.4953 88.2502 27.3647 88.0076 27.262C87.7742 27.1593 87.4382 27.0427 86.9996 26.912C86.3649 26.716 85.8469 26.52 85.4456 26.324C85.0442 26.128 84.6989 25.8387 84.4096 25.456C84.1202 25.0733 83.9756 24.574 83.9756 23.958C83.9756 23.0433 84.3069 22.3293 84.9696 21.816C85.6322 21.2933 86.4956 21.032 87.5596 21.032C88.6422 21.032 89.5149 21.2933 90.1776 21.816C90.8402 22.3293 91.1949 23.048 91.2416 23.972H88.6516C88.6329 23.6547 88.5162 23.4073 88.3016 23.23C88.0869 23.0433 87.8116 22.95 87.4756 22.95C87.1862 22.95 86.9529 23.0293 86.7756 23.188C86.5982 23.3373 86.5096 23.5567 86.5096 23.846C86.5096 24.1633 86.6589 24.4107 86.9576 24.588C87.2562 24.7653 87.7229 24.9567 88.3576 25.162C88.9922 25.3767 89.5056 25.582 89.8976 25.778C90.2989 25.974 90.6442 26.2587 90.9336 26.632C91.2229 27.0053 91.3676 27.486 91.3676 28.074C91.3676 28.634 91.2229 29.1427 90.9336 29.6C90.6536 30.0573 90.2429 30.4213 89.7016 30.692C89.1602 30.9627 88.5209 31.098 87.7836 31.098ZM100.611 21.172V23.09H98.0069V31H95.6129V23.09H93.0089V21.172H100.611ZM108.63 29.264H104.962L104.374 31H101.868L105.424 21.172H108.196L111.752 31H109.218L108.63 29.264ZM108.014 27.416L106.796 23.818L105.592 27.416H108.014ZM118.547 31L116.503 27.29H115.929V31H113.535V21.172H117.553C118.327 21.172 118.985 21.3073 119.527 21.578C120.077 21.8487 120.488 22.222 120.759 22.698C121.029 23.1647 121.165 23.6873 121.165 24.266C121.165 24.9193 120.978 25.5027 120.605 26.016C120.241 26.5293 119.699 26.8933 118.981 27.108L121.249 31H118.547ZM115.929 25.596H117.413C117.851 25.596 118.178 25.4887 118.393 25.274C118.617 25.0593 118.729 24.756 118.729 24.364C118.729 23.9907 118.617 23.6967 118.393 23.482C118.178 23.2673 117.851 23.16 117.413 23.16H115.929V25.596ZM130.437 21.172V23.09H127.833V31H125.439V23.09H122.835V21.172H130.437ZM134.733 23.09V25.078H137.939V26.926H134.733V29.082H138.359V31H132.339V21.172H138.359V23.09H134.733ZM144.295 21.172C145.331 21.172 146.236 21.3773 147.011 21.788C147.786 22.1987 148.383 22.7773 148.803 23.524C149.232 24.2613 149.447 25.1153 149.447 26.086C149.447 27.0473 149.232 27.9013 148.803 28.648C148.383 29.3947 147.781 29.9733 146.997 30.384C146.222 30.7947 145.322 31 144.295 31H140.613V21.172H144.295ZM144.141 28.928C145.046 28.928 145.751 28.6807 146.255 28.186C146.759 27.6913 147.011 26.9913 147.011 26.086C147.011 25.1807 146.759 24.476 146.255 23.972C145.751 23.468 145.046 23.216 144.141 23.216H143.007V28.928H144.141Z" fill="white"/>
<defs>
<filter id="filter0_i_948_14600" x="0" y="0" width="200" height="60" filterUnits="userSpaceOnUse" color-interpolation-filters="sRGB">
<feFlood flood-opacity="0" result="BackgroundImageFix"/>
<feBlend mode="normal" in="SourceGraphic" in2="BackgroundImageFix" result="shape"/>
<feColorMatrix in="SourceAlpha" type="matrix" values="0 0 0 0 0 0 0 0 0 0 0 0 0 0 0 0 0 0 127 0" result="hardAlpha"/>
<feOffset dx="4" dy="-5"/>
<feComposite in2="hardAlpha" operator="arithmetic" k2="-1" k3="1"/>
<feColorMatrix type="matrix" values="0 0 0 0 1 0 0 0 0 0.801587 0 0 0 0 0.75 0 0 0 0.68 0"/>
<feBlend mode="normal" in2="shape" result="effect1_innerShadow_948_14600"/>
</filter>
<linearGradient id="paint0_linear_948_14600" x1="100" y1="-4.91738e-06" x2="97.9969" y2="59.9331" gradientUnits="userSpaceOnUse">
<stop stop-color="#CB4080"/>
<stop offset="0.275066" stop-color="#C93D7D"/>
<stop offset="0.560069" stop-color="#BD3172"/>
<stop offset="1" stop-color="#AD1E60"/>
</linearGradient>
</defs>
</svg>
