<svg width="16" height="17" viewBox="0 0 16 17" fill="none" xmlns="http://www.w3.org/2000/svg">
<g clip-path="url(#clip0_948_9803)">
<path d="M15.7376 8.68372C15.7376 8.13991 15.6934 7.59315 15.599 7.05815H8.02661V10.1388H12.363C12.183 11.1324 11.6048 12.0113 10.7582 12.5698V14.5687H13.3453C14.8645 13.1754 15.7376 11.1177 15.7376 8.68372Z" fill="#4285F4"/>
<path d="M8.02669 16.5C10.1919 16.5 12.0179 15.7916 13.3483 14.5687L10.7612 12.5698C10.0415 13.0578 9.11225 13.3341 8.02964 13.3341C5.93521 13.3341 4.15937 11.926 3.5222 10.033H0.852539V12.0936C2.21539 14.7951 4.99125 16.5 8.02669 16.5Z" fill="#34A853"/>
<path d="M3.51924 10.033C3.18295 9.03941 3.18295 7.96353 3.51924 6.96996V4.90933H0.852531C-0.28613 7.16985 -0.28613 9.83309 0.852531 12.0936L3.51924 10.033Z" fill="#FBBC04"/>
<path d="M8.02669 3.66591C9.17125 3.64827 10.2775 4.07744 11.1064 4.86524L13.3985 2.58121C11.9471 1.22314 10.0208 0.476489 8.02669 0.500005C4.99125 0.500005 2.21539 2.20495 0.852539 4.90934L3.51925 6.96997C4.15347 5.07395 5.93226 3.66591 8.02669 3.66591Z" fill="#EA4335"/>
</g>
<defs>
<clipPath id="clip0_948_9803">
<rect width="15.7377" height="16" fill="white" transform="translate(0 0.5)"/>
</clipPath>
</defs>
</svg>
