<svg width="120" height="103" viewBox="0 0 120 103" fill="none" xmlns="http://www.w3.org/2000/svg">
<g clip-path="url(#clip0_948_11398)">
<path fill-rule="evenodd" clip-rule="evenodd" d="M1.00002 55.285C1.00002 59.855 4.95802 63.562 9.84002 63.562C14.721 63.562 18.679 59.856 18.679 55.285C18.679 50.714 14.721 47.008 9.83902 47.008C4.95802 47.008 0.999023 50.714 0.999023 55.285" fill="white"/>
<path fill-rule="evenodd" clip-rule="evenodd" d="M1.00002 55.285C1.00002 59.855 4.95802 63.562 9.84002 63.562C14.721 63.562 18.679 59.856 18.679 55.285C18.679 50.714 14.721 47.008 9.83902 47.008C4.95802 47.008 0.999023 50.714 0.999023 55.285H1.00002Z" stroke="#4C4C4C" stroke-width="2" stroke-linejoin="round"/>
<path fill-rule="evenodd" clip-rule="evenodd" d="M47.282 101.106C26.689 101.106 9.83997 84.254 9.83997 63.658V39.101C9.83997 18.505 26.689 1.65399 47.282 1.65399C67.875 1.65399 84.724 18.505 84.724 39.101V63.658C84.724 84.254 67.875 101.106 47.282 101.106Z" fill="white"/>
<path fill-rule="evenodd" clip-rule="evenodd" d="M47.282 101.106C26.689 101.106 9.83997 84.254 9.83997 63.658V39.101C9.83997 18.505 26.689 1.65399 47.282 1.65399C67.875 1.65399 84.724 18.505 84.724 39.101V63.658C84.724 84.254 67.875 101.106 47.282 101.106V101.106Z" stroke="#4C4C4C" stroke-width="2" stroke-linejoin="round"/>
<path fill-rule="evenodd" clip-rule="evenodd" d="M75.26 66.336C75.26 77.215 66.444 86.034 55.565 86.034C44.688 86.034 35.87 77.214 35.87 66.336H75.26Z" fill="#DDDDDD"/>
<path fill-rule="evenodd" clip-rule="evenodd" d="M75.26 66.336C75.26 77.215 66.444 86.034 55.565 86.034C44.688 86.034 35.87 77.214 35.87 66.336H75.26Z" stroke="#4C4C4C" stroke-width="2" stroke-linejoin="round"/>
<path fill-rule="evenodd" clip-rule="evenodd" d="M36.923 72.686H74.209C74.9062 70.6415 75.2617 68.4961 75.261 66.336H35.87C35.87 68.558 36.243 70.694 36.922 72.686" fill="white"/>
<path fill-rule="evenodd" clip-rule="evenodd" d="M36.923 72.686H74.209C74.9062 70.6415 75.2617 68.4961 75.261 66.336H35.87C35.87 68.558 36.243 70.694 36.922 72.686H36.923Z" stroke="#4C4C4C" stroke-width="2" stroke-linejoin="round"/>
<path fill-rule="evenodd" clip-rule="evenodd" d="M43.312 46.264C43.312 47.4352 42.8467 48.5584 42.0186 49.3866C41.1904 50.2147 40.0672 50.68 38.896 50.68C37.7248 50.68 36.6016 50.2147 35.7734 49.3866C34.9452 48.5584 34.48 47.4352 34.48 46.264C34.48 45.0928 34.9452 43.9695 35.7734 43.1414C36.6016 42.3132 37.7248 41.848 38.896 41.848C40.0672 41.848 41.1904 42.3132 42.0186 43.1414C42.8467 43.9695 43.312 45.0928 43.312 46.264ZM79.465 46.264C79.465 46.844 79.3507 47.4183 79.1288 47.9541C78.9068 48.4899 78.5815 48.9768 78.1714 49.3869C77.7613 49.797 77.2744 50.1223 76.7386 50.3443C76.2028 50.5662 75.6285 50.6805 75.0485 50.6805C74.4685 50.6805 73.8942 50.5662 73.3584 50.3443C72.8225 50.1223 72.3357 49.797 71.9255 49.3869C71.5154 48.9768 71.1901 48.4899 70.9682 47.9541C70.7462 47.4183 70.632 46.844 70.632 46.264C70.632 45.0926 71.0973 43.9693 71.9255 43.141C72.7538 42.3128 73.8772 41.8475 75.0485 41.8475C76.2198 41.8475 77.3432 42.3128 78.1714 43.141C78.9997 43.9693 79.465 45.0926 79.465 46.264Z" fill="#4C4C4C"/>
<path fill-rule="evenodd" clip-rule="evenodd" d="M64.333 53.41V55.987C64.333 57.171 63.373 58.132 62.188 58.132H54.614C54.0453 58.1317 53.4999 57.9056 53.0979 57.5034C52.6958 57.1011 52.47 56.5557 52.47 55.987V53.41" fill="white"/>
<path d="M64.333 53.41V55.987C64.333 57.171 63.373 58.132 62.188 58.132H54.614C54.0453 58.1317 53.4999 57.9056 53.0979 57.5034C52.6958 57.1011 52.47 56.5557 52.47 55.987V53.41" stroke="#4C4C4C" stroke-width="2" stroke-linejoin="round"/>
<path fill-rule="evenodd" clip-rule="evenodd" d="M66.9941 1.06H35.8991C29.9651 1.06 24.6561 4.19 21.0471 9.12C19.3111 6.799 16.5491 5.29 13.4271 5.29C8.16707 5.29 3.90607 9.553 3.90607 14.812V18.162C3.90507 18.186 3.89807 18.207 3.89807 18.232V49.175C5.08326 48.1636 6.51209 47.4793 8.04307 47.19H8.08307C16.2931 47.19 22.9491 40.533 22.9491 32.322V24.429H78.8941C89.7671 24.429 98.5821 13.967 98.5821 1.06H66.9941Z" fill="#DDDDDD"/>
<path fill-rule="evenodd" clip-rule="evenodd" d="M66.9941 1.06H35.8991C29.9651 1.06 24.6561 4.19 21.0471 9.12C19.3111 6.799 16.5491 5.29 13.4271 5.29C8.16707 5.29 3.90607 9.553 3.90607 14.812V18.162C3.90507 18.186 3.89807 18.207 3.89807 18.232V49.175C5.08326 48.1636 6.51209 47.4793 8.04307 47.19H8.08307C16.2931 47.19 22.9491 40.533 22.9491 32.322V24.429H78.8941C89.7671 24.429 98.5821 13.967 98.5821 1.06H66.9941V1.06Z" stroke="#4C4C4C" stroke-width="2" stroke-linejoin="round"/>
<path d="M97.8461 89.436C109.109 89.436 118.241 80.304 118.241 69.039C118.241 57.773 109.109 48.642 97.8461 48.642M97.8461 77.322C98.9415 77.334 100.029 77.1286 101.044 76.7178C102.06 76.3069 102.984 75.6986 103.762 74.9282C104.541 74.1578 105.16 73.2406 105.582 72.2296C106.004 71.2186 106.221 70.134 106.221 69.0385C106.221 67.9429 106.004 66.8583 105.582 65.8473C105.16 64.8363 104.541 63.9191 103.762 63.1487C102.984 62.3783 102.06 61.7701 101.044 61.3592C100.029 60.9483 98.9415 60.7429 97.8461 60.755V77.322Z" stroke="#3A10E5" stroke-width="2" stroke-linecap="round" stroke-linejoin="round"/>
</g>
<defs>
<clipPath id="clip0_948_11398">
<rect width="120" height="103" fill="white"/>
</clipPath>
</defs>
</svg>
