<svg width="30" height="30" viewBox="0 0 30 30" fill="none" xmlns="http://www.w3.org/2000/svg">
<circle cx="15" cy="15" r="15" fill="url(#paint0_linear_948_15311)"/>
<circle cx="15" cy="15" r="15" fill="url(#paint1_radial_948_15311)"/>
<path d="M15.0016 11.4387C13.031 11.4387 11.4415 13.0286 11.4415 14.9996C11.4415 16.9707 13.031 18.5606 15.0016 18.5606C16.9722 18.5606 18.5617 16.9707 18.5617 14.9996C18.5617 13.0286 16.9722 11.4387 15.0016 11.4387ZM15.0016 17.3147C13.7281 17.3147 12.687 16.2765 12.687 14.9996C12.687 13.7228 13.725 12.6845 15.0016 12.6845C16.2782 12.6845 17.3162 13.7228 17.3162 14.9996C17.3162 16.2765 16.2751 17.3147 15.0016 17.3147ZM19.5378 11.293C19.5378 11.7548 19.1659 12.1236 18.7074 12.1236C18.2457 12.1236 17.877 11.7517 17.877 11.293C17.877 10.8343 18.2488 10.4624 18.7074 10.4624C19.1659 10.4624 19.5378 10.8343 19.5378 11.293ZM21.8957 12.136C21.843 11.0234 21.5889 10.0379 20.774 9.22588C19.9622 8.4139 18.9769 8.15977 17.8646 8.10399C16.7182 8.03891 13.2819 8.03891 12.1355 8.10399C11.0263 8.15667 10.0409 8.4108 9.22605 9.22278C8.41115 10.0348 8.16018 11.0203 8.1044 12.1329C8.03934 13.2796 8.03934 16.7166 8.1044 17.8632C8.15708 18.9758 8.41115 19.9614 9.22605 20.7734C10.0409 21.5853 11.0232 21.8395 12.1355 21.8953C13.2819 21.9603 16.7182 21.9603 17.8646 21.8953C18.9769 21.8426 19.9622 21.5884 20.774 20.7734C21.5858 19.9614 21.8399 18.9758 21.8957 17.8632C21.9608 16.7166 21.9608 13.2827 21.8957 12.136ZM20.4146 19.0936C20.1729 19.701 19.7051 20.169 19.0947 20.4139C18.1806 20.7765 16.0117 20.6928 15.0016 20.6928C13.9915 20.6928 11.8195 20.7734 10.9085 20.4139C10.3012 20.1721 9.83335 19.7041 9.58857 19.0936C9.22605 18.1794 9.30971 16.0099 9.30971 14.9996C9.30971 13.9893 9.22915 11.8168 9.58857 10.9056C9.83025 10.2982 10.2981 9.83022 10.9085 9.58539C11.8226 9.22278 13.9915 9.30646 15.0016 9.30646C16.0117 9.30646 18.1837 9.22588 19.0947 9.58539C19.702 9.82712 20.1698 10.2951 20.4146 10.9056C20.7771 11.8199 20.6935 13.9893 20.6935 14.9996C20.6935 16.0099 20.7771 18.1825 20.4146 19.0936Z" fill="white"/>
<defs>
<linearGradient id="paint0_linear_948_15311" x1="8.5" y1="8.39432e-08" x2="15" y2="30" gradientUnits="userSpaceOnUse">
<stop stop-color="#3350F3"/>
<stop offset="0.552532" stop-color="#D41EB0"/>
<stop offset="1" stop-color="#F8214E"/>
</linearGradient>
<radialGradient id="paint1_radial_948_15311" cx="0" cy="0" r="1" gradientUnits="userSpaceOnUse" gradientTransform="translate(6 27) rotate(-31.6075) scale(22.8965)">
<stop stop-color="#FFD43D"/>
<stop offset="1" stop-color="#F75F2B" stop-opacity="0.12"/>
</radialGradient>
</defs>
</svg>
