<svg width="86" height="60" viewBox="0 0 86 60" fill="none" xmlns="http://www.w3.org/2000/svg">
<path d="M2.2325 34.6349C3.45846 40.6261 7.48813 44.1654 13.0209 45.8178C16.7278 46.8896 20.5507 47.5089 24.4064 47.6621C30.8027 47.9606 37.199 47.7473 43.5953 47.7473V48.0139C49.7251 47.79 55.8656 47.4808 61.9954 47.4169C63.5286 47.3924 65.0347 47.8227 66.3236 48.6535C68.3413 50.1973 70.2406 51.8899 72.0056 53.7172C73.2849 54.9325 74.4149 56.3077 75.7261 57.4911C76.1099 57.8429 76.8562 57.7789 77.4425 57.9068C77.4425 57.3205 77.6557 56.6382 77.4425 56.1798C76.6856 54.6874 75.7262 53.2908 74.916 51.8197C74.3162 50.7538 73.8028 49.6415 73.3808 48.4936C72.6346 46.4254 72.9864 45.5939 74.8626 44.3893C76.3871 43.3978 77.9116 42.4064 79.4573 41.4576C79.8088 41.2477 80.1471 41.0163 80.4701 40.7647C81.4933 39.9573 82.323 38.9314 82.8985 37.762C83.474 36.5925 83.7807 35.3092 83.7962 34.0059C84.0414 27.6096 84.2972 21.2133 83.2631 14.817C82.6129 10.8619 80.2036 8.12218 77.0374 5.93677C73.5033 3.55897 69.3755 2.21505 65.1189 2.05634C60.407 1.76851 55.695 1.58728 50.9724 1.5553C49.2347 1.5553 47.5077 1.5553 45.7701 1.5553C37.4122 1.68322 29.0544 2.04568 20.7178 2.62135C17.1234 2.93633 13.5591 3.53157 10.0573 4.40166C7.90805 4.77462 5.94446 5.85346 4.4771 7.46756C3.00974 9.08165 2.12237 11.1389 1.95532 13.3139C0.833576 20.3848 0.927317 27.5955 2.2325 34.6349Z" fill="white"/>
<path d="M41.1647 49.2186C49.6931 48.8881 55.3432 48.7282 61.0146 48.4298C62.1033 48.3167 63.2035 48.4349 64.2433 48.7766C65.2831 49.1183 66.2391 49.6758 67.0485 50.4126C68.7755 52.0117 70.3959 53.7387 72.0696 55.3911C73.1996 56.5104 74.2976 57.6618 75.5342 58.6638C75.8969 58.9883 76.3633 59.1729 76.8497 59.1847C77.3362 59.1964 77.8109 59.0344 78.1887 58.7278C78.573 58.4243 78.8298 57.988 78.9087 57.5047C78.9876 57.0213 78.8829 56.526 78.6151 56.116C77.8156 54.4956 76.8242 52.9178 75.95 51.3721C75.3866 50.3857 74.888 49.3637 74.4575 48.3125C73.8179 46.6388 73.9991 46.1804 75.5236 45.2742C77.048 44.3681 78.4232 43.4086 79.8944 42.5025C81.4242 41.6268 82.6965 40.3639 83.5835 38.8406C84.4705 37.3174 84.9409 35.5875 84.9475 33.8248C85.3171 27.6533 85.1531 21.4614 84.4571 15.3182C83.8388 10.7981 81.1523 7.7492 77.6344 5.25464C73.4026 2.41784 68.4226 0.903813 63.3279 0.90514C55.066 0.627966 46.7828 0.606644 38.5209 0.787873C31.485 0.937121 24.449 1.45949 17.4237 1.98185C14.9848 2.24635 12.5688 2.69176 10.1959 3.31442C4.86563 4.52972 1.66747 7.81316 0.899913 13.3673C-0.157648 20.3467 -0.100079 27.4498 1.07048 34.4112C2.23247 40.8075 6.25149 44.6772 12.0721 46.6494C15.438 47.746 18.9318 48.4017 22.4661 48.6003C29.6087 49.0481 36.7939 49.0907 41.1647 49.2186ZM43.6273 48.0033V47.7368C37.231 47.7368 30.8347 47.95 24.4383 47.6622C20.5824 47.5041 16.7596 46.8813 13.0529 45.8073C7.5201 44.1655 3.45844 40.6262 2.26446 34.635C0.948672 27.5974 0.844117 20.3868 1.9553 13.314C2.12038 11.1304 3.01226 9.06508 4.48855 7.44772C5.96485 5.83037 7.94044 4.75423 10.0999 4.39113C13.5861 3.542 17.1322 2.96108 20.7072 2.65347C29.0437 2.12044 37.4122 1.74732 45.7701 1.58741C52.1664 1.49147 58.6693 1.69401 65.1082 2.06713C69.3681 2.22612 73.4992 3.56993 77.0374 5.94756C80.2355 8.14363 82.6128 10.8834 83.2525 14.8278C84.3185 21.2241 84.0307 27.6204 83.7855 34.0167C83.7689 35.5295 83.3605 37.0121 82.6 38.32C81.8396 39.6279 80.7532 40.7163 79.4467 41.4791C77.9009 42.4279 76.3764 43.4193 74.852 44.4001C72.9757 45.6154 72.6346 46.4469 73.3702 48.5044C73.7987 49.6549 74.3229 50.7675 74.9373 51.8305C75.7475 53.3016 76.6962 54.6875 77.4638 56.1906C77.6877 56.649 77.4638 57.3313 77.4638 57.9176C76.8775 57.7897 76.1312 57.843 75.7475 57.5019C74.4469 56.3185 73.3062 54.9433 72.0269 53.7174C70.2618 51.8935 68.3624 50.2044 66.3449 48.6643C65.0548 47.835 63.5502 47.4014 62.0167 47.417C55.8976 47.481 49.7677 47.7901 43.6273 48.0033Z" fill="#3A0D1F"/>
<path d="M20.7418 28.9656V16.856H22.2082V27.6647H27.8373V28.9656H20.7418ZM33.7265 29.1548C32.8514 29.1548 32.0965 28.9616 31.4619 28.5753C30.8312 28.1851 30.3443 27.6411 30.0014 26.9434C29.6624 26.2417 29.4929 25.4257 29.4929 24.4954C29.4929 23.5651 29.6624 22.7452 30.0014 22.0357C30.3443 21.3222 30.8213 20.7664 31.4323 20.3682C32.0473 19.9661 32.7647 19.7651 33.5846 19.7651C34.0576 19.7651 34.5248 19.8439 34.986 20.0016C35.4472 20.1593 35.867 20.4155 36.2454 20.7703C36.6238 21.1211 36.9254 21.5863 37.1501 22.1657C37.3748 22.7452 37.4871 23.4587 37.4871 24.3062V24.8975H30.4862V23.6913H36.068C36.068 23.1788 35.9655 22.7216 35.7606 22.3195C35.5595 21.9174 35.2718 21.6001 34.8973 21.3675C34.5267 21.1349 34.0892 21.0186 33.5846 21.0186C33.0288 21.0186 32.5479 21.1566 32.1419 21.4325C31.7398 21.7045 31.4303 22.0593 31.2135 22.4969C30.9967 22.9344 30.8883 23.4035 30.8883 23.9041V24.7083C30.8883 25.3942 31.0066 25.9756 31.2431 26.4526C31.4836 26.9256 31.8167 27.2863 32.2424 27.5347C32.6681 27.7791 33.1628 27.9013 33.7265 27.9013C34.0931 27.9013 34.4242 27.85 34.7199 27.7475C35.0195 27.6411 35.2777 27.4834 35.4945 27.2745C35.7113 27.0616 35.8788 26.7975 35.9971 26.4822L37.3452 26.8606C37.2033 27.3178 36.9648 27.7199 36.6298 28.0668C36.2947 28.4098 35.8808 28.6778 35.388 28.871C34.8953 29.0602 34.3415 29.1548 33.7265 29.1548ZM42.2825 29.1784C41.707 29.1784 41.1847 29.07 40.7156 28.8532C40.2465 28.6325 39.874 28.3152 39.598 27.9013C39.3221 27.4834 39.1841 26.9788 39.1841 26.3876C39.1841 25.8672 39.2866 25.4454 39.4916 25.1222C39.6966 24.795 39.9705 24.5388 40.3135 24.3535C40.6564 24.1682 41.0349 24.0303 41.4488 23.9396C41.8666 23.845 42.2864 23.7701 42.7082 23.7149C43.2601 23.644 43.7075 23.5908 44.0504 23.5553C44.3973 23.5159 44.6496 23.4508 44.8073 23.3601C44.9689 23.2695 45.0497 23.1118 45.0497 22.8871V22.8398C45.0497 22.2564 44.8901 21.8031 44.5708 21.4798C44.2554 21.1566 43.7765 20.995 43.1339 20.995C42.4678 20.995 41.9454 21.1408 41.567 21.4325C41.1886 21.7242 40.9225 22.0357 40.7688 22.3668L39.4443 21.8937C39.6808 21.3419 39.9962 20.9122 40.3904 20.6047C40.7885 20.2933 41.2221 20.0765 41.6912 19.9543C42.1642 19.8282 42.6294 19.7651 43.0866 19.7651C43.3783 19.7651 43.7134 19.8006 44.0918 19.8715C44.4742 19.9385 44.8428 20.0785 45.1975 20.2914C45.5563 20.5042 45.8539 20.8255 46.0904 21.2552C46.3269 21.6848 46.4452 22.2603 46.4452 22.9817V28.9656H45.0497V27.7357H44.9788C44.8842 27.9328 44.7265 28.1437 44.5057 28.3684C44.285 28.5931 43.9913 28.7842 43.6247 28.9419C43.2581 29.0996 42.8107 29.1784 42.2825 29.1784ZM42.4953 27.9249C43.0472 27.9249 43.5124 27.8165 43.8908 27.5997C44.2732 27.3829 44.5609 27.103 44.7541 26.7601C44.9512 26.4171 45.0497 26.0564 45.0497 25.678V24.4008C44.9906 24.4718 44.8605 24.5368 44.6595 24.5959C44.4624 24.6511 44.2337 24.7004 43.9736 24.7438C43.7173 24.7832 43.467 24.8187 43.2226 24.8502C42.9822 24.8778 42.787 24.9014 42.6373 24.9212C42.2746 24.9685 41.9356 25.0453 41.6202 25.1518C41.3088 25.2542 41.0565 25.41 40.8634 25.6189C40.6742 25.8239 40.5796 26.1037 40.5796 26.4585C40.5796 26.9434 40.7589 27.31 41.1176 27.5583C41.4803 27.8027 41.9395 27.9249 42.4953 27.9249ZM48.9921 28.9656V19.8834H50.3403V21.2552H50.4349C50.6005 20.8058 50.9 20.4411 51.3337 20.1613C51.7673 19.8814 52.2561 19.7415 52.8001 19.7415C52.9025 19.7415 53.0307 19.7434 53.1844 19.7474C53.3381 19.7513 53.4544 19.7572 53.5333 19.7651V21.1842C53.4859 21.1724 53.3775 21.1546 53.208 21.131C53.0425 21.1034 52.8671 21.0896 52.6818 21.0896C52.2403 21.0896 51.8461 21.1822 51.4992 21.3675C51.1563 21.5488 50.8843 21.8011 50.6832 22.1244C50.4861 22.4436 50.3876 22.8083 50.3876 23.2182V28.9656H48.9921ZM56.5828 23.5021V28.9656H55.1874V19.8834H56.5355V21.3025H56.6538C56.8666 20.8413 57.1899 20.4707 57.6235 20.1908C58.0571 19.907 58.6169 19.7651 59.3028 19.7651C59.9177 19.7651 60.4558 19.8912 60.917 20.1435C61.3782 20.3919 61.7369 20.7703 61.9931 21.2788C62.2494 21.7834 62.3775 22.422 62.3775 23.1946V28.9656H60.982V23.2892C60.982 22.5757 60.7968 22.0199 60.4262 21.6218C60.0557 21.2197 59.5472 21.0186 58.9007 21.0186C58.4552 21.0186 58.0571 21.1152 57.7063 21.3084C57.3594 21.5015 57.0854 21.7834 56.8844 22.1539C56.6833 22.5245 56.5828 22.9738 56.5828 23.5021Z" fill="#3A0D1F"/>
</svg>
