<svg width="155" height="42" viewBox="0 0 155 42" fill="none" xmlns="http://www.w3.org/2000/svg">
<rect x="1" y="1" width="153" height="40" rx="7" fill="#3A10E5"/>
<g clip-path="url(#clip0_934_5692)">
<path d="M35.0007 30.1666C40.0633 30.1666 44.1673 26.0625 44.1673 20.9999C44.1673 15.9373 40.0633 11.8333 35.0007 11.8333C29.938 11.8333 25.834 15.9373 25.834 20.9999C25.834 26.0625 29.938 30.1666 35.0007 30.1666Z" stroke="white" stroke-width="2" stroke-linecap="round" stroke-linejoin="round"/>
<path d="M33.166 17.3333L38.666 20.9999L33.166 24.6666V17.3333Z" stroke="white" stroke-width="2" stroke-linecap="round" stroke-linejoin="round"/>
</g>
<path d="M56.1079 24.584C55.8092 24.584 55.5619 24.486 55.3659 24.29C55.1699 24.0847 55.0719 23.8187 55.0719 23.492V15.89C55.0719 15.6193 55.1512 15.4 55.3099 15.232C55.4685 15.064 55.6879 14.98 55.9679 14.98H58.9079C59.4305 14.98 59.8972 15.0547 60.3079 15.204C60.7185 15.3533 61.0639 15.5633 61.3439 15.834C61.6332 16.1047 61.8525 16.4267 62.0019 16.8C62.1512 17.1733 62.2259 17.5887 62.2259 18.046C62.2259 18.494 62.1512 18.9047 62.0019 19.278C61.8525 19.6513 61.6332 19.9733 61.3439 20.244C61.0545 20.5147 60.7045 20.7247 60.2939 20.874C59.8832 21.0233 59.4212 21.098 58.9079 21.098H57.2139C57.1579 21.098 57.1299 21.126 57.1299 21.182V23.492C57.1299 23.8187 57.0319 24.0847 56.8359 24.29C56.6492 24.486 56.4065 24.584 56.1079 24.584ZM58.7819 19.32C59.2205 19.32 59.5612 19.208 59.8039 18.984C60.0465 18.7507 60.1679 18.438 60.1679 18.046C60.1679 17.654 60.0465 17.3413 59.8039 17.108C59.5612 16.8747 59.2205 16.758 58.7819 16.758H57.2139C57.1579 16.758 57.1299 16.786 57.1299 16.842V19.236C57.1299 19.292 57.1579 19.32 57.2139 19.32H58.7819ZM63.8284 15.988C63.8284 15.6613 63.9264 15.4 64.1224 15.204C64.3184 14.9987 64.5658 14.896 64.8644 14.896C65.1631 14.896 65.4058 14.9987 65.5924 15.204C65.7884 15.4 65.8864 15.6613 65.8864 15.988V22.582C65.8864 22.638 65.9144 22.666 65.9704 22.666H69.3584C69.6758 22.666 69.9278 22.75 70.1144 22.918C70.3011 23.086 70.3944 23.3053 70.3944 23.576C70.3944 23.8467 70.3011 24.0707 70.1144 24.248C69.9278 24.416 69.6758 24.5 69.3584 24.5H64.8644C64.5471 24.5 64.2951 24.4067 64.1084 24.22C63.9218 24.024 63.8284 23.772 63.8284 23.464V15.988ZM71.3577 23.618C71.3577 23.478 71.381 23.3473 71.4277 23.226L74.0037 16.1C74.1344 15.7173 74.3117 15.4233 74.5357 15.218C74.7597 15.0033 75.0537 14.896 75.4177 14.896C75.7817 14.896 76.0757 15.0033 76.2997 15.218C76.533 15.4233 76.715 15.7173 76.8457 16.1L79.3797 23.226C79.4264 23.3473 79.4497 23.478 79.4497 23.618C79.4497 23.9167 79.347 24.1547 79.1417 24.332C78.9457 24.5 78.717 24.584 78.4557 24.584C78.2317 24.584 78.031 24.5233 77.8537 24.402C77.6857 24.2713 77.5644 24.0893 77.4897 23.856L77.0977 22.694H73.6957L73.3177 23.856C73.243 24.0893 73.117 24.2713 72.9397 24.402C72.7717 24.5233 72.5757 24.584 72.3517 24.584C72.0904 24.584 71.857 24.5 71.6517 24.332C71.4557 24.1547 71.3577 23.9167 71.3577 23.618ZM76.5237 20.944L75.4317 17.612H75.3897L74.2837 20.944H76.5237ZM83.0674 24.584C82.7781 24.584 82.5354 24.486 82.3394 24.29C82.1434 24.094 82.0454 23.828 82.0454 23.492V20.72L79.6094 16.38C79.5067 16.1933 79.4554 16.0067 79.4554 15.82C79.4554 15.5493 79.5487 15.33 79.7354 15.162C79.9221 14.9847 80.1507 14.896 80.4214 14.896C80.8041 14.896 81.1074 15.1013 81.3314 15.512L83.0674 18.774H83.1094L84.8594 15.512C85.0741 15.1013 85.3774 14.896 85.7694 14.896C86.0401 14.896 86.2641 14.9847 86.4414 15.162C86.6187 15.33 86.7074 15.5493 86.7074 15.82C86.7074 16.0067 86.6561 16.1933 86.5534 16.38L84.1034 20.72V23.492C84.1034 23.828 84.0054 24.094 83.8094 24.29C83.6134 24.486 83.3661 24.584 83.0674 24.584ZM91.0239 23.618C91.0239 23.478 91.0472 23.3473 91.0939 23.226L93.6699 16.1C93.8005 15.7173 93.9779 15.4233 94.2019 15.218C94.4259 15.0033 94.7199 14.896 95.0839 14.896C95.4479 14.896 95.7419 15.0033 95.9659 15.218C96.1992 15.4233 96.3812 15.7173 96.5119 16.1L99.0459 23.226C99.0925 23.3473 99.1159 23.478 99.1159 23.618C99.1159 23.9167 99.0132 24.1547 98.8079 24.332C98.6119 24.5 98.3832 24.584 98.1219 24.584C97.8979 24.584 97.6972 24.5233 97.5199 24.402C97.3519 24.2713 97.2305 24.0893 97.1559 23.856L96.7639 22.694H93.3619L92.9839 23.856C92.9092 24.0893 92.7832 24.2713 92.6059 24.402C92.4379 24.5233 92.2419 24.584 92.0179 24.584C91.7565 24.584 91.5232 24.5 91.3179 24.332C91.1219 24.1547 91.0239 23.9167 91.0239 23.618ZM96.1899 20.944L95.0979 17.612H95.0559L93.9499 20.944H96.1899ZM104.032 24.654C103.472 24.654 102.968 24.5747 102.52 24.416C102.072 24.2573 101.689 24.024 101.372 23.716C101.055 23.408 100.807 23.0253 100.63 22.568C100.462 22.1107 100.378 21.5833 100.378 20.986V15.988C100.378 15.6613 100.476 15.4 100.672 15.204C100.868 14.9987 101.115 14.896 101.414 14.896C101.713 14.896 101.955 14.9987 102.142 15.204C102.338 15.4 102.436 15.6613 102.436 15.988V21.056C102.436 21.6347 102.585 22.078 102.884 22.386C103.192 22.6847 103.575 22.834 104.032 22.834C104.508 22.834 104.891 22.68 105.18 22.372C105.469 22.064 105.614 21.6253 105.614 21.056V15.988C105.614 15.6613 105.707 15.4 105.894 15.204C106.09 14.9987 106.337 14.896 106.636 14.896C106.935 14.896 107.182 14.9987 107.378 15.204C107.574 15.4 107.672 15.6613 107.672 15.988V20.986C107.672 21.5833 107.583 22.1107 107.406 22.568C107.229 23.0253 106.977 23.408 106.65 23.716C106.333 24.024 105.95 24.2573 105.502 24.416C105.054 24.5747 104.564 24.654 104.032 24.654ZM109.723 15.89C109.723 15.6193 109.803 15.4 109.961 15.232C110.12 15.064 110.339 14.98 110.619 14.98H112.873C113.891 14.98 114.712 15.1527 115.337 15.498C115.972 15.834 116.415 16.394 116.667 17.178C116.714 17.318 116.751 17.4673 116.779 17.626C116.817 17.7753 116.845 17.9527 116.863 18.158C116.891 18.354 116.91 18.5827 116.919 18.844C116.938 19.1053 116.947 19.404 116.947 19.74C116.947 20.076 116.938 20.3747 116.919 20.636C116.91 20.8973 116.891 21.1307 116.863 21.336C116.845 21.532 116.817 21.7093 116.779 21.868C116.751 22.0173 116.714 22.162 116.667 22.302C116.415 23.086 115.972 23.6507 115.337 23.996C114.712 24.332 113.891 24.5 112.873 24.5H110.619C110.339 24.5 110.12 24.4207 109.961 24.262C109.803 24.094 109.723 23.8747 109.723 23.604V15.89ZM111.781 22.582C111.781 22.638 111.809 22.666 111.865 22.666H112.817C113.293 22.666 113.695 22.582 114.021 22.414C114.348 22.246 114.572 21.9707 114.693 21.588C114.74 21.4293 114.777 21.2053 114.805 20.916C114.843 20.6173 114.861 20.2253 114.861 19.74C114.861 19.2547 114.843 18.8673 114.805 18.578C114.777 18.2793 114.74 18.0507 114.693 17.892C114.572 17.5093 114.348 17.234 114.021 17.066C113.695 16.898 113.293 16.814 112.817 16.814H111.865C111.809 16.814 111.781 16.842 111.781 16.898V22.582ZM118.794 15.988C118.794 15.6613 118.892 15.4 119.088 15.204C119.284 14.9987 119.532 14.896 119.83 14.896C120.129 14.896 120.372 14.9987 120.558 15.204C120.754 15.4 120.852 15.6613 120.852 15.988V23.492C120.852 23.8187 120.754 24.0847 120.558 24.29C120.372 24.486 120.129 24.584 119.83 24.584C119.532 24.584 119.284 24.486 119.088 24.29C118.892 24.0847 118.794 23.8187 118.794 23.492V15.988ZM126.443 24.654C125.603 24.654 124.875 24.4627 124.259 24.08C123.652 23.6973 123.223 23.1187 122.971 22.344C122.915 22.176 122.868 22.0127 122.831 21.854C122.803 21.6953 122.78 21.518 122.761 21.322C122.742 21.126 122.728 20.902 122.719 20.65C122.71 20.398 122.705 20.0947 122.705 19.74C122.705 19.3947 122.71 19.096 122.719 18.844C122.728 18.592 122.742 18.368 122.761 18.172C122.78 17.976 122.803 17.7987 122.831 17.64C122.868 17.472 122.915 17.304 122.971 17.136C123.223 16.3613 123.652 15.7827 124.259 15.4C124.875 15.0173 125.603 14.826 126.443 14.826C127.283 14.826 128.006 15.0173 128.613 15.4C129.229 15.7827 129.663 16.3613 129.915 17.136C129.971 17.304 130.013 17.472 130.041 17.64C130.078 17.7987 130.106 17.976 130.125 18.172C130.144 18.368 130.158 18.592 130.167 18.844C130.176 19.096 130.181 19.3947 130.181 19.74C130.181 20.0947 130.176 20.398 130.167 20.65C130.158 20.902 130.144 21.126 130.125 21.322C130.106 21.518 130.078 21.6953 130.041 21.854C130.013 22.0127 129.971 22.176 129.915 22.344C129.663 23.1187 129.229 23.6973 128.613 24.08C128.006 24.4627 127.283 24.654 126.443 24.654ZM126.443 22.834C126.835 22.834 127.157 22.7453 127.409 22.568C127.661 22.3813 127.838 22.1247 127.941 21.798C127.969 21.714 127.992 21.616 128.011 21.504C128.03 21.392 128.044 21.2567 128.053 21.098C128.072 20.9393 128.081 20.7527 128.081 20.538C128.09 20.314 128.095 20.048 128.095 19.74C128.095 19.432 128.09 19.1707 128.081 18.956C128.081 18.732 128.072 18.5407 128.053 18.382C128.044 18.2233 128.03 18.088 128.011 17.976C127.992 17.864 127.969 17.766 127.941 17.682C127.838 17.3553 127.661 17.1033 127.409 16.926C127.157 16.7393 126.835 16.646 126.443 16.646C126.051 16.646 125.729 16.7393 125.477 16.926C125.225 17.1033 125.048 17.3553 124.945 17.682C124.917 17.766 124.894 17.864 124.875 17.976C124.856 18.088 124.838 18.2233 124.819 18.382C124.81 18.5407 124.8 18.732 124.791 18.956C124.791 19.1707 124.791 19.432 124.791 19.74C124.791 20.048 124.791 20.314 124.791 20.538C124.8 20.7527 124.81 20.9393 124.819 21.098C124.838 21.2567 124.856 21.392 124.875 21.504C124.894 21.616 124.917 21.714 124.945 21.798C125.048 22.1247 125.225 22.3813 125.477 22.568C125.729 22.7453 126.051 22.834 126.443 22.834Z" fill="white"/>
<rect x="1" y="1" width="153" height="40" rx="7" stroke="#3A10E5" stroke-width="2"/>
<defs>
<clipPath id="clip0_934_5692">
<rect width="22" height="22" fill="white" transform="translate(24 10)"/>
</clipPath>
</defs>
</svg>
