<svg width="86" height="59" viewBox="0 0 86 59" fill="none" xmlns="http://www.w3.org/2000/svg">
<path d="M83.5467 33.9851C82.3208 39.9763 78.2911 43.5156 72.7583 45.168C69.0515 46.2398 65.2285 46.8591 61.3729 47.0123C54.9766 47.3107 48.5802 47.0975 42.1839 47.0975V47.364C36.0541 47.1402 29.9137 46.831 23.7839 46.767C22.2506 46.7426 20.7446 47.1729 19.4557 48.0037C17.438 49.5475 15.5387 51.2401 13.7736 53.0674C12.4944 54.2827 11.3644 55.6579 10.0531 56.8412C9.66934 57.193 8.92309 57.1291 8.33676 57.257C8.33676 56.6707 8.12355 55.9884 8.33676 55.53C9.09366 54.0375 10.0531 52.641 10.8633 51.1698C11.4699 50.1081 11.9904 48.9994 12.4197 47.8544C13.166 45.7863 12.8142 44.9548 10.9379 43.7501C9.41348 42.7587 7.88902 41.7673 6.34325 40.8185C5.99174 40.6085 5.6535 40.3771 5.33048 40.1255C4.30728 39.3182 3.47759 38.2922 2.9021 37.1228C2.3266 35.9534 2.01988 34.6701 2.00441 33.3668C1.75921 26.9705 1.50336 20.5741 2.53743 14.1778C3.18772 10.2228 5.597 7.48302 8.76317 5.29761C12.2973 2.91981 16.425 1.57589 20.6816 1.41718C25.3936 1.12935 30.1056 0.948119 34.8282 0.916138C36.5658 0.916138 38.2928 0.916138 40.0305 0.916138C48.3884 1.04406 56.7462 1.40652 65.0827 1.98219C68.6593 2.29991 72.2057 2.89514 75.6899 3.7625C77.8467 4.12951 79.8189 5.2071 81.2927 6.82392C82.7666 8.44073 83.6576 10.5039 83.8239 12.6853C84.9432 19.7494 84.8495 26.9526 83.5467 33.9851Z" fill="white"/>
<path d="M44.6022 48.5687C36.0738 48.2488 30.4344 48.0889 24.763 47.7798C23.6746 47.6715 22.5756 47.7919 21.5365 48.1334C20.4974 48.4749 19.5411 49.0298 18.7291 49.7626C17.0021 51.3724 15.3817 53.0994 13.6974 54.7518C12.5673 55.8178 11.4693 57.0225 10.2434 58.0139C9.88002 58.3412 9.41151 58.5275 8.92264 58.5392C8.43378 58.551 7.95686 58.3873 7.57823 58.0778C7.19643 57.7746 6.94199 57.3395 6.86504 56.858C6.78809 56.3766 6.89419 55.8838 7.16246 55.4767C7.962 53.8456 8.95343 52.2785 9.82759 50.7221C10.3939 49.7389 10.8891 48.7164 11.3094 47.6625C11.949 45.9888 11.7678 45.5304 10.2434 44.6349C8.71891 43.7394 7.3437 42.7693 5.87254 41.8632C4.34225 40.9872 3.06898 39.7244 2.18027 38.2015C1.29156 36.6785 0.818622 34.9488 0.808794 33.1855C0.447907 27.0101 0.615533 20.8151 1.30984 14.6682C1.92815 10.1588 4.6146 7.09922 8.13257 4.60465C12.362 1.77247 17.3382 0.262175 22.4283 0.265828C30.6902 -0.0220065 38.9735 -0.0433223 47.246 0.137907C54.282 0.297814 61.3179 0.820169 68.3326 1.34253C70.7748 1.60343 73.1943 2.04529 75.5711 2.66445C80.9013 3.89041 84.0995 7.16318 84.867 12.7173C85.9192 19.6971 85.8616 26.7994 84.6965 33.7612C83.5345 40.1575 79.5154 44.0379 73.6948 45.9995C70.3268 47.1021 66.8287 47.758 63.2901 47.9503C56.1689 48.4087 48.9837 48.4407 44.6022 48.5687ZM42.1396 47.364V47.0975C48.5359 47.0975 54.9323 47.3107 61.3286 47.0122C65.2128 46.8651 69.0647 46.2458 72.7993 45.1679C78.3321 43.5156 82.3938 39.9763 83.5878 33.9851C84.8776 26.9439 84.9677 19.7353 83.8543 12.664C83.6838 10.4823 82.79 8.41985 81.3147 6.80355C79.8394 5.18725 77.8668 4.10952 75.7096 3.74115C72.229 2.87383 68.6861 2.2786 65.1131 1.96085C56.7659 1.41716 48.408 1.0547 40.0502 0.894795C33.6539 0.788189 27.1403 0.990736 20.712 1.37452C16.427 1.55724 12.2792 2.93861 8.74023 5.36156C5.54207 7.54696 3.16475 10.2867 2.52512 14.2418C1.45907 20.6381 1.7469 27.0344 1.9921 33.4307C2.00655 34.9427 2.41295 36.425 3.17156 37.733C3.93017 39.0409 5.01509 40.1298 6.3203 40.8931C7.87674 41.8312 9.40117 42.8226 10.9256 43.8141C12.8019 45.0187 13.143 45.8609 12.4074 47.9184C11.9721 49.0626 11.4481 50.1711 10.8404 51.2338C10.0302 52.7049 9.07071 54.1015 8.31381 55.5939C8.07928 56.0523 8.31381 56.7453 8.31381 57.321C8.88948 57.193 9.64635 57.257 10.0195 56.9052C11.3307 55.7219 12.4714 54.3467 13.7507 53.1314C15.512 51.3042 17.4078 49.6115 19.4221 48.0676C20.715 47.2372 22.2244 46.807 23.7609 46.831C29.88 46.831 36.0098 47.1401 42.1396 47.364Z" fill="#3A0D1F"/>
<path d="M11.8453 28.5173V16.4077H15.937C16.8831 16.4077 17.6597 16.5693 18.2667 16.8926C18.8738 17.2119 19.3232 17.6514 19.6149 18.2112C19.9066 18.7709 20.0524 19.4075 20.0524 20.121C20.0524 20.8345 19.9066 21.4672 19.6149 22.0191C19.3232 22.5709 18.8757 23.0045 18.2726 23.3199C17.6695 23.6313 16.8989 23.787 15.9607 23.787H12.6495V22.4625H15.9134C16.5599 22.4625 17.0802 22.3679 17.4744 22.1787C17.8725 21.9895 18.1603 21.7214 18.3377 21.3746C18.519 21.0237 18.6097 20.6059 18.6097 20.121C18.6097 19.6362 18.519 19.2124 18.3377 18.8497C18.1563 18.4871 17.8666 18.2072 17.4685 18.0101C17.0703 17.8091 16.5441 17.7086 15.8897 17.7086H13.3117V28.5173H11.8453ZM17.5453 23.0775L20.5254 28.5173H18.8225L15.8897 23.0775H17.5453ZM26.017 28.7065C25.1419 28.7065 24.3871 28.5134 23.7524 28.1271C23.1217 27.7368 22.6349 27.1928 22.2919 26.4951C21.9529 25.7935 21.7834 24.9775 21.7834 24.0472C21.7834 23.1169 21.9529 22.297 22.2919 21.5874C22.6349 20.8739 23.1118 20.3181 23.7228 19.92C24.3378 19.5179 25.0552 19.3169 25.8751 19.3169C26.3482 19.3169 26.8153 19.3957 27.2765 19.5534C27.7377 19.7111 28.1575 19.9673 28.5359 20.3221C28.9144 20.6729 29.2159 21.138 29.4406 21.7175C29.6653 22.297 29.7777 23.0105 29.7777 23.858V24.4493H22.7768V23.243H28.3586C28.3586 22.7306 28.2561 22.2733 28.0511 21.8712C27.85 21.4692 27.5623 21.1518 27.1878 20.9193C26.8173 20.6867 26.3797 20.5704 25.8751 20.5704C25.3193 20.5704 24.8384 20.7084 24.4324 20.9843C24.0303 21.2563 23.7209 21.6111 23.5041 22.0486C23.2873 22.4862 23.1789 22.9553 23.1789 23.4559V24.26C23.1789 24.9459 23.2971 25.5274 23.5336 26.0044C23.7741 26.4774 24.1072 26.8381 24.5329 27.0864C24.9586 27.3308 25.4534 27.453 26.017 27.453C26.3836 27.453 26.7148 27.4018 27.0104 27.2993C27.31 27.1928 27.5682 27.0352 27.785 26.8262C28.0018 26.6134 28.1693 26.3493 28.2876 26.0339L29.6357 26.4123C29.4938 26.8696 29.2553 27.2717 28.9203 27.6186C28.5852 27.9615 28.1713 28.2296 27.6786 28.4227C27.1858 28.6119 26.632 28.7065 26.017 28.7065ZM34.573 28.7302C33.9975 28.7302 33.4752 28.6218 33.0061 28.405C32.537 28.1842 32.1645 27.8669 31.8886 27.453C31.6126 27.0352 31.4747 26.5306 31.4747 25.9393C31.4747 25.419 31.5771 24.9972 31.7821 24.6739C31.9871 24.3468 32.2611 24.0905 32.604 23.9053C32.947 23.72 33.3254 23.582 33.7393 23.4914C34.1571 23.3968 34.577 23.3219 34.9987 23.2667C35.5506 23.1957 35.998 23.1425 36.341 23.107C36.6879 23.0676 36.9401 23.0026 37.0978 22.9119C37.2594 22.8212 37.3402 22.6636 37.3402 22.4389V22.3916C37.3402 21.8082 37.1806 21.3548 36.8613 21.0316C36.546 20.7084 36.067 20.5467 35.4245 20.5467C34.7583 20.5467 34.236 20.6926 33.8576 20.9843C33.4791 21.276 33.213 21.5874 33.0593 21.9185L31.7348 21.4455C31.9713 20.8936 32.2867 20.464 32.6809 20.1565C33.079 19.8451 33.5126 19.6283 33.9817 19.5061C34.4548 19.3799 34.9199 19.3169 35.3772 19.3169C35.6689 19.3169 36.0039 19.3523 36.3824 19.4233C36.7647 19.4903 37.1333 19.6302 37.4881 19.8431C37.8468 20.056 38.1444 20.3772 38.3809 20.8069C38.6174 21.2366 38.7357 21.8121 38.7357 22.5335V28.5173H37.3402V27.2875H37.2693C37.1747 27.4845 37.017 27.6954 36.7963 27.9201C36.5755 28.1448 36.2818 28.336 35.9152 28.4937C35.5486 28.6514 35.1012 28.7302 34.573 28.7302ZM34.7859 27.4767C35.3377 27.4767 35.8029 27.3683 36.1813 27.1515C36.5637 26.9346 36.8514 26.6548 37.0446 26.3118C37.2417 25.9689 37.3402 25.6082 37.3402 25.2298V23.9526C37.2811 24.0235 37.151 24.0886 36.95 24.1477C36.7529 24.2029 36.5243 24.2522 36.2641 24.2955C36.0079 24.3349 35.7576 24.3704 35.5132 24.402C35.2727 24.4295 35.0776 24.4532 34.9278 24.4729C34.5651 24.5202 34.2261 24.5971 33.9108 24.7035C33.5994 24.806 33.3471 24.9617 33.1539 25.1706C32.9647 25.3756 32.8701 25.6555 32.8701 26.0103C32.8701 26.4951 33.0495 26.8617 33.4082 27.1101C33.7708 27.3545 34.2301 27.4767 34.7859 27.4767ZM44.7122 28.7065C43.9553 28.7065 43.2871 28.5154 42.7077 28.133C42.1282 27.7467 41.6749 27.2027 41.3477 26.501C41.0205 25.7954 40.8569 24.9617 40.8569 23.9999C40.8569 23.0459 41.0205 22.2181 41.3477 21.5165C41.6749 20.8148 42.1302 20.2728 42.7136 19.8904C43.297 19.508 43.9711 19.3169 44.7358 19.3169C45.3271 19.3169 45.7942 19.4154 46.1372 19.6125C46.4841 19.8057 46.7482 20.0264 46.9295 20.2748C47.1148 20.5192 47.2586 20.7202 47.3611 20.8779H47.4794V16.4077H48.8748V28.5173H47.5267V27.1219H47.3611C47.2586 27.2875 47.1128 27.4964 46.9236 27.7487C46.7344 27.997 46.4643 28.2197 46.1135 28.4168C45.7627 28.61 45.2956 28.7065 44.7122 28.7065ZM44.9014 27.453C45.4611 27.453 45.9342 27.3072 46.3205 27.0155C46.7068 26.7198 47.0004 26.3118 47.2015 25.7915C47.4025 25.2672 47.503 24.6621 47.503 23.9762C47.503 23.2982 47.4045 22.705 47.2074 22.1964C47.0103 21.684 46.7186 21.2859 46.3323 21.002C45.946 20.7143 45.469 20.5704 44.9014 20.5704C44.3101 20.5704 43.8173 20.7222 43.4231 21.0257C43.0329 21.3253 42.7392 21.7333 42.5421 22.2497C42.349 22.7621 42.2524 23.3376 42.2524 23.9762C42.2524 24.6227 42.3509 25.2101 42.548 25.7383C42.7491 26.2625 43.0447 26.6804 43.435 26.9918C43.8292 27.2993 44.318 27.453 44.9014 27.453ZM51.6243 28.5173V19.4351H53.0198V28.5173H51.6243ZM52.3339 17.9214C52.0619 17.9214 51.8273 17.8288 51.6302 17.6435C51.4371 17.4582 51.3405 17.2355 51.3405 16.9754C51.3405 16.7152 51.4371 16.4925 51.6302 16.3072C51.8273 16.1219 52.0619 16.0293 52.3339 16.0293C52.6059 16.0293 52.8385 16.1219 53.0316 16.3072C53.2287 16.4925 53.3273 16.7152 53.3273 16.9754C53.3273 17.2355 53.2287 17.4582 53.0316 17.6435C52.8385 17.8288 52.6059 17.9214 52.3339 17.9214ZM56.9711 23.0538V28.5173H55.5756V19.4351H56.9238V20.8542H57.042C57.2549 20.393 57.5781 20.0225 58.0117 19.7426C58.4454 19.4588 59.0051 19.3169 59.691 19.3169C60.3059 19.3169 60.844 19.443 61.3052 19.6953C61.7664 19.9436 62.1252 20.3221 62.3814 20.8306C62.6376 21.3351 62.7657 21.9737 62.7657 22.7463V28.5173H61.3703V22.841C61.3703 22.1275 61.185 21.5716 60.8145 21.1735C60.4439 20.7714 59.9354 20.5704 59.2889 20.5704C58.8435 20.5704 58.4454 20.667 58.0945 20.8601C57.7476 21.0533 57.4737 21.3351 57.2726 21.7057C57.0716 22.0762 56.9711 22.5256 56.9711 23.0538ZM68.9817 32.1124C68.3076 32.1124 67.7281 32.0257 67.2433 31.8522C66.7584 31.6827 66.3544 31.458 66.0311 31.1781C65.7118 30.9022 65.4576 30.6066 65.2684 30.2912L66.38 29.5107C66.5061 29.6763 66.6658 29.8655 66.8589 30.0783C67.0521 30.2951 67.3162 30.4824 67.6512 30.6401C67.9903 30.8017 68.4337 30.8825 68.9817 30.8825C69.7149 30.8825 70.3199 30.7051 70.7969 30.3503C71.2739 29.9956 71.5124 29.4397 71.5124 28.6829V26.8381H71.3941C71.2916 27.0036 71.1458 27.2086 70.9566 27.453C70.7713 27.6935 70.5032 27.9083 70.1524 28.0975C69.8055 28.2828 69.3364 28.3754 68.7451 28.3754C68.0119 28.3754 67.3536 28.202 66.7702 27.8551C66.1908 27.5082 65.7315 27.0036 65.3925 26.3414C65.0575 25.6791 64.8899 24.875 64.8899 23.9289C64.8899 22.9986 65.0535 22.1886 65.3807 21.4987C65.7079 20.8049 66.1632 20.2688 66.7466 19.8904C67.33 19.508 68.0041 19.3169 68.7688 19.3169C69.3601 19.3169 69.8292 19.4154 70.1761 19.6125C70.5269 19.8057 70.7949 20.0264 70.9802 20.2748C71.1694 20.5192 71.3153 20.7202 71.4178 20.8779H71.5597V19.4351H72.9078V28.7775C72.9078 29.558 72.7304 30.1927 72.3757 30.6815C72.0248 31.1742 71.5518 31.5349 70.9566 31.7635C70.3653 31.9961 69.707 32.1124 68.9817 32.1124ZM68.9343 27.1219C69.4941 27.1219 69.9671 26.9938 70.3534 26.7376C70.7398 26.4813 71.0334 26.1128 71.2345 25.6318C71.4355 25.1509 71.536 24.5754 71.536 23.9053C71.536 23.2509 71.4375 22.6734 71.2404 22.1728C71.0433 21.6722 70.7516 21.2799 70.3653 20.9961C69.979 20.7123 69.502 20.5704 68.9343 20.5704C68.3431 20.5704 67.8503 20.7202 67.4561 21.0198C67.0659 21.3194 66.7722 21.7214 66.5751 22.226C66.3819 22.7306 66.2854 23.2903 66.2854 23.9053C66.2854 24.536 66.3839 25.0938 66.581 25.5786C66.7821 26.0595 67.0777 26.438 67.4679 26.7139C67.8621 26.9859 68.3509 27.1219 68.9343 27.1219Z" fill="#3A0D1F"/>
</svg>
