<svg width="136" height="20" viewBox="0 0 136 20" fill="none" xmlns="http://www.w3.org/2000/svg">
<path d="M36.112 16.08C35.6853 16.08 35.376 15.8827 35.184 15.488L33.216 11.6H31.184C31.12 11.6 31.088 11.632 31.088 11.696V15.088C31.088 15.3973 30.9973 15.6427 30.816 15.824C30.6453 15.9947 30.4213 16.08 30.144 16.08C29.8667 16.08 29.6373 15.9947 29.456 15.824C29.2853 15.6427 29.2 15.3973 29.2 15.088V5.968C29.2 5.712 29.2747 5.50933 29.424 5.36C29.5733 5.2 29.7813 5.12 30.048 5.12H33.568C34.0693 5.12 34.528 5.2 34.944 5.36C35.3707 5.52 35.7387 5.744 36.048 6.032C36.3573 6.30933 36.5973 6.65067 36.768 7.056C36.9493 7.45067 37.04 7.888 37.04 8.368C37.04 9.06133 36.864 9.664 36.512 10.176C36.16 10.6773 35.6907 11.0507 35.104 11.296L36.88 14.608C36.976 14.7893 37.024 14.9813 37.024 15.184C37.024 15.4293 36.9387 15.6427 36.768 15.824C36.608 15.9947 36.3893 16.08 36.112 16.08ZM33.504 9.904C34.0053 9.904 34.4053 9.76533 34.704 9.488C35.0133 9.21067 35.168 8.83733 35.168 8.368C35.168 7.888 35.0133 7.50933 34.704 7.232C34.4053 6.95467 34.0053 6.816 33.504 6.816H31.184C31.12 6.816 31.088 6.848 31.088 6.912V9.808C31.088 9.872 31.12 9.904 31.184 9.904H33.504ZM40.3062 5.968C40.3062 5.712 40.3809 5.50933 40.5302 5.36C40.6796 5.2 40.8876 5.12 41.1542 5.12H46.5782C46.8769 5.12 47.1116 5.2 47.2823 5.36C47.4529 5.52 47.5382 5.72267 47.5382 5.968C47.5382 6.21333 47.4529 6.416 47.2823 6.576C47.1116 6.736 46.8769 6.816 46.5782 6.816H42.2903C42.2262 6.816 42.1942 6.848 42.1942 6.912V9.568C42.1942 9.632 42.2262 9.664 42.2903 9.664H45.7783C46.0769 9.664 46.3116 9.744 46.4823 9.904C46.6529 10.064 46.7383 10.2667 46.7383 10.512C46.7383 10.7573 46.6529 10.96 46.4823 11.12C46.3116 11.28 46.0769 11.36 45.7783 11.36H42.2903C42.2262 11.36 42.1942 11.392 42.1942 11.456V14.208C42.1942 14.272 42.2262 14.304 42.2903 14.304H46.5782C46.8769 14.304 47.1116 14.384 47.2823 14.544C47.4529 14.704 47.5382 14.9067 47.5382 15.152C47.5382 15.3973 47.4529 15.6 47.2823 15.76C47.1116 15.92 46.8769 16 46.5782 16H41.1542C40.8876 16 40.6796 15.9253 40.5302 15.776C40.3809 15.616 40.3062 15.408 40.3062 15.152V5.968ZM50.6152 13.552C50.5619 13.36 50.5139 13.1733 50.4712 12.992C50.4286 12.8107 50.3966 12.608 50.3752 12.384C50.3539 12.16 50.3379 11.904 50.3272 11.616C50.3166 11.3173 50.3112 10.9653 50.3112 10.56C50.3112 10.1547 50.3166 9.808 50.3272 9.52C50.3379 9.22133 50.3539 8.96 50.3752 8.736C50.3966 8.512 50.4286 8.30933 50.4712 8.128C50.5139 7.94667 50.5619 7.76 50.6152 7.568C50.8926 6.704 51.3566 6.05333 52.0072 5.616C52.6579 5.168 53.4526 4.944 54.3912 4.944C55.1592 4.944 55.8259 5.104 56.3913 5.424C56.9673 5.744 57.3939 6.176 57.6713 6.72C57.7779 6.912 57.8313 7.09867 57.8313 7.28C57.8313 7.52533 57.7459 7.728 57.5752 7.888C57.4152 8.048 57.2126 8.128 56.9672 8.128C56.8073 8.128 56.6579 8.09067 56.5192 8.016C56.3912 7.93067 56.2633 7.79733 56.1353 7.616C55.9219 7.28533 55.6766 7.04 55.3993 6.88C55.1326 6.72 54.7966 6.64 54.3912 6.64C53.8686 6.64 53.4472 6.768 53.1272 7.024C52.8179 7.26933 52.5886 7.616 52.4392 8.064C52.4072 8.18133 52.3752 8.304 52.3432 8.432C52.3219 8.56 52.3006 8.72 52.2792 8.912C52.2686 9.09333 52.2579 9.31733 52.2472 9.584C52.2366 9.85067 52.2312 10.176 52.2312 10.56C52.2312 10.944 52.2366 11.2693 52.2472 11.536C52.2579 11.8027 52.2686 12.032 52.2792 12.224C52.3006 12.4053 52.3219 12.56 52.3432 12.688C52.3752 12.816 52.4072 12.9387 52.4392 13.056C52.5886 13.504 52.8179 13.856 53.1272 14.112C53.4472 14.3573 53.8686 14.48 54.3912 14.48C54.7966 14.48 55.1326 14.4 55.3993 14.24C55.6766 14.08 55.9219 13.8347 56.1353 13.504C56.2633 13.3227 56.3912 13.1947 56.5192 13.12C56.6579 13.0347 56.8073 12.992 56.9672 12.992C57.2126 12.992 57.4152 13.072 57.5752 13.232C57.7459 13.392 57.8313 13.6 57.8313 13.856C57.8313 14.0267 57.7779 14.208 57.6713 14.4C57.3939 14.944 56.9673 15.376 56.3913 15.696C55.8259 16.016 55.1592 16.176 54.3912 16.176C53.4526 16.176 52.6579 15.9573 52.0072 15.52C51.3566 15.072 50.8926 14.416 50.6152 13.552ZM60.5894 10.56C60.5894 10.1653 60.5947 9.824 60.6054 9.536C60.616 9.248 60.632 8.992 60.6534 8.768C60.6747 8.53333 60.7067 8.32 60.7494 8.128C60.792 7.936 60.8454 7.744 60.9094 7.552C61.1867 6.688 61.656 6.03733 62.3174 5.6C62.9787 5.16267 63.7787 4.944 64.7174 4.944C65.6667 4.944 66.472 5.16267 67.1334 5.6C67.7947 6.03733 68.264 6.688 68.5414 7.552C68.6054 7.744 68.6587 7.936 68.7014 8.128C68.744 8.32 68.776 8.53333 68.7974 8.768C68.8187 8.992 68.8347 9.248 68.8454 9.536C68.856 9.824 68.8614 10.1653 68.8614 10.56C68.8614 10.9547 68.856 11.296 68.8454 11.584C68.8347 11.872 68.8187 12.1333 68.7974 12.368C68.776 12.592 68.744 12.8 68.7014 12.992C68.6587 13.184 68.6054 13.376 68.5414 13.568C68.264 14.432 67.7947 15.0827 67.1334 15.52C66.472 15.9573 65.6667 16.176 64.7174 16.176C63.7787 16.176 62.9787 15.9573 62.3174 15.52C61.656 15.0827 61.1867 14.432 60.9094 13.568C60.8454 13.376 60.792 13.184 60.7494 12.992C60.7067 12.8 60.6747 12.592 60.6534 12.368C60.632 12.1333 60.616 11.872 60.6054 11.584C60.5947 11.296 60.5894 10.9547 60.5894 10.56ZM66.9414 10.56C66.9414 10.1973 66.936 9.888 66.9254 9.632C66.9147 9.36533 66.8987 9.136 66.8774 8.944C66.8667 8.752 66.8454 8.58667 66.8134 8.448C66.792 8.30933 66.76 8.18133 66.7174 8.064C66.568 7.616 66.3334 7.26933 66.0134 7.024C65.6934 6.768 65.2614 6.64 64.7174 6.64C64.184 6.64 63.7574 6.768 63.4374 7.024C63.1174 7.26933 62.8827 7.616 62.7334 8.064C62.6907 8.18133 62.6534 8.30933 62.6214 8.448C62.6 8.58667 62.5787 8.752 62.5574 8.944C62.5467 9.136 62.536 9.36533 62.5254 9.632C62.5147 9.888 62.5094 10.1973 62.5094 10.56C62.5094 10.9227 62.5147 11.2373 62.5254 11.504C62.536 11.76 62.5467 11.984 62.5574 12.176C62.5787 12.368 62.6 12.5333 62.6214 12.672C62.6534 12.8107 62.6907 12.9387 62.7334 13.056C62.8827 13.504 63.1174 13.856 63.4374 14.112C63.7574 14.3573 64.184 14.48 64.7174 14.48C65.2614 14.48 65.6934 14.3573 66.0134 14.112C66.3334 13.856 66.568 13.504 66.7174 13.056C66.76 12.9387 66.792 12.8107 66.8134 12.672C66.8454 12.5333 66.8667 12.368 66.8774 12.176C66.8987 11.984 66.9147 11.76 66.9254 11.504C66.936 11.2373 66.9414 10.9227 66.9414 10.56ZM79.0526 16.08C78.626 16.08 78.3166 15.8827 78.1246 15.488L76.1566 11.6H74.1246C74.0606 11.6 74.0286 11.632 74.0286 11.696V15.088C74.0286 15.3973 73.938 15.6427 73.7566 15.824C73.586 15.9947 73.362 16.08 73.0846 16.08C72.8073 16.08 72.578 15.9947 72.3966 15.824C72.226 15.6427 72.1406 15.3973 72.1406 15.088V5.968C72.1406 5.712 72.2153 5.50933 72.3646 5.36C72.514 5.2 72.722 5.12 72.9886 5.12H76.5086C77.01 5.12 77.4686 5.2 77.8846 5.36C78.3113 5.52 78.6793 5.744 78.9886 6.032C79.298 6.30933 79.538 6.65067 79.7086 7.056C79.89 7.45067 79.9806 7.888 79.9806 8.368C79.9806 9.06133 79.8046 9.664 79.4526 10.176C79.1006 10.6773 78.6313 11.0507 78.0446 11.296L79.8206 14.608C79.9166 14.7893 79.9646 14.9813 79.9646 15.184C79.9646 15.4293 79.8793 15.6427 79.7086 15.824C79.5486 15.9947 79.33 16.08 79.0526 16.08ZM76.4446 9.904C76.946 9.904 77.346 9.76533 77.6446 9.488C77.954 9.21067 78.1086 8.83733 78.1086 8.368C78.1086 7.888 77.954 7.50933 77.6446 7.232C77.346 6.95467 76.946 6.816 76.4446 6.816H74.1246C74.0606 6.816 74.0286 6.848 74.0286 6.912V9.808C74.0286 9.872 74.0606 9.904 74.1246 9.904H76.4446ZM83.2469 5.968C83.2469 5.712 83.3215 5.50933 83.4709 5.36C83.6202 5.2 83.8282 5.12 84.0949 5.12H86.7669C87.8762 5.12 88.7669 5.32267 89.4389 5.728C90.1215 6.12267 90.6015 6.752 90.8789 7.616C90.9322 7.78667 90.9749 7.96267 91.0069 8.144C91.0495 8.32533 91.0815 8.53333 91.1029 8.768C91.1349 8.992 91.1562 9.25333 91.1669 9.552C91.1882 9.84 91.1989 10.176 91.1989 10.56C91.1989 10.944 91.1882 11.2853 91.1669 11.584C91.1562 11.872 91.1349 12.1333 91.1029 12.368C91.0815 12.592 91.0495 12.7947 91.0069 12.976C90.9749 13.1573 90.9322 13.3333 90.8789 13.504C90.6015 14.368 90.1215 15.0027 89.4389 15.408C88.7669 15.8027 87.8762 16 86.7669 16H84.0949C83.8282 16 83.6202 15.9253 83.4709 15.776C83.3215 15.6267 83.2469 15.424 83.2469 15.168V5.968ZM85.1349 14.208C85.1349 14.272 85.1669 14.304 85.2309 14.304H86.6709C87.3109 14.304 87.8282 14.192 88.2229 13.968C88.6175 13.7333 88.9002 13.36 89.0709 12.848C89.1349 12.624 89.1829 12.3413 89.2149 12C89.2575 11.648 89.2789 11.168 89.2789 10.56C89.2789 9.952 89.2575 9.47733 89.2149 9.136C89.1829 8.784 89.1349 8.496 89.0709 8.272C88.9002 7.76 88.6175 7.392 88.2229 7.168C87.8282 6.93333 87.3109 6.816 86.6709 6.816H85.2309C85.1669 6.816 85.1349 6.848 85.1349 6.912V14.208ZM94.4469 6.032C94.4469 5.72267 94.5322 5.48267 94.7029 5.312C94.8842 5.13067 95.1135 5.04 95.3909 5.04C95.6682 5.04 95.8922 5.13067 96.0629 5.312C96.2442 5.48267 96.3349 5.72267 96.3349 6.032V15.088C96.3349 15.3973 96.2442 15.6427 96.0629 15.824C95.8922 15.9947 95.6682 16.08 95.3909 16.08C95.1135 16.08 94.8842 15.9947 94.7029 15.824C94.5322 15.6427 94.4469 15.3973 94.4469 15.088V6.032ZM99.9281 6.176C99.9281 5.824 100.024 5.54667 100.216 5.344C100.408 5.14133 100.669 5.04 101 5.04C101.277 5.04 101.507 5.12 101.688 5.28C101.88 5.42933 102.067 5.65867 102.248 5.968L106.248 12.752H106.296V5.968C106.296 5.66933 106.376 5.44 106.536 5.28C106.707 5.12 106.92 5.04 107.176 5.04C107.421 5.04 107.624 5.12 107.784 5.28C107.955 5.44 108.04 5.66933 108.04 5.968V14.944C108.04 15.296 107.944 15.5733 107.752 15.776C107.56 15.9787 107.304 16.08 106.984 16.08C106.707 16.08 106.472 16.0053 106.28 15.856C106.088 15.696 105.901 15.4613 105.72 15.152L101.736 8.368H101.672V15.152C101.672 15.4507 101.587 15.68 101.416 15.84C101.256 16 101.053 16.08 100.808 16.08C100.552 16.08 100.339 16 100.168 15.84C100.008 15.68 99.9281 15.4507 99.9281 15.152V6.176ZM111.644 5.968C111.644 5.712 111.718 5.50933 111.868 5.36C112.017 5.2 112.225 5.12 112.492 5.12H115.164C116.273 5.12 117.164 5.32267 117.836 5.728C118.518 6.12267 118.998 6.752 119.276 7.616C119.329 7.78667 119.372 7.96267 119.404 8.144C119.446 8.32533 119.478 8.53333 119.5 8.768C119.532 8.992 119.553 9.25333 119.564 9.552C119.585 9.84 119.596 10.176 119.596 10.56C119.596 10.944 119.585 11.2853 119.564 11.584C119.553 11.872 119.532 12.1333 119.5 12.368C119.478 12.592 119.446 12.7947 119.404 12.976C119.372 13.1573 119.329 13.3333 119.276 13.504C118.998 14.368 118.518 15.0027 117.836 15.408C117.164 15.8027 116.273 16 115.164 16H112.492C112.225 16 112.017 15.9253 111.868 15.776C111.718 15.6267 111.644 15.424 111.644 15.168V5.968ZM113.532 14.208C113.532 14.272 113.564 14.304 113.628 14.304H115.068C115.708 14.304 116.225 14.192 116.62 13.968C117.014 13.7333 117.297 13.36 117.468 12.848C117.532 12.624 117.58 12.3413 117.612 12C117.654 11.648 117.676 11.168 117.676 10.56C117.676 9.952 117.654 9.47733 117.612 9.136C117.58 8.784 117.532 8.496 117.468 8.272C117.297 7.76 117.014 7.392 116.62 7.168C116.225 6.93333 115.708 6.816 115.068 6.816H113.628C113.564 6.816 113.532 6.848 113.532 6.912V14.208ZM122.211 15.024C122.211 14.7147 122.323 14.448 122.547 14.224C122.771 14 123.037 13.888 123.347 13.888C123.656 13.888 123.923 14 124.147 14.224C124.371 14.448 124.483 14.7147 124.483 15.024C124.483 15.3333 124.371 15.6 124.147 15.824C123.923 16.048 123.656 16.16 123.347 16.16C123.037 16.16 122.771 16.048 122.547 15.824C122.323 15.6 122.211 15.3333 122.211 15.024ZM127.379 15.024C127.379 14.7147 127.491 14.448 127.715 14.224C127.939 14 128.206 13.888 128.515 13.888C128.825 13.888 129.091 14 129.315 14.224C129.539 14.448 129.651 14.7147 129.651 15.024C129.651 15.3333 129.539 15.6 129.315 15.824C129.091 16.048 128.825 16.16 128.515 16.16C128.206 16.16 127.939 16.048 127.715 15.824C127.491 15.6 127.379 15.3333 127.379 15.024ZM132.548 15.024C132.548 14.7147 132.66 14.448 132.884 14.224C133.108 14 133.375 13.888 133.684 13.888C133.993 13.888 134.26 14 134.484 14.224C134.708 14.448 134.82 14.7147 134.82 15.024C134.82 15.3333 134.708 15.6 134.484 15.824C134.26 16.048 133.993 16.16 133.684 16.16C133.375 16.16 133.108 16.048 132.884 15.824C132.66 15.6 132.548 15.3333 132.548 15.024Z" fill="#3A10E5"/>
<circle cx="8.5" cy="9.5" r="8.5" fill="#3A10E5"/>
</svg>
