<svg width="66" height="66" viewBox="0 0 66 66" fill="none" xmlns="http://www.w3.org/2000/svg">
<circle opacity="0.12" cx="33" cy="33" r="33" fill="#27AE60"/>
<path d="M25.0832 33.7336C24.6592 33.3829 24.1066 33.1926 23.5364 33.2009C22.9662 33.2092 22.4204 33.4155 22.0087 33.7784C21.597 34.1413 21.3496 34.634 21.3164 35.1577C21.2831 35.6813 21.4663 36.1971 21.8293 36.6017L26.8458 41.4441C27.0558 41.6467 27.3082 41.8083 27.5877 41.919C27.8673 42.0297 28.1683 42.0873 28.4727 42.0884C28.7755 42.09 29.0755 42.0356 29.355 41.9285C29.6345 41.8214 29.8877 41.6638 30.0997 41.4649L45.4203 26.9168C45.628 26.7203 45.7916 26.4881 45.9018 26.2334C46.0119 25.9788 46.0665 25.7067 46.0623 25.4326C46.0581 25.1586 45.9952 24.888 45.8773 24.6363C45.7594 24.3846 45.5888 24.1567 45.3751 23.9656C45.1615 23.7746 44.909 23.6241 44.6321 23.5228C44.3552 23.4215 44.0593 23.3713 43.7614 23.3752C43.4634 23.3791 43.1692 23.4369 42.8955 23.5453C42.6219 23.6537 42.3741 23.8107 42.1664 24.0072L28.4953 37.0173L25.0832 33.7336Z" fill="#2AB930"/>
</svg>
