<svg width="200" height="60" viewBox="0 0 200 60" fill="none" xmlns="http://www.w3.org/2000/svg">
<g filter="url(#filter0_i_1522_4746)">
<path d="M33.0807 1.40343C11.382 2.58072 0 14.8722 0 27.2757C0 42.3142 1.57597 53.9049 15.9202 58.6981C27.0103 62.4122 55.7134 56.8201 90.3409 56.9742C136.861 57.1704 168.191 59.469 177.661 59.9735C204.73 61.375 210.727 6.71524 175.764 2.67883C144.376 -0.881067 67.8104 -0.446592 33.0807 1.40343Z" fill="url(#paint0_linear_1522_4746)"/>
</g>
<path d="M73.3044 21.172V23.09H70.7004V31H68.3064V23.09H65.7024V21.172H73.3044ZM79.8539 31.098C78.9299 31.098 78.0806 30.8833 77.3059 30.454C76.5406 30.0247 75.9292 29.4273 75.4719 28.662C75.0239 27.8873 74.7999 27.0193 74.7999 26.058C74.7999 25.0967 75.0239 24.2333 75.4719 23.468C75.9292 22.7027 76.5406 22.1053 77.3059 21.676C78.0806 21.2467 78.9299 21.032 79.8539 21.032C80.7779 21.032 81.6226 21.2467 82.3879 21.676C83.1626 22.1053 83.7692 22.7027 84.2079 23.468C84.6559 24.2333 84.8799 25.0967 84.8799 26.058C84.8799 27.0193 84.6559 27.8873 84.2079 28.662C83.7599 29.4273 83.1532 30.0247 82.3879 30.454C81.6226 30.8833 80.7779 31.098 79.8539 31.098ZM79.8539 28.914C80.6379 28.914 81.2632 28.6527 81.7299 28.13C82.2059 27.6073 82.4439 26.9167 82.4439 26.058C82.4439 25.19 82.2059 24.4993 81.7299 23.986C81.2632 23.4633 80.6379 23.202 79.8539 23.202C79.0606 23.202 78.4259 23.4587 77.9499 23.972C77.4832 24.4853 77.2499 25.1807 77.2499 26.058C77.2499 26.926 77.4832 27.6213 77.9499 28.144C78.4259 28.6573 79.0606 28.914 79.8539 28.914ZM96.5285 25.96C97.0979 26.0813 97.5552 26.366 97.9005 26.814C98.2459 27.2527 98.4185 27.7567 98.4185 28.326C98.4185 29.1473 98.1292 29.8007 97.5505 30.286C96.9812 30.762 96.1832 31 95.1565 31H90.5785V21.172H95.0025C96.0012 21.172 96.7805 21.4007 97.3405 21.858C97.9099 22.3153 98.1945 22.936 98.1945 23.72C98.1945 24.2987 98.0405 24.7793 97.7325 25.162C97.4339 25.5447 97.0325 25.8107 96.5285 25.96ZM92.9725 25.148H94.5405C94.9325 25.148 95.2312 25.064 95.4365 24.896C95.6512 24.7187 95.7585 24.462 95.7585 24.126C95.7585 23.79 95.6512 23.5333 95.4365 23.356C95.2312 23.1787 94.9325 23.09 94.5405 23.09H92.9725V25.148ZM94.7365 29.068C95.1379 29.068 95.4459 28.9793 95.6605 28.802C95.8845 28.6153 95.9965 28.3493 95.9965 28.004C95.9965 27.6587 95.8799 27.388 95.6465 27.192C95.4225 26.996 95.1099 26.898 94.7085 26.898H92.9725V29.068H94.7365ZM102.901 23.09V25.078H106.107V26.926H102.901V29.082H106.527V31H100.507V21.172H106.527V23.09H102.901ZM115.305 24.28C115.128 23.9533 114.871 23.706 114.535 23.538C114.209 23.3607 113.821 23.272 113.373 23.272C112.599 23.272 111.978 23.5287 111.511 24.042C111.045 24.546 110.811 25.2227 110.811 26.072C110.811 26.9773 111.054 27.6867 111.539 28.2C112.034 28.704 112.711 28.956 113.569 28.956C114.157 28.956 114.652 28.8067 115.053 28.508C115.464 28.2093 115.763 27.78 115.949 27.22H112.911V25.456H118.119V27.682C117.942 28.2793 117.639 28.8347 117.209 29.348C116.789 29.8613 116.253 30.2767 115.599 30.594C114.946 30.9113 114.209 31.07 113.387 31.07C112.417 31.07 111.549 30.86 110.783 30.44C110.027 30.0107 109.435 29.418 109.005 28.662C108.585 27.906 108.375 27.0427 108.375 26.072C108.375 25.1013 108.585 24.238 109.005 23.482C109.435 22.7167 110.027 22.124 110.783 21.704C111.539 21.2747 112.403 21.06 113.373 21.06C114.549 21.06 115.539 21.3447 116.341 21.914C117.153 22.4833 117.69 23.272 117.951 24.28H115.305ZM122.539 21.172V31H120.145V21.172H122.539ZM133.766 31H131.372L127.368 24.938V31H124.974V21.172H127.368L131.372 27.262V21.172H133.766V31Z" fill="white"/>
<defs>
<filter id="filter0_i_1522_4746" x="0" y="0" width="200" height="60" filterUnits="userSpaceOnUse" color-interpolation-filters="sRGB">
<feFlood flood-opacity="0" result="BackgroundImageFix"/>
<feBlend mode="normal" in="SourceGraphic" in2="BackgroundImageFix" result="shape"/>
<feColorMatrix in="SourceAlpha" type="matrix" values="0 0 0 0 0 0 0 0 0 0 0 0 0 0 0 0 0 0 127 0" result="hardAlpha"/>
<feOffset dx="4" dy="-5"/>
<feComposite in2="hardAlpha" operator="arithmetic" k2="-1" k3="1"/>
<feColorMatrix type="matrix" values="0 0 0 0 1 0 0 0 0 0.801587 0 0 0 0 0.75 0 0 0 0.68 0"/>
<feBlend mode="normal" in2="shape" result="effect1_innerShadow_1522_4746"/>
</filter>
<linearGradient id="paint0_linear_1522_4746" x1="100" y1="-4.91738e-06" x2="97.9969" y2="59.9331" gradientUnits="userSpaceOnUse">
<stop stop-color="#CB4080"/>
<stop offset="0.275066" stop-color="#C93D7D"/>
<stop offset="0.560069" stop-color="#BD3172"/>
<stop offset="1" stop-color="#AD1E60"/>
</linearGradient>
</defs>
</svg>
