<svg width="22" height="22" viewBox="0 0 22 22" fill="none" xmlns="http://www.w3.org/2000/svg">
<path d="M9.70778 2.75001C10.6478 2.75001 11.5245 3.43891 11.841 4.54311C11.9572 5.00467 12.0044 5.46721 12.0498 5.91302L12.0923 6.31848C12.2548 7.67167 12.2548 14.3195 12.0923 15.6825L12.0498 16.1027C12.0092 16.5269 11.9676 16.9658 11.8476 17.4343C11.5311 18.5355 10.6875 19.25 9.72951 19.25C9.69928 19.25 9.66904 19.25 9.63503 19.249C9.10598 19.249 8.53064 18.9183 8.2047 18.63L5.02756 15.9344H3.396C2.13666 15.9344 1.2146 15.0064 1.04738 13.5706C0.854656 12.1347 0.892446 9.67143 1.04738 8.36647C1.22972 7.00738 2.19524 6.06556 3.396 6.06556H5.02756L8.14424 3.40939C8.52025 3.07675 9.18345 2.74805 9.70778 2.75001ZM17.3951 2.95265C17.7711 2.68103 18.2879 2.78043 18.5458 3.16916C19.9591 5.28603 20.7376 8.06817 20.7376 10.9999C20.7376 13.9336 19.9591 16.7148 18.5458 18.8316C18.3918 19.0629 18.1377 19.2017 17.8665 19.2017C17.6984 19.2017 17.5359 19.1485 17.396 19.0481C17.0219 18.7755 16.9293 18.2392 17.1882 17.8495C18.4107 16.017 19.0843 13.5842 19.0843 10.9999C19.0843 8.41656 18.4107 5.98378 17.1882 4.15132C16.9293 3.76259 17.0219 3.22526 17.3951 2.95265ZM14.5465 5.73686C14.9235 5.46622 15.4384 5.56365 15.6982 5.95337C16.6108 7.32132 17.1143 9.11342 17.1143 11C17.1143 12.8866 16.6108 14.6787 15.6982 16.0466C15.5432 16.2779 15.29 16.4167 15.0189 16.4167C14.8507 16.4167 14.6873 16.3635 14.5475 16.2631C14.1734 15.9905 14.0808 15.4532 14.3406 15.0645C15.0633 13.9809 15.461 12.5372 15.461 11C15.461 9.4618 15.0633 8.01907 14.3406 6.93553C14.0808 6.5468 14.1734 6.00947 14.5465 5.73686Z" fill="#655F5F"/>
</svg>
