<svg width="22" height="22" viewBox="0 0 19 16" fill="#3A10E5" xmlns="http://www.w3.org/2000/svg">
<path d="M8.3265 8.25655e-06C9.21683 8.25655e-06 10.0472 0.652499 10.347 1.69833C10.457 2.1355 10.5018 2.57359 10.5447 2.99584L10.585 3.37987C10.7389 4.66154 10.7389 10.958 10.585 12.249L10.5447 12.647C10.5062 13.0487 10.4669 13.4645 10.3532 13.9081C10.0535 14.9512 9.25441 15.6279 8.34708 15.6279C8.31845 15.6279 8.28982 15.6279 8.2576 15.627C7.75652 15.627 7.21158 15.3138 6.90287 15.0407L3.89365 12.4876H2.34833C1.15555 12.4876 0.282226 11.6086 0.123845 10.2486C-0.0586944 8.88869 -0.0229023 6.5556 0.123845 5.31961C0.296542 4.03236 1.21103 3.14032 2.34833 3.14032H3.89365L6.84561 0.624535C7.20174 0.30948 7.82989 -0.00184765 8.3265 8.25655e-06ZM15.6075 0.19194C15.9636 -0.0653248 16.4531 0.028819 16.6974 0.397005C18.036 2.40199 18.7733 5.03709 18.7733 7.81386C18.7733 10.5925 18.036 13.2267 16.6974 15.2317C16.5515 15.4507 16.3108 15.5821 16.054 15.5821C15.8947 15.5821 15.7408 15.5318 15.6084 15.4367C15.2541 15.1785 15.1664 14.6705 15.4116 14.3014C16.5694 12.5658 17.2074 10.2616 17.2074 7.81386C17.2074 5.36706 16.5694 3.06286 15.4116 1.32726C15.1664 0.959072 15.2541 0.450136 15.6075 0.19194ZM12.9095 2.82899C13.2665 2.57266 13.7542 2.66494 14.0003 3.03406C14.8646 4.3297 15.3416 6.02709 15.3416 7.81396C15.3416 9.60083 14.8646 11.2982 14.0003 12.5939C13.8535 12.8129 13.6137 12.9443 13.3569 12.9443C13.1976 12.9443 13.0428 12.894 12.9104 12.7989C12.5561 12.5407 12.4684 12.0318 12.7144 11.6636C13.399 10.6373 13.7757 9.26993 13.7757 7.81396C13.7757 6.35706 13.399 4.99057 12.7144 3.96431C12.4684 3.59613 12.5561 3.08719 12.9095 2.82899Z" fill="#3A10E5;
"/>
</svg>
